<svg width="289" height="258" viewBox="0 0 289 258" fill="none" xmlns="http://www.w3.org/2000/svg">
<path d="M15.3804 133.368L16.6511 135.668L13.643 137.447L12.3723 135.141C10.1377 136.049 7.50405 136.17 5.46591 133.762L8.75026 130.433C9.14475 130.957 9.71525 131.309 10.3486 131.418C10.982 131.528 11.632 131.387 12.1697 131.024C13.1642 130.439 13.6062 129.626 13.1028 128.711C12.2925 127.237 10.5306 128.171 8.28984 128.755C5.88336 129.359 3.37865 129.499 1.7334 126.468C0.23549 123.749 0.990585 121.245 3.35409 119.333L2.08332 117.027L5.11598 115.241L6.38675 117.56C8.96513 116.556 11.1874 116.976 12.8941 118.723L9.78161 121.9C9.04494 121.01 7.93992 120.82 6.60162 121.607C5.26332 122.395 5.20193 123.202 5.58869 123.901C6.20258 125.038 7.28919 124.733 9.622 124.06C12.0776 123.38 15.2576 122.541 17.1545 125.966C18.6831 128.768 17.7562 131.411 15.3804 133.368Z" fill="#F0F0F0"/>
<path d="M19.721 80.4238L16.6883 79.9155L16.9891 78.0094C15.5281 77.4821 13.9197 76.3321 13.7969 73.8669V73.5619L17.6706 73.168V73.5174C17.6614 73.9153 17.7991 74.3018 18.0558 74.5982C18.3125 74.8945 18.6687 75.0783 19.0518 75.1122C19.7476 75.2266 20.1344 75.0296 20.2121 74.5213C20.3165 73.8351 19.7087 73.5429 18.53 73.0346C18.2661 72.9202 17.9898 72.7995 17.7074 72.6661C16.0744 71.8782 14.4722 70.7092 14.8835 68.047C15.2273 65.855 16.6392 64.6288 18.8922 64.578L19.193 62.6719L22.2625 63.1802L21.9679 65.0862C22.7844 65.3401 23.5107 65.8368 24.0565 66.5146C24.6022 67.1925 24.9434 68.0214 25.0374 68.8984L25.0742 69.2161L21.3417 69.6227V69.2796C21.311 68.371 20.5743 68.0534 19.9604 67.9517C19.2422 67.831 18.8431 68.0152 18.7695 68.4918C18.6712 69.1271 19.058 69.3431 20.7523 70.0929C22.3423 70.8235 24.7427 71.9227 24.27 74.9724C23.9323 77.1517 22.4283 78.4224 20.0771 78.4987L19.721 80.4238ZM17.3943 79.3882L19.236 79.6931L19.5184 77.8824H19.7824C21.047 77.8824 23.2202 77.5139 23.6315 74.8835C24.0428 72.2531 22.06 71.4144 20.4761 70.6901C18.8922 69.9658 17.9468 69.5719 18.131 68.4028C18.1801 68.0851 18.4625 67.0749 20.0279 67.3418C20.46 67.3666 20.8727 67.5353 21.2046 67.8227C21.5365 68.1101 21.7697 68.5008 21.8696 68.9365L24.3252 68.6697C24.0613 67.1893 23.0974 66.1282 21.4829 65.6072L21.2312 65.5183L21.5136 63.7075L19.6719 63.3962L19.3895 65.2197H19.1255C17.6706 65.2197 15.8534 65.6835 15.4421 68.155C15.1106 70.2708 16.1911 71.2619 17.8977 72.1006C18.1678 72.2277 18.4441 72.342 18.7019 72.4564C19.8499 72.952 20.9365 73.4158 20.7462 74.6293C20.6112 75.4998 19.9174 75.9 18.9045 75.7476C18.4358 75.6886 17.9998 75.4689 17.6659 75.1234C17.3321 74.7779 17.1198 74.3265 17.0628 73.8415L14.4169 74.1083C14.6318 76.1478 16.1481 77.0564 17.4127 77.463L17.6644 77.5456L17.3943 79.3882Z" fill="#F0F0F0"/>
<path d="M190.096 97.7178L189.323 95.9579C187.825 96.3518 185.848 96.3391 184.442 94.3441L184.271 94.1027L187.285 91.5612L187.475 91.8471C187.679 92.1851 188 92.429 188.373 92.5284C188.745 92.6278 189.14 92.5749 189.476 92.3808C189.74 92.2765 189.965 92.09 190.121 91.8471C190.175 91.7505 190.203 91.641 190.203 91.5295C190.203 91.4179 190.175 91.3084 190.121 91.2118C189.845 90.5764 189.176 90.6844 187.929 90.9386C187.647 90.9958 187.352 91.0593 187.039 91.1101C185.265 91.3897 183.301 91.3388 182.22 88.8864C181.342 86.8977 181.876 85.0234 183.687 83.7018L182.914 81.98L185.726 80.6458L186.505 82.412C187.32 82.1496 188.192 82.1443 189.01 82.3966C189.827 82.6489 190.554 83.1475 191.097 83.8289L191.3 84.0767L188.408 86.5546L188.218 86.275C188.002 85.9978 187.694 85.8128 187.355 85.7554C187.015 85.6979 186.666 85.7721 186.376 85.9637C185.713 86.275 185.474 86.6562 185.67 87.101C185.934 87.6982 186.481 87.622 188.175 87.2916C189.869 86.9612 192.472 86.5165 193.7 89.3311C194.584 91.3325 194.001 93.2703 192.104 94.6745L192.877 96.4281L190.096 97.7178ZM189.661 95.1764L190.403 96.8538L192.079 96.0596L191.367 94.414L191.588 94.2615C192.644 93.5435 194.253 91.9806 193.184 89.5598C192.116 87.1391 190.011 87.5775 188.273 87.8888C186.536 88.2002 185.572 88.4098 185.099 87.3297C184.97 87.0375 184.663 86.059 186.106 85.3538C186.48 85.123 186.915 85.0236 187.348 85.0706C187.781 85.1175 188.187 85.3083 188.506 85.6143L190.422 83.9687C189.409 82.8886 188.058 82.5836 186.413 83.0601L186.161 83.13L185.425 81.459L183.724 82.2596L184.467 83.9369L184.24 84.083C183.012 84.9027 181.784 86.3576 182.779 88.6259C183.638 90.5828 185.069 90.7861 186.947 90.4875C187.248 90.4366 187.561 90.3795 187.807 90.3223C189.034 90.0745 190.189 89.8394 190.68 90.9576C190.775 91.1423 190.825 91.3485 190.825 91.558C190.825 91.7676 190.775 91.9738 190.68 92.1585C190.46 92.5179 190.135 92.7959 189.753 92.9527C189.335 93.1773 188.856 93.2518 188.393 93.1644C187.929 93.077 187.507 92.8326 187.193 92.4698L185.142 94.2107C186.413 95.78 188.157 95.672 189.44 95.2844L189.661 95.1764Z" fill="#F0F0F0"/>
<path d="M281.966 109.999L281.192 108.246C279.694 108.64 277.717 108.627 276.312 106.632L276.14 106.391L279.154 103.849L279.344 104.141C279.549 104.476 279.869 104.718 280.24 104.817C280.61 104.917 281.004 104.866 281.339 104.675C281.604 104.57 281.831 104.384 281.99 104.141C282.044 104.045 282.072 103.935 282.072 103.824C282.072 103.712 282.044 103.603 281.99 103.506C281.714 102.871 281.045 102.979 279.799 103.233C279.516 103.29 279.221 103.354 278.908 103.404C277.134 103.678 275.17 103.633 274.089 101.181C273.211 99.1919 273.746 97.3176 275.557 95.9897L274.783 94.2361L277.595 92.9019L278.374 94.6618C279.19 94.4061 280.061 94.4047 280.877 94.6578C281.694 94.9109 282.42 95.4073 282.966 96.085L283.169 96.3264L280.277 98.8107L280.087 98.5311C279.872 98.2527 279.564 98.0668 279.224 98.0093C278.884 97.9518 278.535 98.0268 278.245 98.2198C277.582 98.5311 277.343 98.9123 277.539 99.3507C277.803 99.9543 278.35 99.8781 280.044 99.5477C281.738 99.2173 284.341 98.7726 285.569 101.581C286.453 103.589 285.87 105.526 283.973 106.924L284.747 108.684L281.966 109.999ZM281.53 107.458L282.273 109.135L283.948 108.341L283.206 106.67L283.427 106.518C284.483 105.8 286.091 104.237 285.023 101.816C283.955 99.3952 281.849 99.8336 280.142 100.145C278.436 100.456 277.441 100.66 276.968 99.5858C276.84 99.2936 276.533 98.3151 277.975 97.6099C278.349 97.3791 278.785 97.2797 279.217 97.3267C279.65 97.3736 280.056 97.5644 280.376 97.8704L282.291 96.2248C281.278 95.1447 279.927 94.8397 278.282 95.3099L278.031 95.3861L277.294 93.7151L275.593 94.5157L276.336 96.193L276.109 96.3391C274.881 97.1588 273.653 98.6137 274.642 100.882C275.507 102.833 276.938 103.036 278.816 102.744C279.117 102.693 279.43 102.636 279.676 102.578C280.904 102.331 282.052 102.095 282.549 103.214C282.646 103.399 282.696 103.607 282.696 103.817C282.696 104.028 282.646 104.235 282.549 104.421C282.328 104.79 281.999 105.075 281.61 105.234C281.192 105.459 280.713 105.533 280.25 105.446C279.786 105.359 279.364 105.114 279.05 104.751L276.999 106.492C278.27 108.062 280.013 107.947 281.296 107.56L281.53 107.458Z" fill="#F0F0F0"/>
<path d="M143.705 17.1737L144.036 15.2677C142.593 14.7022 140.967 13.5204 140.93 11.0489V10.7503L144.81 10.4389V10.8202C144.793 11.2173 144.924 11.606 145.175 11.9069C145.426 12.2079 145.778 12.3987 146.16 12.4403C146.433 12.5116 146.72 12.4939 146.983 12.3895C147.078 12.3417 147.16 12.2692 147.22 12.179C147.28 12.0888 147.317 11.984 147.327 11.8749C147.449 11.195 146.848 10.8837 145.681 10.3563C145.417 10.2356 145.141 10.1086 144.859 9.96878C143.25 9.14281 141.666 7.94834 142.133 5.28619C142.507 3.13867 143.975 1.91878 146.203 1.90608L146.541 0L149.61 0.571824L149.273 2.4779C150.079 2.75589 150.788 3.27348 151.313 3.96611C151.837 4.65873 152.152 5.49572 152.219 6.37265V6.69668L148.481 7.02072V6.67762C148.481 5.7627 147.738 5.43867 147.13 5.32431C146.412 5.18453 146.007 5.32431 145.902 5.8326C145.786 6.46795 146.277 6.74751 147.848 7.47817C149.42 8.20884 151.808 9.38425 151.274 12.434C150.893 14.6005 149.34 15.8458 147.007 15.8713L146.676 17.7773L143.705 17.1737ZM144.711 14.8738L144.392 16.6845L146.203 17.0276L146.522 15.2168H146.786C148.045 15.255 150.23 14.9246 150.691 12.3069C151.151 9.68922 149.187 8.80607 147.621 8.04364C146.056 7.28121 145.141 6.88094 145.325 5.73729C145.38 5.42596 145.687 4.4221 147.247 4.71436C147.683 4.74248 148.099 4.91705 148.432 5.21167C148.764 5.50629 148.995 5.90492 149.088 6.34723L151.544 6.13757C151.311 4.65083 150.371 3.59613 148.763 3.0116L148.511 2.92265L148.831 1.11823L146.989 0.768785L146.7 2.5605H146.436C144.981 2.50331 143.158 2.96077 142.722 5.41326C142.354 7.529 143.41 8.53922 145.116 9.40966C145.387 9.54944 145.657 9.67016 145.915 9.78453C147.056 10.3055 148.131 10.7947 147.916 12.0019C147.889 12.2095 147.812 12.4069 147.693 12.5766C147.574 12.7462 147.417 12.8827 147.234 12.974C146.847 13.1467 146.416 13.1846 146.007 13.082C145.539 13.0199 145.105 12.7991 144.772 12.4542C144.438 12.1093 144.225 11.6598 144.165 11.176L141.519 11.3856C141.691 13.4251 143.189 14.3718 144.447 14.8039L144.711 14.8738Z" fill="#F0F0F0"/>
<path d="M34.2454 110.33L33.9201 111.842L31.9556 111.385L32.2809 109.879C30.9672 109.364 29.7824 108.348 29.8254 106.486L32.502 106.378C32.472 106.761 32.5814 107.141 32.8086 107.444C33.0358 107.747 33.3643 107.952 33.7297 108.017C34.3805 108.17 34.8777 108.017 35.0067 107.382C35.2154 106.423 34.0981 106.111 32.9133 105.476C31.7284 104.84 30.5191 103.818 30.9488 101.835C31.3294 100.056 32.6063 99.2938 34.3436 99.4145L34.669 97.9023L36.658 98.3598L36.3327 99.872C36.9909 100.081 37.5712 100.494 37.9951 101.055C38.4189 101.616 38.6658 102.299 38.7023 103.011L36.1485 103.131C36.1485 102.445 35.7618 101.918 34.8839 101.714C34.006 101.511 33.6561 101.835 33.5763 102.293C33.4167 103.036 33.9999 103.341 35.2584 103.995C36.5168 104.65 38.2665 105.622 37.7815 107.877C37.4131 109.682 36.0073 110.451 34.2454 110.33Z" fill="#F0F0F0"/>
<path d="M143.146 85.3032L142.379 88.0289L138.83 86.9615L139.598 84.2421C137.259 83.1493 135.208 81.1479 135.472 77.7424L140.383 77.8631C140.283 78.5698 140.444 79.2898 140.834 79.8788C141.225 80.4679 141.816 80.8826 142.489 81.0399C143.662 81.3894 144.589 81.1352 144.896 80.0551C145.381 78.3142 143.379 77.609 141.286 76.243C139.045 74.788 137.093 72.9264 138.1 69.3493C138.996 66.1344 141.415 64.9018 144.582 65.3211L145.344 62.6018L148.929 63.6756L148.161 66.4012C150.826 67.672 152.164 69.7687 152.146 72.4308L147.462 72.3355C147.572 71.0648 146.897 70.0736 145.313 69.5971C143.821 69.146 143.091 69.6733 142.857 70.493C142.483 71.8399 143.508 72.4689 145.743 73.8095C148.088 75.2645 151.059 77.1515 149.923 81.2178C149.009 84.5217 146.357 85.7352 143.146 85.3032Z" fill="#F0F0F0"/>
<path d="M182.865 43.3377L183.362 45.0087L181.183 45.7076L180.685 44.0366C179.12 44.2971 177.407 43.9858 176.425 42.1306L178.997 40.4659C179.178 40.8635 179.497 41.1759 179.891 41.3407C180.285 41.5056 180.724 41.5108 181.121 41.3554C181.84 41.1267 182.239 40.6692 182.036 40.0021C181.717 38.9347 180.452 39.2715 178.93 39.3223C177.303 39.3223 175.688 39.0808 175.025 36.8825C174.411 34.9129 175.271 33.4134 177.051 32.5303L176.554 30.8593L178.752 30.1541L179.249 31.825C181.048 31.5582 182.417 32.1554 183.282 33.5342L180.827 35.1353C180.471 34.4554 179.789 34.1632 178.813 34.4999C177.837 34.8366 177.696 35.3259 177.849 35.8278C178.095 36.6538 178.831 36.6157 180.421 36.5267C182.104 36.4505 184.258 36.3742 185.007 38.8775C185.621 40.8662 184.657 42.4355 182.865 43.3377Z" fill="#F0F0F0"/>
<path d="M281.555 58.8723L281.144 61.2358L278.075 60.664L278.486 58.3004C276.423 57.5952 274.532 56.0957 274.465 53.2176L278.609 52.8745C278.588 53.4751 278.785 54.0619 279.163 54.5186C279.541 54.9752 280.07 55.2683 280.647 55.3397C281.66 55.5239 282.421 55.2253 282.587 54.2913C282.845 52.7855 281.101 52.3852 279.223 51.4322C277.221 50.4156 275.423 49.0242 275.957 45.9236C276.442 43.1408 278.369 41.851 281.07 41.9463L281.482 39.5891L284.588 40.1673L284.177 42.5245C286.522 43.3695 287.829 44.996 288.038 47.2325L284.091 47.5883C284.091 46.5272 283.422 45.7267 282.046 45.4725C280.671 45.2184 280.205 45.7457 280.064 46.451C279.861 47.62 280.776 48.0521 282.771 48.9924C284.864 49.9963 287.529 51.3115 286.915 54.8377C286.411 57.6651 284.293 58.9421 281.555 58.8723Z" fill="#F0F0F0"/>
<g opacity="0.3">
<path d="M64.0021 206.567V213.677L35.953 230.514L7.91016 213.829V206.567L35.953 223.321L64.0021 206.567Z" fill="#5570F1"/>
<path d="M131.328 220.005V227.115L103.279 243.958L75.2363 227.273V220.005L103.279 236.766L131.328 220.005Z" fill="#5570F1"/>
<path d="M198.631 233.385V240.495L170.582 257.338L142.539 240.654V233.385L170.582 250.146L198.631 233.385Z" fill="#5570F1"/>
<path d="M265.932 219.802V226.911L237.883 243.748L209.84 227.064V219.802L237.883 236.563L265.932 219.802Z" fill="#5570F1"/>
</g>
<path d="M7.91016 193.161L35.953 209.916L64.0021 193.161L35.953 176.426L7.91016 193.161Z" fill="#FAFAFA"/>
<path d="M35.9531 209.916V223.322L64.0022 206.567V193.161L35.9531 209.916Z" fill="#F0F0F0"/>
<path d="M7.91016 193.161L35.953 209.916V223.322L7.91016 206.567V193.161Z" fill="#E0E0E0"/>
<path d="M75.2188 193.174L103.268 209.928L131.311 193.174L103.268 176.438L75.2188 193.174Z" fill="#FAFAFA"/>
<path d="M103.268 209.928V236.734L131.31 219.973V193.173L103.268 209.928Z" fill="#F0F0F0"/>
<path d="M75.2188 193.173L103.268 209.928V236.734L75.2188 219.973V193.173Z" fill="#E0E0E0"/>
<path d="M142.531 183.116L170.574 199.877L198.623 183.116L170.574 166.381L142.531 183.116Z" fill="#FAFAFA"/>
<path d="M170.574 199.877V250.147L198.623 233.386V183.116L170.574 199.877Z" fill="#F0F0F0"/>
<path d="M142.531 183.116L170.574 199.877V250.147L142.531 233.386V183.116Z" fill="#E0E0E0"/>
<path d="M209.84 120.209L237.883 136.964L265.932 120.209L237.883 103.474L209.84 120.209Z" fill="#FAFAFA"/>
<path d="M265.933 120.209L258.842 116.162L251.788 112.057C249.431 110.698 247.098 109.294 244.753 107.915L237.73 103.753H238.025L231.002 107.915C228.657 109.294 226.324 110.698 223.966 112.057L216.913 116.162L209.822 120.209L216.753 115.882L223.721 111.619C226.041 110.189 228.38 108.804 230.713 107.4L237.712 103.188L237.865 103.093L238.025 103.188L245.023 107.4C247.35 108.804 249.695 110.196 252.009 111.625L258.977 115.889L265.933 120.209Z" fill="#E6E6E6"/>
<path d="M237.883 136.964V236.601L265.932 219.84V120.209L237.883 136.964Z" fill="#F0F0F0"/>
<path d="M209.84 120.209L237.883 136.964V236.601L209.84 219.84V120.209Z" fill="#E0E0E0"/>
<path opacity="0.05" d="M245.102 96.9552C256.081 92.1205 259.308 74.4044 252.311 57.3852C245.314 40.3659 230.742 30.4884 219.763 35.3231C208.785 40.1578 205.557 57.874 212.554 74.8932C219.551 91.9124 234.124 101.79 245.102 96.9552Z" fill="#F8B32E"/>
<path opacity="0.05" d="M247.503 102.795C260.559 97.0456 264.396 75.9729 256.072 55.728C247.749 35.4832 230.418 23.7325 217.361 29.4823C204.305 35.232 200.468 56.3048 208.791 76.5496C217.115 96.7945 234.446 108.545 247.503 102.795Z" fill="#F8B32E"/>
<path opacity="0.05" d="M249.933 108.706C265.099 102.028 269.557 77.5558 259.892 54.0466C250.226 30.5374 230.097 16.8934 214.932 23.5718C199.767 30.2503 195.308 54.7223 204.973 78.2315C214.639 101.741 234.768 115.385 249.933 108.706Z" fill="#F8B32E"/>
<path d="M220.398 47.0376L219.219 44.4962L224.358 41.4274C224.967 41.0635 225.619 40.7817 226.298 40.5887C226.537 40.5252 226.776 40.468 227.016 40.4235C228.219 40.2199 229.448 40.2565 230.638 40.5315C231.078 40.6249 231.513 40.7458 231.939 40.8937C232.398 41.0469 232.849 41.2251 233.29 41.4274C233.881 41.702 234.459 42.0074 235.021 42.3423C235.635 42.7108 236.249 43.1238 236.82 43.5686C237.268 43.9053 237.71 44.2675 238.146 44.6487C244.524 50.2208 249.54 60.1514 250.817 69.7072C250.903 70.3553 250.97 71.0034 251.019 71.6514C251.097 72.5706 251.134 73.4855 251.13 74.3962C251.13 75.1332 251.099 75.8511 251.044 76.5437C250.989 77.2362 250.933 77.7254 250.847 78.2846C250.761 78.8437 250.663 79.3837 250.547 79.9047C250.238 81.3366 249.736 82.7163 249.055 84.0028C248.92 84.2569 248.772 84.5047 248.625 84.7398C248.016 85.7191 247.245 86.5794 246.347 87.2812C246.081 87.4873 245.802 87.6761 245.513 87.8467L240.651 90.7503L239.576 88.4312C239.294 88.3614 239.005 88.2851 238.711 88.1962C237.53 87.8198 236.396 87.2994 235.334 86.6459C234.647 86.2298 233.983 85.7738 233.345 85.2799C232.484 84.6162 231.663 83.8968 230.89 83.126C225.567 77.8271 221.374 69.5293 219.839 61.2697C219.614 60.057 219.448 58.8335 219.342 57.6036C219.25 56.5934 219.207 55.5832 219.207 54.592C219.206 53.1614 219.321 51.7332 219.551 50.3224C219.736 49.2031 220.019 48.1035 220.398 47.0376Z" fill="#F8B32E"/>
<path opacity="0.25" d="M249.643 64.059L239.207 70.2855L237.832 66.1811L248.268 59.9419C248.796 61.2952 249.257 62.6676 249.643 64.059Z" fill="white"/>
<path opacity="0.25" d="M224.358 41.4274C224.967 41.0635 225.619 40.7817 226.298 40.5887C226.537 40.5252 226.776 40.468 227.016 40.4235C228.219 40.2199 229.448 40.2565 230.638 40.5315L231.111 40.6459L220.386 47.0376L219.207 44.4962L224.358 41.4274Z" fill="white"/>
<path opacity="0.25" d="M225.474 57.2037L224.105 55.4945L239.735 46.1802C240.233 46.6885 240.718 47.2222 241.196 47.7813L225.474 57.2037Z" fill="white"/>
<path opacity="0.25" d="M244.519 52.3431L230.976 60.4376L229.484 56.403L242.094 48.8613C242.962 49.9756 243.772 51.1379 244.519 52.3431Z" fill="white"/>
<path opacity="0.4" d="M224.357 41.4274C224.967 41.0635 225.619 40.7817 226.297 40.5887C226.536 40.5252 226.776 40.468 227.015 40.4235C228.218 40.2199 229.448 40.2565 230.637 40.5315C231.078 40.6249 231.512 40.7458 231.939 40.8937C232.398 41.0469 232.849 41.2251 233.289 41.4274C233.881 41.702 234.459 42.0074 235.021 42.3423C235.634 42.7108 236.248 43.1238 236.819 43.5686C237.267 43.9053 237.709 44.2675 238.145 44.6487C244.082 49.8395 248.846 58.8108 250.497 67.7376L228.746 80.7116C224.27 75.0868 221.214 68.3997 219.851 61.2506C219.626 60.038 219.46 58.8144 219.354 57.5846C219.262 56.5744 219.219 55.5641 219.219 54.573C219.218 53.1423 219.333 51.7141 219.563 50.3034C219.743 49.1801 220.022 48.0763 220.397 47.0058L219.219 44.4644L224.357 41.4274Z" fill="white"/>
<path opacity="0.1" d="M240.65 90.7568L239.576 88.4378C239.294 88.3679 239.005 88.2916 238.711 88.2027C237.53 87.8263 236.396 87.3059 235.334 86.6524C234.647 86.2364 233.983 85.7803 233.345 85.2864C232.483 84.6228 231.663 83.9034 230.889 83.1325C230.131 82.3723 229.409 81.5729 228.729 80.7372L250.479 67.7378C250.602 68.3732 250.706 69.053 250.798 69.7074C250.89 70.3618 250.952 70.9781 251.001 71.6516C251.079 72.5708 251.115 73.4857 251.111 74.3964C251.111 75.1334 251.081 75.8513 251.025 76.5439C250.97 77.2364 250.915 77.7256 250.829 78.2847C250.743 78.8439 250.645 79.3839 250.528 79.9049C250.22 81.3368 249.718 82.7165 249.036 84.003C248.901 84.2571 248.754 84.5049 248.607 84.74C247.998 85.7193 247.227 86.5796 246.329 87.2814C246.062 87.4874 245.783 87.6763 245.494 87.8469L240.65 90.7568Z" fill="black"/>
<path opacity="0.1" d="M249.074 84.0025C248.939 84.2567 248.791 84.5045 248.644 84.7395C248.035 85.7188 247.264 86.5792 246.366 87.281C246.1 87.487 245.821 87.6758 245.532 87.8465L240.669 90.75L239.595 88.431H239.552L239.479 87.4779L250.277 81.0227C249.981 82.0579 249.577 83.057 249.074 84.0025Z" fill="black"/>
<path d="M213.725 57.8829C213.725 58.8741 213.768 59.8779 213.854 60.8945C213.964 62.1017 214.13 63.3279 214.357 64.5605C215.892 72.8202 220.085 81.0799 225.407 86.4169C226.18 87.1875 227 87.9048 227.863 88.5644C228.499 89.0605 229.163 89.5166 229.852 89.9304C230.915 90.5832 232.048 91.1056 233.228 91.487C234.392 91.8608 235.609 92.0242 236.826 91.9699C238.452 91.8954 240.019 91.3129 241.319 90.2989C242.216 89.5953 242.986 88.7353 243.597 87.7575C243.744 87.5224 243.886 87.2746 244.027 87.0205C244.703 85.7337 245.205 84.3569 245.519 82.9288C245.635 82.4141 245.733 81.8741 245.819 81.3149C245.905 80.7558 245.967 80.1713 246.016 79.5741C246.071 78.8815 246.096 78.1636 246.102 77.4202C246.102 76.518 246.065 75.5967 245.991 74.6754C245.942 74.0401 245.875 73.4047 245.783 72.7312C244.512 63.2009 239.49 53.2448 233.112 47.6727C232.676 47.2915 232.24 46.9357 231.792 46.5989C231.211 46.1587 230.608 45.7494 229.987 45.3727C229.428 45.0308 228.85 44.7231 228.256 44.4514C227.817 44.2481 227.369 44.0699 226.911 43.9177C226.482 43.772 226.046 43.6511 225.604 43.5556C224.416 43.2826 223.188 43.248 221.988 43.4539C221.742 43.4984 221.503 43.5492 221.27 43.6128C220.243 43.9008 219.281 44.3952 218.439 45.0677C217.051 46.2054 215.965 47.69 215.284 49.3818C214.702 50.7367 214.289 52.163 214.056 53.626C213.831 55.0329 213.72 56.4568 213.725 57.8829Z" fill="#F8B32E"/>
<path opacity="0.1" d="M213.725 57.8829C213.725 58.8741 213.768 59.8779 213.854 60.8945C213.964 62.1017 214.13 63.3279 214.357 64.5605C215.892 72.8202 220.085 81.0799 225.407 86.4169C226.18 87.1875 227 87.9048 227.863 88.5644C228.499 89.0605 229.163 89.5166 229.852 89.9304C230.915 90.5832 232.048 91.1056 233.228 91.487C234.392 91.8608 235.609 92.0242 236.826 91.9699C238.452 91.8954 240.019 91.3129 241.319 90.2989C242.216 89.5953 242.986 88.7353 243.597 87.7575C243.744 87.5224 243.886 87.2746 244.027 87.0205C244.703 85.7337 245.205 84.3569 245.519 82.9288C245.635 82.4141 245.733 81.8741 245.819 81.3149C245.905 80.7558 245.967 80.1713 246.016 79.5741C246.071 78.8815 246.096 78.1636 246.102 77.4202C246.102 76.518 246.065 75.5967 245.991 74.6754C245.942 74.0401 245.875 73.4047 245.783 72.7312C244.512 63.2009 239.49 53.2448 233.112 47.6727C232.676 47.2915 232.24 46.9357 231.792 46.5989C231.211 46.1587 230.608 45.7494 229.987 45.3727C229.428 45.0308 228.85 44.7231 228.256 44.4514C227.817 44.2481 227.369 44.0699 226.911 43.9177C226.482 43.772 226.046 43.6511 225.604 43.5556C224.416 43.2826 223.188 43.248 221.988 43.4539C221.742 43.4984 221.503 43.5492 221.27 43.6128C220.243 43.9008 219.281 44.3952 218.439 45.0677C217.051 46.2054 215.965 47.69 215.284 49.3818C214.702 50.7367 214.289 52.163 214.056 53.626C213.831 55.0329 213.72 56.4568 213.725 57.8829Z" fill="white"/>
<path opacity="0.05" d="M245.452 70.7363C245.575 71.3717 245.685 72.0579 245.771 72.7186C245.857 73.3794 245.931 74.0211 245.98 74.6628C246.053 75.5841 246.09 76.5054 246.09 77.4076C246.09 78.151 246.059 78.8689 246.004 79.5615C245.955 80.1587 245.894 80.7432 245.808 81.3023C245.722 81.8615 245.624 82.4015 245.507 82.9162C245.193 84.3443 244.691 85.7211 244.015 87.0079C243.874 87.262 243.733 87.5098 243.585 87.7449C242.975 88.7227 242.204 89.5827 241.308 90.2863C240.007 91.3003 238.441 91.8828 236.814 91.9573C235.597 92.0116 234.38 91.8482 233.217 91.4744C232.037 91.093 230.904 90.5706 229.84 89.9178C229.229 89.5526 228.639 89.1516 228.072 88.717L245.452 70.7363Z" fill="black"/>
<path opacity="0.05" d="M245.205 84.0725C244.911 85.0947 244.512 86.081 244.014 87.0142C243.873 87.2684 243.731 87.5162 243.584 87.7512C242.973 88.7291 242.203 89.5891 241.306 90.2927C240.237 91.1208 238.987 91.6621 237.666 91.8684L245.205 84.0725Z" fill="black"/>
<path opacity="0.15" d="M243.242 62.9661C243.763 64.3089 244.216 65.6789 244.599 67.0705L225.672 86.6649L225.414 86.4172C224.594 85.5967 223.819 84.7292 223.094 83.8185L243.242 62.9661Z" fill="white"/>
<path opacity="0.15" d="M237.054 51.8789C237.922 52.9895 238.73 54.1498 239.472 55.3543L218.637 76.8993C217.961 75.5841 217.341 74.2181 216.795 72.8267L237.054 51.8789Z" fill="white"/>
<path opacity="0.15" d="M234.69 49.1726C235.187 49.6809 235.679 50.221 236.157 50.7864L216.236 71.4038C215.96 70.635 215.696 69.8535 215.463 69.072L234.69 49.1726Z" fill="white"/>
<path opacity="0.15" d="M213.773 56.3903C213.773 55.99 213.823 55.6025 213.859 55.2213L213.896 54.84C213.896 54.7066 213.927 54.5795 213.945 54.4525C213.982 54.1666 214.019 53.887 214.068 53.6138C214.301 52.1508 214.714 50.7245 215.296 49.3696C215.977 47.6778 217.063 46.1932 218.451 45.0555C219.293 44.383 220.255 43.8886 221.281 43.6005C221.515 43.537 221.754 43.4862 222 43.4417C223.2 43.2358 224.428 43.2704 225.616 43.5434C225.775 43.5434 225.935 43.6196 226.094 43.6641L213.773 56.3903Z" fill="white"/>
<path d="M217.85 60.4439C217.85 69.2564 222.816 79.4348 229.096 83.7616C229.366 83.9459 229.636 84.1237 229.907 84.2826C236.567 88.2663 241.964 84.0412 241.964 74.8539C241.964 65.6666 236.567 54.9862 229.907 51.0089C229.636 50.8437 229.366 50.6975 229.096 50.5641C222.816 47.381 217.85 51.6251 217.85 60.4439Z" fill="#F8B32E"/>
<path opacity="0.4" d="M217.85 60.4439C217.85 69.2564 222.816 79.4348 229.096 83.7616C229.366 83.9459 229.636 84.1237 229.907 84.2826C236.567 88.2663 241.964 84.0412 241.964 74.8539C241.964 65.6666 236.567 54.9862 229.907 51.0089C229.636 50.8437 229.366 50.6975 229.096 50.5641C222.816 47.381 217.85 51.6251 217.85 60.4439Z" fill="black"/>
<path d="M218.379 60.7616C218.379 61.0496 218.379 61.3355 218.379 61.6193C218.685 69.8345 223.29 79.0472 229.109 83.0436L229.269 83.1516C229.472 83.2914 229.674 83.4248 229.883 83.5455C230.993 84.2388 232.224 84.7007 233.505 84.9052C234.772 85.1093 236.069 84.895 237.212 84.2928C238.355 83.6906 239.285 82.7311 239.871 81.5505C240.777 79.7983 241.287 77.8562 241.363 75.8704C241.363 75.4384 241.406 74.9936 241.406 74.5298C241.406 74.066 241.406 73.6848 241.369 73.2591C241.325 72.3502 241.233 71.4445 241.093 70.5461C240.08 64.1925 236.795 57.7246 232.646 53.8362C232.065 53.2917 231.45 52.7886 230.804 52.3304C230.503 52.1207 230.19 51.9237 229.895 51.7458C229.601 51.5679 229.373 51.4472 229.122 51.3138L228.907 51.2121C227.439 50.4357 225.772 50.1599 224.143 50.4243C221.687 50.9072 219.846 52.9085 218.956 56.1044C218.552 57.6208 218.357 59.1888 218.379 60.7616Z" fill="#F8B32E"/>
<path opacity="0.5" d="M218.379 60.7616C218.379 61.0496 218.379 61.3355 218.379 61.6193C218.685 69.8345 223.29 79.0472 229.109 83.0436L229.269 83.1516C229.472 83.2914 229.674 83.4248 229.883 83.5455C230.993 84.2388 232.224 84.7007 233.505 84.9052C234.772 85.1093 236.069 84.895 237.212 84.2928C238.355 83.6906 239.285 82.7311 239.871 81.5505C240.777 79.7983 241.287 77.8562 241.363 75.8704C241.363 75.4384 241.406 74.9936 241.406 74.5298C241.406 74.066 241.406 73.6848 241.369 73.2591C241.325 72.3502 241.233 71.4445 241.093 70.5461C240.08 64.1925 236.795 57.7246 232.646 53.8362C232.065 53.2917 231.45 52.7886 230.804 52.3304C230.503 52.1207 230.19 51.9237 229.895 51.7458C229.601 51.5679 229.373 51.4472 229.122 51.3138L228.907 51.2121C227.439 50.4357 225.772 50.1599 224.143 50.4243C221.687 50.9072 219.846 52.9085 218.956 56.1044C218.552 57.6208 218.357 59.1888 218.379 60.7616Z" fill="black"/>
<path d="M220.317 60.4688C220.317 60.185 220.317 59.8991 220.317 59.6111C220.3 58.0406 220.494 56.4752 220.895 54.9603C221.298 53.3108 222.15 51.8158 223.35 50.6525C223.611 50.5613 223.878 50.487 224.148 50.4301C225.777 50.1658 227.444 50.4416 228.912 51.218L229.127 51.3196C229.379 51.4531 229.643 51.5929 229.9 51.7517C230.158 51.9105 230.514 52.1266 230.809 52.3362C231.455 52.7945 232.07 53.2976 232.651 53.842C236.795 57.7304 240.085 64.192 241.092 70.5456C241.238 71.4415 241.337 72.3451 241.386 73.2522C241.386 73.6779 241.423 74.1036 241.423 74.5229C241.423 74.9423 241.423 75.4315 241.38 75.8636C241.305 77.8493 240.794 79.7914 239.889 81.5437C239.489 82.2619 238.977 82.9061 238.372 83.4497C237.427 83.7833 236.419 83.877 235.432 83.7229C234.15 83.5175 232.92 83.0556 231.81 82.3633C231.607 82.2362 231.398 82.1091 231.196 81.9694L231.042 81.8613C225.241 77.8967 220.618 68.684 220.317 60.4688Z" fill="#F8B32E"/>
<path opacity="0.25" d="M220.317 60.4688C220.317 60.185 220.317 59.8991 220.317 59.6111C220.3 58.0406 220.494 56.4752 220.895 54.9603C221.298 53.3108 222.15 51.8158 223.35 50.6525C223.611 50.5613 223.878 50.487 224.148 50.4301C225.777 50.1658 227.444 50.4416 228.912 51.218L229.127 51.3196C229.379 51.4531 229.643 51.5929 229.9 51.7517C230.158 51.9105 230.514 52.1266 230.809 52.3362C231.455 52.7945 232.07 53.2976 232.651 53.842C236.795 57.7304 240.085 64.192 241.092 70.5456C241.238 71.4415 241.337 72.3451 241.386 73.2522C241.386 73.6779 241.423 74.1036 241.423 74.5229C241.423 74.9423 241.423 75.4315 241.38 75.8636C241.305 77.8493 240.794 79.7914 239.889 81.5437C239.489 82.2619 238.977 82.9061 238.372 83.4497C237.427 83.7833 236.419 83.877 235.432 83.7229C234.15 83.5175 232.92 83.0556 231.81 82.3633C231.607 82.2362 231.398 82.1091 231.196 81.9694L231.042 81.8613C225.241 77.8967 220.618 68.684 220.317 60.4688Z" fill="black"/>
<path d="M221.977 43.4412C228.938 42.6279 234.604 48.594 238.386 53.9627C243.844 62.2923 247.3 72.8392 245.415 82.9224C244.801 85.7307 243.574 88.539 241.308 90.3243C243.61 88.5771 244.949 85.7688 245.606 82.9414C247.343 74.6818 245.157 66.0155 241.511 58.6326C237.588 51.3133 230.964 42.4437 221.977 43.4412Z" fill="#F5F5F5"/>
<path d="M238.526 74.6503C238.409 71.4735 236.795 69.1989 234.898 67.3436L235.807 67.5851L238.44 66.0157C238.325 65.4219 238.167 64.8379 237.967 64.2685C237.627 63.3105 237.167 62.4027 236.598 61.5682C235.671 60.2203 234.53 59.0451 233.222 58.0928L233.112 55.2972L229.852 53.3467L227.218 54.9224V55.6403V55.7928C227.004 55.8723 226.798 55.9745 226.604 56.0978C226.531 56.1423 226.469 56.1931 226.408 56.2376C226.101 56.4726 224.566 57.2923 223.952 57.6735C223.878 57.7179 223.817 57.7688 223.756 57.8133C223.062 58.3406 222.681 59.3572 222.743 60.9329C222.809 62.4799 223.264 63.9822 224.063 65.2914L224.265 65.6091V65.6472L224.486 65.9713C224.548 66.0686 224.616 66.1619 224.689 66.2508C224.689 66.2889 224.744 66.3334 224.775 66.3652C224.823 66.4369 224.876 66.5049 224.934 66.5685C225.388 67.1378 225.876 67.6768 226.395 68.1823C226.623 68.4047 226.856 68.6207 227.089 68.8177L225.861 68.5063L223.289 70.0757C224.048 73.0641 225.808 75.6762 228.256 77.4458L228.36 80.2668L231.65 82.1729L234.284 80.5972L234.253 79.7141C234.439 79.6655 234.617 79.5884 234.781 79.4853C235.18 79.2185 236.942 78.2146 237.397 77.9224C238.195 77.3696 238.588 76.3213 238.526 74.6503Z" fill="#F8B32E"/>
<path opacity="0.15" d="M224.1 57.5718C224.775 57.1651 226.125 56.4281 226.408 56.2121C226.482 56.1676 226.543 56.1168 226.61 56.0723C226.814 55.9421 227.032 55.8395 227.261 55.7673L227.329 57.7941C226.859 57.4607 226.312 57.2641 225.744 57.225C225.175 57.1859 224.608 57.3056 224.1 57.5718Z" fill="black"/>
<path opacity="0.45" d="M231.589 74.0276C231.626 74.879 231.153 75.2983 229.784 74.5232C229.141 74.1837 228.578 73.7003 228.137 73.108C227.697 72.5157 227.389 71.8293 227.236 71.0986L223.289 70.0757L225.917 68.5063L227.114 68.8113L227.187 68.8749C227.55 69.2116 227.912 69.5102 228.262 69.8343L228.679 70.1901C229.47 70.8185 230.203 71.5203 230.871 72.2867C231.15 72.6072 231.36 72.9865 231.485 73.3986C231.548 73.6022 231.583 73.8139 231.589 74.0276Z" fill="black"/>
<path opacity="0.2" d="M234.254 79.7013L234.285 80.5844L231.657 82.1474L231.553 79.3328C232.394 79.7444 233.338 79.8733 234.254 79.7013Z" fill="black"/>
<path opacity="0.15" d="M230.49 56.8473L227.23 54.8967L229.864 53.321L233.112 55.297L233.204 58.118C234.511 59.0703 235.653 60.2455 236.58 61.5934C237.148 62.4279 237.608 63.3357 237.949 64.2937C238.149 64.8631 238.307 65.4471 238.422 66.0409L235.788 67.6103C235.673 67.0192 235.517 66.4374 235.322 65.8694C234.978 64.9117 234.515 64.0041 233.947 63.1691C233.021 61.8196 231.879 60.6442 230.57 59.6937L230.49 56.8473Z" fill="black"/>
<path opacity="0.2" d="M233.223 58.0928C234.358 58.7642 235.363 59.6474 236.188 60.6977C237.02 61.7435 237.627 62.9608 237.968 64.2685C237.407 63.0777 236.717 61.9565 235.912 60.9265C235.513 60.4118 235.077 59.929 234.635 59.4588C234.193 58.9886 233.726 58.5439 233.223 58.0928Z" fill="black"/>
<path opacity="0.35" d="M237.439 77.8778C236.985 78.17 235.223 79.1485 234.824 79.4407C235.579 78.9325 235.972 77.8841 235.911 76.2131C235.769 72.4963 233.633 70.0756 231.362 68.0488C229.25 66.1427 227.377 64.999 227.31 63.201C227.273 62.0764 227.979 61.9811 229.053 62.5656C229.739 62.9706 230.33 63.5276 230.783 64.1965C231.236 64.8655 231.541 65.6299 231.675 66.4349L234.916 67.2927C236.819 69.1543 238.422 71.3971 238.538 74.5929C238.587 76.3211 238.194 77.3695 237.439 77.8778Z" fill="black"/>
<path d="M229.87 69.5229L227.236 71.0923L223.295 70.0757L225.929 68.5L229.87 69.5229Z" fill="#F8B32E"/>
<path opacity="0.15" d="M229.87 69.5229L227.236 71.0923L223.295 70.0757L225.929 68.5L229.87 69.5229Z" fill="black"/>
<path d="M231.657 82.1538L231.553 79.3328L234.26 79.6949L234.291 80.5781L231.657 82.1538Z" fill="#F8B32E"/>
<path opacity="0.45" d="M231.657 82.1538L231.553 79.3328L234.26 79.6949L234.291 80.5781L231.657 82.1538Z" fill="black"/>
<path d="M227.256 55.6152L227.329 57.7945C226.841 57.4464 226.267 57.248 225.674 57.2222C225.081 57.1963 224.493 57.344 223.978 57.6483C223.904 57.6928 223.842 57.7436 223.781 57.7881C223.087 58.3155 222.707 59.332 222.768 60.9077C222.834 62.4547 223.289 63.9571 224.088 65.2663L224.291 65.584V65.6221L224.512 65.9461C224.574 66.0434 224.641 66.1368 224.714 66.2257C224.714 66.2638 224.769 66.3083 224.8 66.34C224.848 66.4118 224.902 66.4798 224.96 66.5433C225.413 67.1126 225.901 67.6517 226.421 68.1572C226.666 68.3986 226.924 68.64 227.176 68.8688L228.256 69.8282L228.674 70.184C229.465 70.8124 230.198 71.5142 230.865 72.2806C231.142 72.6007 231.352 72.9773 231.479 73.3862C231.538 73.5929 231.573 73.8062 231.584 74.0215C231.614 74.8666 231.142 75.2922 229.773 74.5171C229.127 74.1788 228.563 73.695 228.122 73.1012C227.681 72.5074 227.375 71.8188 227.225 71.0862L223.284 70.0696C224.043 73.058 225.803 75.6701 228.25 77.4398L228.355 80.2607L231.645 82.1668L231.541 79.3458C232.91 79.9049 234.027 79.9812 234.776 79.4793C235.531 78.971 235.924 77.9163 235.863 76.2453C235.728 72.5348 233.585 70.1141 231.314 68.0873C229.196 66.1812 227.329 65.0439 227.262 63.2395C227.225 62.1149 227.931 62.0196 229.012 62.6041C229.696 63.0095 230.286 63.5667 230.738 64.2356C231.19 64.9046 231.494 65.6688 231.627 66.4735L235.777 67.579C235.661 66.9873 235.503 66.4053 235.304 65.8381C234.963 64.8781 234.503 63.9682 233.935 63.1315C233.009 61.7839 231.867 60.6105 230.559 59.6624L230.46 56.8414L227.201 54.8909L227.256 55.6152Z" fill="#F8B32E"/>
<path opacity="0.1" d="M227.256 55.6152L227.329 57.7945C226.841 57.4464 226.267 57.248 225.674 57.2222C225.081 57.1963 224.493 57.344 223.978 57.6483C223.904 57.6928 223.842 57.7436 223.781 57.7881C223.087 58.3155 222.707 59.332 222.768 60.9077C222.834 62.4547 223.289 63.9571 224.088 65.2663L224.291 65.584V65.6221L224.512 65.9461C224.574 66.0434 224.641 66.1368 224.714 66.2257C224.714 66.2638 224.769 66.3083 224.8 66.34C224.848 66.4118 224.902 66.4798 224.96 66.5433C225.413 67.1126 225.901 67.6517 226.421 68.1572C226.666 68.3986 226.924 68.64 227.176 68.8688L228.256 69.8282L228.674 70.184C229.465 70.8124 230.198 71.5142 230.865 72.2806C231.142 72.6007 231.352 72.9773 231.479 73.3862C231.538 73.5929 231.573 73.8062 231.584 74.0215C231.614 74.8666 231.142 75.2922 229.773 74.5171C229.127 74.1788 228.563 73.695 228.122 73.1012C227.681 72.5074 227.375 71.8188 227.225 71.0862L223.284 70.0696C224.043 73.058 225.803 75.6701 228.25 77.4398L228.355 80.2607L231.645 82.1668L231.541 79.3458C232.91 79.9049 234.027 79.9812 234.776 79.4793C235.531 78.971 235.924 77.9163 235.863 76.2453C235.728 72.5348 233.585 70.1141 231.314 68.0873C229.196 66.1812 227.329 65.0439 227.262 63.2395C227.225 62.1149 227.931 62.0196 229.012 62.6041C229.696 63.0095 230.286 63.5667 230.738 64.2356C231.19 64.9046 231.494 65.6688 231.627 66.4735L235.777 67.579C235.661 66.9873 235.503 66.4053 235.304 65.8381C234.963 64.8781 234.503 63.9682 233.935 63.1315C233.009 61.7839 231.867 60.6105 230.559 59.6624L230.46 56.8414L227.201 54.8909L227.256 55.6152Z" fill="white"/>
<path d="M235.894 76.2197C235.809 74.866 235.441 73.5477 234.813 72.3567C234.173 71.175 233.359 70.1033 232.401 69.1799C231.467 68.2269 230.43 67.3945 229.429 66.5177C228.92 66.0794 228.448 65.5969 228.017 65.0755C227.587 64.5505 227.332 63.895 227.293 63.2075C227.362 63.8847 227.642 64.5203 228.091 65.0183C228.53 65.5182 229.008 65.9794 229.521 66.397C230.54 67.2484 231.584 68.0871 232.53 69.0401C233.497 69.9764 234.312 71.0685 234.942 72.2741C235.247 72.8796 235.484 73.5191 235.648 74.1802C235.795 74.85 235.877 75.5331 235.894 76.2197Z" fill="white"/>
<path d="M230.49 56.8474L233.124 55.2717L233.222 58.0927L230.588 59.6684L230.49 56.8474Z" fill="#F8B32E"/>
<path opacity="0.35" d="M230.49 56.8474L233.124 55.2717L233.222 58.0927L230.588 59.6684L230.49 56.8474Z" fill="black"/>
<path d="M227.23 54.8972L230.189 57.0066L230.588 59.6688L230.49 56.8478L227.23 54.8972Z" fill="#FAFAFA"/>
<path d="M228.262 77.4458L228.636 80.0889L231.657 82.1538L228.366 80.2668L228.262 77.4458Z" fill="#FAFAFA"/>
<path opacity="0.15" d="M223.289 70.0757C223.419 70.5921 223.581 71.0993 223.774 71.5942L224.854 70.4823L223.289 70.0757Z" fill="white"/>
<path opacity="0.15" d="M235.88 76.0992C235.818 74.6067 235.396 73.1541 234.652 71.874L228.316 78.4309L228.384 80.2671L230.631 81.5378L231.613 80.5213L231.57 79.3204C231.867 79.4403 232.17 79.5422 232.479 79.6254L235.88 76.0992Z" fill="white"/>
<path opacity="0.15" d="M222.805 61.4732C222.886 62.3288 223.093 63.1665 223.419 63.9575L230.368 56.7716L228.446 55.6279L227.286 56.8224L227.323 57.7945C227.12 57.6572 226.904 57.5422 226.678 57.4514L222.805 61.4732Z" fill="white"/>
<path opacity="0.15" d="M224.309 65.6282L224.53 65.9522C224.592 66.0495 224.659 66.1429 224.732 66.2318C224.732 66.2699 224.787 66.3144 224.818 66.3461C224.866 66.4179 224.92 66.4859 224.978 66.5494C225.431 67.1187 225.919 67.6578 226.439 68.1633C226.555 68.2776 226.672 68.3793 226.789 68.4873L229.079 66.111C228.047 65.1771 227.335 64.313 227.292 63.2138C227.249 62.1146 227.961 61.9939 229.042 62.5785C229.758 62.9923 230.365 63.5813 230.81 64.2939L233.075 61.9494C232.336 61.0816 231.501 60.3055 230.589 59.6367L230.552 58.5693L224.094 65.2597L224.284 65.5583L224.309 65.6282Z" fill="white"/>
<path d="M239.031 52.2915L239.337 48.0918L239.651 52.2915L243.708 52.6092L239.651 52.9332L239.337 57.133L239.031 52.9332L234.973 52.6092L239.031 52.2915Z" fill="white"/>
<path d="M242.217 55.7351L242.364 53.7019L242.518 55.7351L244.482 55.8939L242.518 56.0464L242.364 58.0859L242.217 56.0464L240.246 55.8939L242.217 55.7351Z" fill="white"/>
<path opacity="0.1" d="M109.208 199.871C102.56 201.873 96.5742 197.565 93.0258 194.255C89.4775 190.945 82.7676 188.67 82.7676 188.67L97.5625 179.826C97.5625 179.826 103.45 186.917 108.41 189.229C113.37 191.542 119.872 196.663 109.208 199.871Z" fill="black"/>
<path opacity="0.1" d="M75.1616 218.862L49.2612 215.406V202C49.2612 202 42.3303 199.395 38.5057 194.801C35.4362 191.116 38.3583 184.477 47.6159 183.365L64.0009 193.169V198.925L75.1616 199.878V218.862Z" fill="black"/>
<path d="M96.8271 84.6123L77.1025 86.4803C77.1025 86.4803 75.8133 93.1769 75.4081 98.2471C75.003 103.317 77.962 108.184 77.962 108.184L79.466 116.755C70.2268 119.779 66.2303 124.703 61.8901 130.098C58.7346 134.043 58.1023 134.806 55.5915 137.563C53.7498 139.469 52.522 140.473 52.522 140.473C49.9129 141.826 46.1129 145.397 46.4198 147.786C46.7268 150.175 48.5071 153.06 48.0774 155.906C47.6476 158.752 46.7329 161.802 48.3966 165.805C49.6244 168.804 52.921 169.757 55.26 169.681C61.2885 169.484 58.9127 165.443 58.1944 162.958C57.249 159.705 56.8684 158.93 57.3718 153.472C57.7279 149.571 58.2374 147.703 60.4413 146.28C65.7699 142.881 77.8208 135.225 84.4202 131.222C90.9827 127.709 92.0325 127.518 94.0031 120.866C98.104 107.155 97.6497 89.7079 96.8271 84.6123Z" fill="#FFBDA7"/>
<path d="M77.6168 108.463C77.6168 108.463 74.9034 104.124 74.8727 100.083C74.842 96.042 76.5057 86.4798 76.5057 86.4798L98.029 84.5737C99.9382 92.6682 98.5631 101.531 97.8509 107.447C96.8073 115.395 94.7814 122.111 93.1116 124.925C91.4418 127.74 91.1533 128.102 83.719 132.168C76.2847 136.235 65.0135 143.643 65.0135 143.643C65.0135 143.643 62.871 144.012 60.4338 140.523C58.721 138.077 58.1562 134.386 58.1562 134.386C58.7088 133.63 59.9488 132.105 61.1275 130.574C63.0122 128.102 67.7699 123.045 70.5079 120.967C73.1225 119.095 75.9703 117.599 78.9736 116.52L77.6168 108.463Z" fill="#263238"/>
<path d="M45.9033 146.458C44.9395 148.008 45.1973 148.72 45.3447 149.806C45.492 150.893 47.1066 154.095 46.904 155.448C46.7014 156.802 45.6271 161.878 46.6277 164.718C47.6284 167.558 48.7518 169.642 52.1528 170.76C55.5538 171.879 58.8382 170.182 59.5564 168.429L45.9033 146.458Z" fill="#263238"/>
<path d="M52.6248 148.847C53.5579 147.106 54.8655 146.305 56.5046 146.509C58.1437 146.712 59.3531 146.769 60.188 146.401C61.0229 146.032 59.9916 147.43 58.9909 149.628C57.9903 151.826 57.5114 156.82 57.5912 159.063C57.671 161.306 59.4022 163.809 59.3715 165.137C59.2816 166.118 58.9839 167.066 58.4998 167.914C58.4998 167.914 50.9488 170.392 48.3766 166.351C47.3502 164.645 46.9171 162.628 47.1488 160.633C47.4005 157.678 47.9776 155.454 47.6399 153.409C47.3637 151.757 45.4237 148.637 45.8473 146.47C46.6761 144.355 47.4987 143.662 49.0457 142.283C50.5928 140.905 52.0354 140.377 52.4652 140.511C52.3669 140.701 52.0354 141.146 51.8083 141.54C51.6711 142.585 51.7507 143.649 52.0416 144.66C52.5327 146.121 52.3424 145.968 52.1337 147.347C51.9249 148.726 51.7653 150.499 52.6248 148.847Z" fill="#37474F"/>
<path d="M48.4141 166.351C49.3656 164.235 52.3921 162.284 55.8361 161.903C58.1505 161.655 58.5495 162.278 59.0836 163.174C59.8387 164.445 60.4219 166.986 59.6607 168.257C58.5618 169.966 55.3634 170.627 52.6377 169.699C50.9617 169.14 49.163 168.028 48.4141 166.351Z" fill="#F5F5F5"/>
<path d="M57.2912 158.346C56.7319 158.121 56.1349 158.015 55.5354 158.034C54.2258 157.952 52.9278 158.331 51.852 159.108C51.809 159.14 51.717 159.33 51.852 159.299C52.9389 158.897 54.0868 158.701 55.2407 158.72C55.8032 158.717 56.3634 158.796 56.9044 158.955C57.1502 159.051 57.3754 159.196 57.5674 159.381C57.6841 159.489 57.8007 159.705 57.9726 159.705C58.0217 159.705 58.0647 159.642 58.0831 159.591C58.1208 159.319 58.061 159.042 57.9151 158.813C57.7693 158.583 57.5473 158.417 57.2912 158.346Z" fill="#FAFAFA"/>
<path d="M57.4263 155.956C56.8726 155.747 56.284 155.654 55.6951 155.683C54.3908 155.629 53.1066 156.029 52.0486 156.82C52.0056 156.858 51.9196 157.043 52.0486 157.011C53.1177 156.592 54.2512 156.377 55.3943 156.376C55.9494 156.358 56.504 156.427 57.0396 156.579C57.285 156.666 57.5107 156.805 57.7026 156.985C57.8192 157.093 57.9358 157.309 58.1077 157.303C58.1569 157.303 58.1998 157.24 58.2121 157.189C58.2553 156.919 58.1983 156.642 58.0526 156.413C57.907 156.185 57.6833 156.021 57.4263 155.956Z" fill="#FAFAFA"/>
<path d="M57.5369 153.561C56.9842 153.358 56.3971 153.274 55.8118 153.314C54.5172 153.283 53.2503 153.704 52.2144 154.508C52.1653 154.546 52.0855 154.731 52.2144 154.692C53.2697 154.263 54.3897 154.029 55.5233 154C56.0729 153.981 56.6225 154.04 57.1562 154.178C57.4004 154.262 57.6259 154.396 57.8193 154.572C57.9298 154.673 58.0464 154.889 58.2183 154.877C58.2674 154.877 58.3104 154.813 58.3227 154.762C58.3604 154.497 58.3007 154.226 58.1553 154.004C58.0098 153.782 57.7892 153.624 57.5369 153.561Z" fill="#FAFAFA"/>
<path d="M57.6901 151.166C57.1415 150.973 56.5606 150.9 55.9835 150.95C54.6924 150.947 53.4381 151.395 52.4228 152.22C52.3799 152.258 52.3001 152.443 52.4228 152.405C53.4623 151.957 54.5701 151.703 55.6949 151.655C56.2371 151.622 56.781 151.672 57.3095 151.801C57.5515 151.88 57.7751 152.01 57.9664 152.182C58.0769 152.278 58.1996 152.494 58.3654 152.481C58.4084 152.481 58.4513 152.411 58.4636 152.36C58.5046 152.097 58.4476 151.827 58.304 151.605C58.1605 151.384 57.9411 151.227 57.6901 151.166Z" fill="#FAFAFA"/>
<path d="M91.1845 137.474C91.1845 137.474 82.5899 128.122 76.408 121.311C73.713 118.324 69.827 113.559 67.6722 108.839C65.2841 103.616 65.4008 97.6245 66.205 93.4819C66.8413 90.384 67.9965 87.4252 69.6183 84.7394L96.8078 84.6123C96.1351 87.7674 95.2111 90.8595 94.0453 93.8568C92.3509 97.9167 88.5816 100.465 88.5816 100.465C94.653 111.431 105.188 126.209 105.887 131.337C106.213 133.719 106.311 138.491 106.151 144.044C105.728 156.751 105.967 170.093 106.072 172.934C106.176 175.647 106.827 178.442 108.085 182.134C108.937 184.675 110.444 186.927 112.444 188.646C114.365 190.311 117.355 191.874 115.44 194.066C113.862 195.845 109.055 196.442 106.022 195.552C101.977 194.358 101.111 191.143 100.055 188.385C98.9994 185.628 97.8023 184.205 95.7581 182.915C93.7138 181.625 93.7015 179.014 95.0889 176.657C96.4763 174.3 96.6789 174.064 96.4272 171.358C95.8563 165.252 92.9955 155.722 92.0071 151.198C89.8953 141.407 91.1845 137.474 91.1845 137.474Z" fill="#FFBDA7"/>
<path d="M71.5642 116.221C69.526 113.387 67.3099 110.643 65.904 106.151C64.5344 101.994 64.2923 97.5289 65.2042 93.2401C66.0054 89.9367 67.5069 86.8592 69.5997 84.2307L96.8077 84.6119C98.3302 94.6315 90.1285 101.08 90.1285 101.08L93.7075 107.135C97.6365 113.337 103.99 124.881 105.372 128.267C106.753 131.654 106.741 131.902 106.526 140.441C106.311 148.98 105.985 167.329 105.985 167.329C105.985 167.329 104.893 168.899 100.565 168.956C96.2368 169.013 95.6536 167.533 95.6536 167.533C95.6536 167.533 94.1004 160.703 93.4374 158.002C92.1728 152.843 89.4593 144.024 90.8467 137.671C90.8406 137.626 73.6085 119.055 71.5642 116.221Z" fill="#37474F"/>
<path d="M90.4297 109.391C93.1929 112.898 95.6422 116.658 97.7474 120.624C98.8278 122.585 99.851 124.591 100.817 126.641C101.283 127.666 101.725 128.708 102.143 129.767C102.339 130.313 102.548 130.834 102.702 131.419C102.79 131.706 102.862 131.999 102.916 132.296C102.959 132.582 103.008 132.874 103.045 133.16C103.573 137.69 103.757 142.182 103.923 146.693C104.089 151.204 104.132 155.709 104.077 160.22C103.667 155.726 103.301 151.234 102.978 146.744L102.468 140.015C102.272 137.779 102.124 135.53 101.824 133.338C101.824 133.058 101.744 132.798 101.701 132.531C101.654 132.273 101.592 132.019 101.517 131.768C101.388 131.26 101.185 130.739 101.007 130.225C100.62 129.195 100.191 128.172 99.7364 127.156C98.8585 125.116 97.8947 123.109 96.9063 121.107C95.9179 119.106 94.8927 117.123 93.8368 115.167C92.7809 113.21 91.6207 111.278 90.4297 109.391Z" fill="#263238"/>
<path d="M94.0211 181.568C93.843 183.2 93.886 183.245 94.635 184.109C95.3839 184.973 97.8272 186.079 98.3184 187.286C98.8095 188.493 100.007 193.265 102.542 195.26C105.077 197.255 107.533 197.941 111.628 197.655C115.722 197.369 116.766 195.342 116.582 193.646L94.0211 181.568Z" fill="#263238"/>
<path d="M101.632 179.7C101.675 177.927 101.381 177.082 103.179 176.644C104.978 176.206 106.249 175.843 106.973 175.227C107.698 174.611 107.317 176.148 107.434 178.321C107.55 180.494 109.717 184.796 110.945 186.613C112.173 188.43 115.328 189.898 115.998 190.997C116.414 191.797 116.607 192.701 116.556 193.608C116.556 193.608 115.169 196.658 109.693 196.416C104.217 196.175 102.252 194.154 100.957 191.626C99.6617 189.097 99.2811 186.27 97.8445 185.19C96.408 184.109 94.7136 182.724 94.0015 181.568C93.7067 179.792 94.0147 177.964 94.8733 176.396C95.7511 174.7 95.9967 173.105 96.5185 173.08C96.5185 173.27 96.4817 173.683 96.451 174.09C96.6439 175.068 97.1687 175.942 97.9305 176.555C99.2074 177.584 99.7353 177.724 100.239 178.938C100.742 180.151 101.602 181.371 101.632 179.7Z" fill="#37474F"/>
<path d="M104.002 195.012C103.874 192.922 106.569 190.19 110.141 188.976C111.114 188.616 112.169 188.564 113.17 188.826C114.172 189.089 115.075 189.654 115.765 190.45C116.52 191.238 116.673 192.293 116.551 193.627C116.195 196.518 108.373 197.947 104.002 195.012Z" fill="#F5F5F5"/>
<path d="M110.233 186.181C109.556 186.19 108.884 186.313 108.244 186.543C106.949 186.873 105.801 187.651 104.99 188.748C104.96 188.792 104.99 188.983 105.058 188.919C106.025 188.171 107.109 187.6 108.263 187.229C108.859 187.024 109.478 186.892 110.104 186.835C110.413 186.827 110.72 186.863 111.019 186.943C111.191 186.994 111.43 187.134 111.633 187.07C111.654 187.057 111.671 187.037 111.68 187.013C111.689 186.988 111.69 186.962 111.682 186.937C111.504 186.321 110.743 186.181 110.233 186.181Z" fill="#FAFAFA"/>
<path d="M109.103 184.122C108.436 184.139 107.777 184.27 107.151 184.509C105.873 184.856 104.749 185.645 103.965 186.746C103.965 186.797 103.965 186.981 104.032 186.917C104.975 186.158 106.039 185.576 107.176 185.196C107.771 184.981 108.389 184.84 109.017 184.776C109.321 184.765 109.625 184.8 109.92 184.878C110.092 184.922 110.331 185.062 110.503 184.992C110.525 184.981 110.542 184.962 110.551 184.939C110.56 184.915 110.561 184.889 110.552 184.865C110.362 184.274 109.607 184.128 109.103 184.122Z" fill="#FAFAFA"/>
<path d="M107.987 182.095C107.329 182.121 106.679 182.261 106.066 182.508C104.808 182.87 103.71 183.671 102.959 184.777C102.928 184.828 102.959 185.012 103.027 184.948C103.945 184.185 104.983 183.589 106.096 183.188C106.672 182.969 107.272 182.824 107.883 182.756C108.182 182.738 108.482 182.768 108.773 182.845C108.945 182.89 109.184 183.023 109.356 182.953C109.377 182.939 109.392 182.918 109.4 182.894C109.407 182.87 109.407 182.844 109.399 182.82C109.221 182.242 108.49 182.095 107.987 182.095Z" fill="#FAFAFA"/>
<path d="M106.857 180.069C106.209 180.101 105.572 180.247 104.972 180.501C103.733 180.881 102.662 181.7 101.946 182.813C101.915 182.858 101.946 183.042 102.013 182.978C102.905 182.205 103.921 181.599 105.015 181.187C105.58 180.962 106.17 180.808 106.771 180.729C107.066 180.709 107.362 180.737 107.649 180.812C107.814 180.85 108.048 180.983 108.22 180.914C108.24 180.899 108.255 180.879 108.263 180.855C108.271 180.83 108.271 180.804 108.263 180.78C108.078 180.202 107.342 180.062 106.857 180.069Z" fill="#FAFAFA"/>
<path d="M95.7331 47.9458C98.6307 49.3055 101.872 50.9765 104.813 55.4367C107.023 58.766 117.195 74.6182 118.668 77.4265C118.668 77.4265 112.529 85.451 112.339 85.3303C110.16 83.7737 94.1309 64.732 94.1309 64.732L95.7331 47.9458Z" fill="#FFBDA7"/>
<path d="M112.438 72.242C116.023 66.5237 119.393 63.6519 121.646 59.179C122.15 58.1815 121.83 57.3873 121.646 56.2373C121.518 54.8564 121.464 53.4691 121.487 52.082C121.477 50.8074 121.395 49.5345 121.241 48.2699C121.229 48.1835 121.229 48.0958 121.241 48.0094C121.309 47.6027 121.855 47.5074 122.211 47.6472C122.563 47.8145 122.875 48.0583 123.127 48.3621C123.379 48.6658 123.565 49.0223 123.672 49.4072C123.895 50.2238 124.159 51.0276 124.464 51.8152C125.078 51.7072 125.796 48.2826 126.06 46.4655C126.194 45.5361 126.252 44.5966 126.232 43.6572C126.118 42.5971 126.166 41.5252 126.373 40.4804C126.442 40.2661 126.561 40.0733 126.721 39.9199C126.881 39.7666 127.076 39.6577 127.288 39.6036C127.368 39.5755 127.454 39.5755 127.534 39.6036C127.675 39.6417 127.742 39.8132 127.785 39.9594C128.062 40.8425 127.951 40.5947 128.227 41.5097C128.26 41.6357 128.312 41.7557 128.381 41.8655C128.512 42.0116 128.668 42.1321 128.841 42.2213C129.185 42.4392 129.482 42.7293 129.711 43.0728C129.941 43.4164 130.098 43.8059 130.173 44.2163C130.197 44.5137 130.259 44.8064 130.358 45.0867C130.499 45.3508 130.691 45.5821 130.922 45.7666C131.445 46.1497 131.836 46.6948 132.04 47.3232C132.126 47.7425 132.04 48.1873 132.132 48.5939C132.254 48.9895 132.413 49.3724 132.604 49.7375C133.006 50.8696 133.006 52.1127 132.604 53.2447C132.052 54.962 131.379 56.6353 130.591 58.2514C129.868 59.4984 129.216 60.7883 128.639 62.1143C128.295 62.9403 127.896 63.7091 127.546 64.5287C126.158 67.7881 125.231 69.6116 123.832 72.871C122.144 76.7911 121.333 78.3541 120.59 79.8218C119.706 81.5754 117.859 84.3837 114.55 85.4447C111.241 86.5058 107.969 79.377 112.438 72.242Z" fill="#FFBDA7"/>
<path d="M115.943 67.1846L118.024 64.2683C118.534 66.121 119.585 67.7653 121.033 68.9763C123.488 71.0158 125.097 70.8824 125.097 70.8824L123.402 74.4658C123.402 74.4658 116.913 72.528 115.943 67.1846Z" fill="#F5F5F5"/>
<path d="M96.2127 48.1807C100.215 49.839 101.989 50.7221 105.74 56.3323C109.491 61.9425 114.114 69.0903 114.114 69.0903L116.637 65.6912C116.637 65.6912 116.207 67.5972 119.332 70.7168C122.457 73.8365 124.372 73.2583 124.372 73.2583C124.372 73.2583 121.487 79.4276 120.118 81.6005C118.067 84.8472 115.821 86.2005 113.899 86.1878C111.978 86.1751 111.051 85.0124 107.57 81.3464C104.089 77.6804 95.5312 67.1906 95.5312 67.1906L96.2127 48.1807Z" fill="#37474F"/>
<path d="M114.131 69.0906C110.484 74.2497 110.103 77.4646 110.103 77.4646C110.103 77.4646 109.361 73.6524 113.455 68.0486L114.131 69.0906Z" fill="#263238"/>
<path d="M102.676 64.8268C103.171 67.2846 103.424 69.788 103.431 72.2986C103.614 77.6847 103.497 83.0773 103.081 88.4495C98.667 81.6003 87.0582 79.3257 79.6361 79.942C72.2141 80.5583 68.8192 94.8475 68.8192 94.8475C68.8192 94.8475 66.1426 88.6973 69.5866 80.4694C71.694 75.3944 73.2326 70.0864 74.1724 64.6489L102.676 64.8268Z" fill="#263238"/>
<path d="M88.7166 45.938L90.0058 46.1159C90.0058 46.1159 98.3303 51.2941 101.836 58.4927C105.341 65.6913 98.3426 70.6534 98.3426 70.6534C98.3426 70.6534 97.9619 78.9449 98.0786 80.6667C98.1952 82.3885 99.4599 85.0316 98.5083 87.0203C97.3481 89.4283 93.2656 92.478 82.9583 91.5822C75.2293 90.9087 68.9184 87.986 68.0712 86.4294C67.224 84.8728 68.5501 83.2081 69.3481 81.1051C70.2015 78.8496 70.4593 76.9689 69.9068 73.8366C69.3543 70.7043 68.4764 65.3736 67.8748 60.3606C67.3714 56.1164 66.782 48.8352 76.3711 46.9228C81.1841 45.9634 88.7166 45.938 88.7166 45.938Z" fill="#F0F0F0"/>
<path d="M96.7155 38.7774C96.1016 35.6006 97.0224 31.5343 97.3846 30.1175C99.3429 27.7095 100.159 25.1998 100.135 23.8084C99.9753 13.4711 87.3228 11.9399 80.1095 15.9681C78.9461 16.5638 77.9376 17.4396 77.1686 18.5218C76.3995 19.6041 75.8923 20.8613 75.6894 22.1882C74.4616 22.2263 72.3314 23.8211 70.944 25.7589C68.9645 28.5108 67.9121 31.8588 67.9482 35.2893C68.0341 38.0468 69.2251 40.1562 70.3055 40.6263C69.1882 36.1788 71.9385 34.2727 71.9385 34.2727C71.47 35.6038 71.2963 37.0267 71.4301 38.4364C71.564 39.8462 72.0021 41.2069 72.712 42.418C77.4697 50.233 94.1985 50.3727 100.233 41.4714C98.7966 41.2172 97.0101 40.3214 96.7155 38.7774Z" fill="#263238"/>
<path d="M96.2971 22.2583C96.2971 22.2583 97.9546 24.2152 97.5249 29.603C97.4512 30.5307 98.0221 32.2207 97.9362 34.6033C97.7397 40.0102 95.9963 42.6216 93.3504 43.5428C91.9395 43.8764 90.4786 43.9153 89.0531 43.6572L88.6111 48.416C90.8763 52.8635 91.9814 55.9959 91.9384 59.9796C87.9141 55.4607 83.4337 51.4009 78.5738 47.8696L79.1079 38.4028C79.1079 38.4028 77.5916 39.5718 75.8481 37.6785C73.9327 35.6008 74.1231 32.4177 75.7683 31.3249C78.1809 29.7492 79.728 31.6807 80.2252 32.8497C80.7225 34.0188 82.1037 34.2475 82.3125 31.579C82.3345 30.9804 82.264 30.382 82.1037 29.8064C84.3015 28.7326 85.5784 26.4008 84.5102 22.9445C88.5804 24.876 93.7555 24.6981 96.2971 22.2583Z" fill="#FFBDA7"/>
<path d="M88.4839 36.7507L91.7007 37.6593C91.6526 37.8816 91.5618 38.0916 91.4336 38.2767C91.3054 38.4619 91.1425 38.6184 90.9545 38.737C90.7666 38.8556 90.5576 38.9338 90.3398 38.967C90.1221 39.0001 89.9001 38.9876 89.6871 38.93C89.2525 38.7994 88.8839 38.4991 88.6594 38.0924C88.4349 37.6857 88.3719 37.2046 88.4839 36.7507Z" fill="#B16668"/>
<path d="M89.005 28.4084L86.4941 28.1415C86.5049 27.9722 86.5484 27.8068 86.6219 27.6551C86.6955 27.5034 86.7976 27.3685 86.9224 27.2584C87.0471 27.1482 87.1919 27.0651 87.3482 27.0138C87.5045 26.9625 87.6692 26.9441 87.8324 26.9598C88.17 26.9998 88.4798 27.1724 88.698 27.4419C88.9162 27.7115 89.0261 28.0574 89.005 28.4084Z" fill="#263238"/>
<path d="M93.7199 28.5605L96.1755 28.0395C96.1482 27.8726 96.0889 27.713 96.0012 27.5702C95.9135 27.4273 95.7991 27.304 95.6647 27.2075C95.5303 27.1111 95.3786 27.0434 95.2186 27.0084C95.0586 26.9734 94.8934 26.9719 94.7328 27.0039C94.4031 27.0789 94.1139 27.2825 93.9253 27.5723C93.7366 27.8622 93.6631 28.216 93.7199 28.5605Z" fill="#263238"/>
<path d="M91.3438 29.4885L91.5341 35.3847L94.843 34.3744L91.3438 29.4885Z" fill="#F0997A"/>
<path d="M89.0357 43.6445C87.5808 43.3904 83.9711 42.2531 82.2214 40.9824C81.3607 40.2243 80.7049 39.2479 80.3184 38.1487C80.3184 38.1487 80.4841 40.8172 81.8654 42.0307C84.0509 43.9368 88.8884 45.2583 88.8884 45.2583L89.0357 43.6445Z" fill="#F0997A"/>
<path d="M94.0567 30.683C94.0771 30.9475 94.1948 31.1939 94.3856 31.3712C94.5763 31.5486 94.8256 31.6433 95.0819 31.636C95.2072 31.6328 95.3305 31.6036 95.4446 31.55C95.5587 31.4964 95.6612 31.4196 95.746 31.3241C95.8308 31.2287 95.8962 31.1165 95.9382 30.9943C95.9802 30.8722 95.998 30.7425 95.9905 30.6131C95.9703 30.3524 95.855 30.1095 95.668 29.9337C95.481 29.7579 95.2363 29.6623 94.9837 29.6664C94.8569 29.6652 94.7313 29.6912 94.6146 29.7426C94.498 29.794 94.3929 29.8698 94.3058 29.9653C94.2188 30.0607 94.1518 30.1737 94.1089 30.2972C94.066 30.4207 94.0483 30.552 94.0567 30.683Z" fill="#263238"/>
<path d="M86.7647 30.8673C86.7451 31.1285 86.8224 31.3876 86.981 31.5918C87.1395 31.7961 87.3674 31.93 87.618 31.9664C87.7421 31.9823 87.868 31.9722 87.9882 31.9367C88.1085 31.9012 88.2206 31.8411 88.3179 31.7599C88.4153 31.6787 88.4959 31.5781 88.5549 31.4641C88.614 31.35 88.6503 31.2248 88.6617 31.096C88.6808 30.8309 88.6001 30.5684 88.4365 30.3636C88.2728 30.1587 88.0389 30.0273 87.7838 29.9968C87.6615 29.9837 87.5379 29.9959 87.4201 30.0327C87.3024 30.0695 87.193 30.1301 87.0981 30.2112C87.0033 30.2922 86.925 30.3919 86.8677 30.5045C86.8105 30.6172 86.7755 30.7405 86.7647 30.8673Z" fill="#263238"/>
<path d="M88.5137 37.7102C88.6423 37.6975 88.7718 37.6975 88.9004 37.7102C89.259 37.7536 89.6029 37.8823 89.9054 38.0862C90.2079 38.2902 90.4606 38.5638 90.6439 38.8856C90.3367 39.0034 90.0012 39.0167 89.6862 38.9238C89.4061 38.8436 89.1509 38.6896 88.9454 38.4769C88.7399 38.2643 88.5912 38.0001 88.5137 37.7102Z" fill="#F28F8F"/>
<path d="M78.6921 45.5759C78.6921 48.2508 80.3804 56.377 81.1109 62.7306C81.8414 69.0842 80.2146 85.2033 68.8022 94.8607C65.4012 92.4718 60.9812 88.2022 59.5938 83.8372C64.2471 81.7596 68.1883 77.9983 68.8575 75.4505C69.5266 72.9027 67.1079 65.2022 67.0158 61.2248C66.9237 57.2475 73.2898 47.2469 73.2898 47.2469L78.6921 45.5759Z" fill="#455A64"/>
<path d="M78.7951 43.6953C77.7364 44.796 76.5698 45.7798 75.3143 46.6307C75.3143 46.6307 74.3812 52.6856 73.9085 54.7696C73.4358 56.8536 78.7829 60.4243 78.7829 60.4243C78.4404 61.8394 77.9697 63.2179 77.377 64.5414C76.6526 65.8948 80.5263 72.7439 79.7467 76.6831C82.6136 69.5099 81.7112 64.1856 81.0666 59.2044C80.422 54.2232 78.6171 46.8912 78.7951 43.6953Z" fill="#37474F"/>
<path d="M103.432 72.299C103.169 66.7379 101.528 61.3402 98.6681 56.6247C93.8858 48.8987 88.8027 46.0269 88.8027 46.0269L88.9808 44.1653C88.9808 44.1653 93.3088 46.3319 95.924 47.8821C98.5392 49.4324 100.092 55.2332 100.092 55.2332C100.755 55.7415 102.609 57.1838 102.929 57.7747C103.899 59.4647 103.684 63.4738 103.432 72.299Z" fill="#263238"/>
<path d="M56.9664 97.0145C56.1499 95.407 55.5605 94.2316 55.5605 93.6598C55.6281 92.7322 57.2119 94.9305 57.8811 95.3181C58.4035 95.6988 59.0488 95.8538 59.6798 95.7501C60.085 95.712 60.6927 95.2228 60.6068 94.8034C60.6068 94.7145 60.5209 94.67 60.4595 94.6065C59.5789 93.5984 58.786 92.512 58.0898 91.3598C57.4838 90.3966 56.7572 89.5206 55.9289 88.7548C54.8479 87.7417 54.1188 86.3888 53.8539 84.9046C53.2339 79.7969 52.957 74.6508 53.0251 69.5035C58.1389 67.267 66.0889 64.1537 68.0472 63.2769C69.2337 62.7189 70.3276 61.9705 71.2886 61.0595C72.4612 59.7253 73.2408 57.7048 73.8609 55.1062C74.3458 53.0731 73.8609 49.3308 72.9339 47.7488C70.0247 48.3028 67.185 49.1937 64.4682 50.4046C61.2427 51.7219 58.0833 53.2062 55.0019 54.8521C51.5118 56.8009 48.1542 58.9937 44.9524 61.4153C43.7921 62.3112 42.3801 63.2579 42.7301 66.4982C43.0246 69.5778 43.4816 72.6385 44.0991 75.6664C44.5779 78.0745 44.934 79.1228 45.7627 83.043C45.9223 83.7927 46.1556 84.9872 46.4135 86.3913C46.6713 87.7954 46.8616 89.7587 47.0274 91.1819C47.1507 92.6499 47.3972 94.104 47.764 95.5278C48.1201 96.7985 49.4093 99.7465 50.3363 100.553C50.6616 100.839 51.0361 100.884 51.3431 101.189C51.65 101.494 51.8158 101.856 52.1473 102.116C52.6568 102.517 53.0497 102.364 53.768 102.237C54.0478 102.174 54.3396 102.203 54.6029 102.32C54.8362 102.48 55.0541 102.663 55.2536 102.866C55.625 103.143 56.0638 103.307 56.5205 103.34C56.9772 103.372 57.4335 103.272 57.8381 103.05C58.5748 103.559 58.9309 103.813 59.6798 104.321C59.7911 104.407 59.9285 104.447 60.0666 104.435C60.1096 104.426 60.1496 104.405 60.1828 104.375C60.2161 104.345 60.2415 104.307 60.2569 104.264C60.3683 104.084 60.4437 103.883 60.4785 103.672C60.5133 103.461 60.5068 103.246 60.4595 103.038C60.2835 102.264 59.9104 101.553 59.379 100.979C58.5084 99.7021 57.7031 98.3788 56.9664 97.0145Z" fill="#FFBDA7"/>
<path d="M44.4531 78.3859L45.1223 81.5627C45.1223 81.5627 46.4299 82.4966 49.5362 81.8994C52.6425 81.3022 53.5143 80.3809 53.5143 80.3809V76.9309L44.4531 78.3859Z" fill="#F5F5F5"/>
<path d="M44.2024 79.3135C45.7924 80.3745 52.5882 79.6184 53.6871 78.1698L53.7731 69.7005C53.7731 69.7005 67.5367 64.7701 69.7344 63.2897C71.9322 61.8093 73.1968 60.8245 74.486 55.4812C75.4375 51.5546 74.2957 48.0792 73.6511 47.158C70.7842 47.6408 69.4029 47.7933 63.3867 50.3348C57.3705 52.8762 48.6838 57.9591 45.467 60.4433C42.2502 62.9276 42.0537 63.7281 42.3545 66.3204C42.6553 68.9126 44.2024 79.3135 44.2024 79.3135Z" fill="#37474F"/>
</svg>
