<svg width="293" height="290" viewBox="0 0 293 290" fill="none" xmlns="http://www.w3.org/2000/svg">
<path d="M247.94 47.7177C251.533 49.9428 255.673 51.1215 259.897 51.1215C264.121 51.1215 268.261 49.9428 271.854 47.7177C276.062 45.1115 279.307 41.2016 281.096 36.581C282.886 31.9604 283.122 26.8812 281.77 22.1137C280.418 17.3462 277.551 13.1505 273.604 10.163C269.656 7.17552 264.844 5.5592 259.897 5.5592C254.95 5.5592 250.138 7.17552 246.191 10.163C242.243 13.1505 239.376 17.3462 238.024 22.1137C236.672 26.8812 236.909 31.9604 238.698 36.581C240.488 41.2016 243.732 45.1115 247.94 47.7177Z" fill="#EBEBEB"/>
<path d="M252.975 25.7338C252.975 27.1061 253.381 28.4475 254.142 29.5884C254.903 30.7294 255.984 31.6187 257.25 32.1438C258.515 32.669 259.908 32.8064 261.251 32.5387C262.594 32.2709 263.828 31.6101 264.797 30.6398C265.765 29.6695 266.425 28.4333 266.692 27.0874C266.959 25.7415 266.822 24.3465 266.298 23.0787C265.774 21.8109 264.886 20.7273 263.747 19.9649C262.609 19.2026 261.27 18.7957 259.9 18.7957C258.99 18.7947 258.089 18.9735 257.249 19.3218C256.408 19.6702 255.644 20.1812 255.001 20.8256C254.358 21.4701 253.848 22.2353 253.5 23.0776C253.152 23.9198 252.974 24.8224 252.975 25.7338Z" fill="white"/>
<path d="M247.939 44.8592V47.7178C251.532 49.9429 255.672 51.1216 259.896 51.1216C264.12 51.1216 268.26 49.9429 271.853 47.7178V44.8665C271.892 43.2685 271.612 41.6787 271.029 40.1908C270.446 38.7029 269.572 37.3469 268.457 36.2027C267.343 35.0585 266.012 34.1493 264.541 33.5284C263.071 32.9076 261.492 32.5878 259.896 32.5878C258.301 32.5878 256.721 32.9076 255.251 33.5284C253.781 34.1493 252.449 35.0585 251.335 36.2027C250.221 37.3469 249.346 38.7029 248.763 40.1908C248.18 41.6787 247.9 43.2685 247.939 44.8665V44.8592Z" fill="white"/>
<path d="M56.6176 48.6912C59.543 41.3225 55.9521 32.9731 48.597 30.0422C41.242 27.1113 32.908 30.7089 29.9825 38.0776C27.0571 45.4463 30.648 53.7957 38.0031 56.7266C45.3581 59.6575 53.6921 56.0599 56.6176 48.6912Z" fill="#EBEBEB"/>
<path d="M50.6092 45.1657C48.42 49.5524 43.3117 52.1405 43.3117 52.1405C43.3117 52.1405 38.1597 49.545 36.0142 45.1657C34.2117 41.5102 35.3501 37.5769 38.2035 36.7142C42.2828 35.4786 43.3117 42.5996 43.3117 42.5996C43.3117 42.5996 44.3553 35.4786 48.42 36.7142C51.2733 37.5769 52.4117 41.5541 50.6092 45.1657Z" fill="white"/>
<path d="M271.425 173.256C277.663 163.054 274.464 149.717 264.281 143.468C254.098 137.219 240.786 140.423 234.548 150.625C228.311 160.827 231.509 174.163 241.692 180.413C251.875 186.662 265.187 183.458 271.425 173.256Z" fill="#EBEBEB"/>
<path d="M262.768 167.699C257.733 173.072 249.165 174.578 249.165 174.578C249.165 174.578 242.853 168.583 241.627 161.324C240.613 155.263 243.977 150.065 248.457 150.057C254.894 150.057 253.31 160.79 253.31 160.79C253.31 160.79 257.915 150.964 263.279 154.532C267.015 157.017 266.957 163.21 262.768 167.699Z" fill="white"/>
<path fill-rule="evenodd" clip-rule="evenodd" d="M17.0557 126.143C16.1508 125.58 15.3699 124.761 14.1367 124.885C13.6769 124.929 13.7791 124.549 13.7718 124.293C13.7718 119.76 13.7548 115.232 13.7207 110.709C13.7207 110.373 13.7207 110.103 14.0929 109.927C17.5446 108.165 19.026 104.729 21.135 101.79C22.2147 100.329 22.9901 98.6656 23.4151 96.8984C23.8401 95.1312 23.906 93.2965 23.6088 91.5033C23.4556 90.4797 23.9299 90.0411 24.8494 89.8144C25.9513 89.5585 27.0386 89.8583 27.4327 90.6186C28.432 92.4657 29.1059 94.4715 29.4249 96.5479C29.6292 98.266 29.0163 99.9402 28.8119 101.666C28.6587 102.916 28.3741 104.144 28.1406 105.402C28.447 105.621 28.7973 105.511 29.1184 105.511L40.5828 105.475C42.1882 105.475 42.9837 105.935 43.2099 107.003C43.3259 107.649 43.2327 108.315 42.9439 108.904C42.655 109.494 42.1857 109.975 41.6044 110.278C41.3198 110.417 40.8017 110.278 40.7725 110.739C40.7433 111.199 41.2687 111.148 41.5023 111.331C42.8888 112.274 42.6407 114.255 41.0425 115.374C40.6631 115.652 39.9114 115.527 39.8968 116.105C39.8822 116.682 40.6266 116.551 40.9039 116.836C42.0277 117.94 41.4804 120.002 39.8092 120.842C39.5817 120.914 39.3598 121.002 39.1452 121.106C38.9554 121.23 38.7657 121.376 39.1452 121.639C40.8017 122.816 40.7725 124.461 39.1452 125.668L38.6489 126.033C38.0459 126.396 37.3416 126.552 36.6421 126.479L18.6684 126.545C18.3864 126.59 18.0982 126.578 17.821 126.509C17.5438 126.44 17.2835 126.315 17.0557 126.143Z" fill="#EBEBEB"/>
<path fill-rule="evenodd" clip-rule="evenodd" d="M0.00760427 118.21C0.00760427 115.337 0.00760427 112.456 0.00760427 109.576C0.00760427 108.991 0.0586867 108.706 0.737354 108.706C4.24745 108.742 7.74295 108.706 11.2457 108.706C11.9755 108.706 12.0412 108.932 12.0412 109.547C12.0412 115.337 12.0631 121.13 12.1069 126.925C12.1069 127.656 11.9098 127.868 11.1728 127.861C7.77214 127.861 4.37151 127.861 0.956278 127.897C0.109769 127.897 -0.0069895 127.619 0.000307997 126.874C0.00760549 123.971 0.00760427 121.091 0.00760427 118.21Z" fill="#EBEBEB"/>
<path fill-rule="evenodd" clip-rule="evenodd" d="M276.583 220.097C276.057 219.768 275.598 219.286 274.89 219.366C274.62 219.366 274.678 219.169 274.671 219.023C274.671 216.361 274.671 213.7 274.671 211.039C274.655 210.949 274.667 210.856 274.707 210.773C274.746 210.691 274.81 210.623 274.89 210.578C276.918 209.548 277.809 207.53 279.027 205.804C279.663 204.946 280.119 203.968 280.37 202.93C280.62 201.891 280.66 200.812 280.487 199.758C280.399 199.159 280.677 198.895 281.217 198.771C281.486 198.675 281.78 198.668 282.053 198.753C282.327 198.837 282.566 199.008 282.735 199.239C283.321 200.325 283.716 201.505 283.902 202.726C283.899 203.734 283.779 204.737 283.545 205.717C283.45 206.448 283.282 207.179 283.151 207.91C283.326 208.034 283.537 207.968 283.727 207.968H290.455C291.404 207.968 291.864 208.232 291.995 208.86C292.07 209.247 292.016 209.648 291.841 210.001C291.665 210.354 291.378 210.639 291.025 210.812C290.857 210.9 290.557 210.812 290.536 211.083C290.514 211.353 290.827 211.324 290.988 211.434C291.798 211.989 291.652 213.137 290.718 213.81C290.492 213.971 290.054 213.898 290.039 214.227C290.025 214.556 290.448 214.49 290.63 214.673C290.776 214.859 290.877 215.077 290.924 215.31C290.97 215.542 290.962 215.783 290.9 216.011C290.837 216.24 290.722 216.451 290.564 216.627C290.406 216.804 290.209 216.94 289.988 217.027C289.854 217.07 289.722 217.121 289.594 217.18C289.485 217.261 289.375 217.341 289.594 217.495C290.565 218.189 290.55 219.154 289.594 219.863L289.302 220.075C288.951 220.292 288.537 220.384 288.127 220.339C284.605 220.339 281.085 220.351 277.568 220.375C277.393 220.401 277.215 220.39 277.046 220.342C276.876 220.294 276.718 220.211 276.583 220.097Z" fill="#EBEBEB"/>
<path fill-rule="evenodd" clip-rule="evenodd" d="M266.527 215.44C266.527 213.751 266.527 212.055 266.527 210.366C266.527 210.023 266.527 209.854 266.979 209.862C269.037 209.862 271.095 209.862 273.153 209.862C273.554 209.862 273.62 209.993 273.62 210.352C273.62 213.763 273.62 217.175 273.62 220.587C273.62 221.026 273.503 221.143 273.073 221.143C271.073 221.143 269.081 221.143 267.081 221.143C266.585 221.143 266.52 220.975 266.52 220.543C266.556 218.825 266.534 217.129 266.527 215.44Z" fill="#EBEBEB"/>
<path d="M33.8528 206.593H31.2184C30.8246 206.601 30.4332 206.529 30.0679 206.382C29.7026 206.234 29.3708 206.014 29.0927 205.735C28.8145 205.456 28.5956 205.123 28.4493 204.756C28.3029 204.39 28.232 203.998 28.241 203.603C28.2448 202.813 28.5597 202.057 29.1173 201.498C29.6748 200.94 30.4299 200.624 31.2184 200.62H34.8671L36.582 190.641H33.2763C32.4866 190.641 31.7293 190.327 31.1709 189.767C30.6126 189.208 30.2989 188.449 30.2989 187.658C30.2989 186.867 30.6126 186.108 31.1709 185.549C31.7293 184.989 32.4866 184.675 33.2763 184.675H37.6548L38.7932 177.846C38.9048 177.143 39.2689 176.504 39.8171 176.051C40.3653 175.597 41.0599 175.36 41.7705 175.383C42.205 175.39 42.6329 175.489 43.0259 175.675C43.4188 175.86 43.7678 176.128 44.0495 176.459C44.3313 176.791 44.5393 177.178 44.6597 177.597C44.7801 178.015 44.8102 178.454 44.7479 178.885L43.7263 184.675H52.6949L53.8406 177.846C53.9532 177.133 54.3258 176.486 54.8864 176.031C55.447 175.576 56.1559 175.345 56.8764 175.383C57.3077 175.392 57.7321 175.494 58.121 175.681C58.5098 175.868 58.8541 176.137 59.1307 176.469C59.4073 176.8 59.6097 177.188 59.7243 177.605C59.839 178.021 59.8632 178.458 59.7953 178.885L58.8175 184.675H61.4665C62.253 184.681 63.0055 184.997 63.5603 185.556C64.1151 186.114 64.4274 186.87 64.4293 187.658C64.418 188.443 64.1027 189.193 63.5499 189.75C62.9971 190.306 62.2501 190.626 61.4665 190.641H57.8177L56.1028 200.62H59.3575C59.7499 200.616 60.1392 200.691 60.5026 200.839C60.866 200.988 61.1962 201.207 61.4741 201.485C61.7519 201.763 61.9718 202.093 62.1208 202.457C62.2698 202.82 62.3451 203.21 62.3422 203.603C62.3383 204.395 62.0227 205.153 61.4638 205.713C60.9048 206.273 60.1479 206.59 59.3575 206.593H55.0666L53.8625 213.641C53.7509 214.345 53.3868 214.983 52.8386 215.437C52.2904 215.891 51.5958 216.128 50.8851 216.105C50.4496 216.106 50.0188 216.014 49.6223 215.833C49.2258 215.653 48.8728 215.389 48.5874 215.059C48.302 214.729 48.091 214.342 47.9686 213.923C47.8463 213.504 47.8156 213.064 47.8785 212.632L48.9732 206.608H39.9754L38.7786 213.656C38.6487 214.356 38.274 214.988 37.7217 215.436C37.1694 215.885 36.4756 216.122 35.7647 216.105C35.3306 216.113 34.9003 216.023 34.5051 215.843C34.1099 215.663 33.7597 215.397 33.4801 215.065C33.2004 214.732 32.9984 214.341 32.8886 213.92C32.7789 213.5 32.7642 213.06 32.8457 212.632L33.8528 206.593ZM49.951 200.62L51.6732 190.641H42.7338L41.0116 200.62H49.951Z" fill="#EBEBEB"/>
<path d="M221.706 136.934H219.604C219.292 136.936 218.982 136.876 218.693 136.757C218.403 136.638 218.141 136.462 217.92 136.24C217.7 136.018 217.525 135.755 217.407 135.465C217.289 135.175 217.23 134.864 217.233 134.551C217.236 133.922 217.487 133.32 217.931 132.875C218.375 132.43 218.976 132.179 219.604 132.175H222.523L223.895 124.22H221.239C220.632 124.187 220.06 123.921 219.642 123.479C219.224 123.036 218.992 122.45 218.992 121.841C218.992 121.231 219.224 120.645 219.642 120.203C220.06 119.76 220.632 119.495 221.239 119.461H224.72L225.617 114.022C225.708 113.46 225.999 112.951 226.437 112.589C226.874 112.227 227.429 112.037 227.996 112.055C228.343 112.061 228.684 112.14 228.997 112.288C229.31 112.437 229.588 112.65 229.812 112.914C230.037 113.178 230.202 113.488 230.298 113.821C230.394 114.154 230.418 114.504 230.368 114.848L229.558 119.461H236.717L237.629 114.022C237.721 113.454 238.018 112.941 238.464 112.578C238.909 112.216 239.471 112.03 240.044 112.055C240.388 112.063 240.727 112.145 241.037 112.295C241.346 112.444 241.621 112.659 241.842 112.923C242.063 113.187 242.225 113.495 242.318 113.827C242.41 114.159 242.432 114.507 242.38 114.848L241.599 119.461H243.744C244.373 119.465 244.974 119.718 245.417 120.164C245.86 120.611 246.109 121.215 246.109 121.844C246.099 122.47 245.847 123.068 245.406 123.512C244.965 123.955 244.369 124.209 243.744 124.22H240.825L239.417 132.211H242.015C242.327 132.208 242.637 132.268 242.927 132.386C243.216 132.504 243.48 132.679 243.701 132.9C243.922 133.122 244.098 133.385 244.217 133.674C244.335 133.964 244.396 134.274 244.394 134.587C244.392 135.219 244.141 135.824 243.695 136.271C243.249 136.717 242.645 136.969 242.015 136.971H238.592L237.636 142.586C237.542 143.145 237.249 143.652 236.812 144.013C236.376 144.374 235.824 144.566 235.257 144.552C234.911 144.551 234.569 144.475 234.255 144.329C233.94 144.184 233.661 143.972 233.436 143.708C233.211 143.444 233.045 143.135 232.95 142.801C232.855 142.468 232.833 142.117 232.886 141.774L233.754 136.971H226.588L225.625 142.586C225.527 143.149 225.229 143.658 224.787 144.019C224.344 144.38 223.787 144.57 223.216 144.552C222.87 144.557 222.526 144.485 222.211 144.341C221.896 144.196 221.617 143.983 221.394 143.717C221.171 143.451 221.01 143.139 220.922 142.803C220.835 142.467 220.824 142.115 220.889 141.774L221.706 136.934ZM234.535 132.211L235.907 124.257H228.784L227.413 132.211H234.535Z" fill="#EBEBEB"/>
<path d="M209.651 0H82.2513C80.5426 0.016244 78.8538 0.369528 77.2814 1.03968C75.7089 1.70983 74.2837 2.68372 73.087 3.90574C71.8902 5.12775 70.9455 6.57397 70.3067 8.1618C69.6679 9.74962 69.3475 11.448 69.3639 13.1598V275.918C69.3328 279.375 70.6726 282.702 73.0891 285.17C75.5056 287.637 78.801 289.043 82.2513 289.078H209.651C213.103 289.045 216.401 287.64 218.82 285.173C221.24 282.705 222.582 279.376 222.553 275.918V13.1525C222.582 9.69456 221.239 6.36653 218.82 3.90014C216.401 1.43375 213.102 0.0308908 209.651 0ZM214.496 267.795C214.496 274.712 209.33 280.304 202.952 280.304H88.9723C82.5796 280.304 77.413 274.712 77.413 267.795V23.1101C77.413 9.0218 82.5796 8.33456 88.9723 8.33456H111.799C113.127 8.33456 114.214 9.84795 114.214 11.7196V12.5311C114.214 16.9177 116.608 16.9177 119.556 16.9177H172.353C175.324 16.9177 177.695 16.9177 177.695 12.5311V11.7196C177.695 9.84795 178.768 8.33456 180.118 8.33456H202.952C209.33 8.33456 214.496 10.2135 214.496 23.1101V267.795Z" fill="#263238"/>
<path d="M153.154 11.4497H138.756C138.638 11.4506 138.522 11.4282 138.414 11.3838C138.305 11.3393 138.207 11.2736 138.124 11.1906C138.041 11.1076 137.975 11.0089 137.931 10.9002C137.887 10.7915 137.864 10.6751 137.865 10.5577C137.865 10.3212 137.959 10.0943 138.126 9.92702C138.293 9.75974 138.519 9.66577 138.756 9.66577H153.154C153.39 9.66577 153.616 9.75974 153.783 9.92702C153.95 10.0943 154.044 10.3212 154.044 10.5577C154.045 10.6751 154.022 10.7915 153.978 10.9002C153.934 11.0089 153.868 11.1076 153.785 11.1906C153.702 11.2736 153.604 11.3393 153.495 11.3838C153.387 11.4282 153.271 11.4506 153.154 11.4497Z" fill="white"/>
<path d="M214.505 23.1097V267.795C214.505 274.711 209.331 280.304 202.953 280.304H88.9733C82.5807 280.304 77.4141 274.711 77.4141 267.795V23.1097C77.4141 9.02134 82.5807 8.33411 88.9733 8.33411H111.8C113.128 8.33411 114.215 9.84749 114.215 11.7191V12.5306C114.215 16.9172 116.609 16.9172 119.557 16.9172H172.354C175.325 16.9172 177.704 16.9172 177.704 12.5306V11.7191C177.704 9.84749 178.769 8.33411 180.119 8.33411H202.953C209.331 8.33411 214.505 10.213 214.505 23.1097Z" fill="white"/>
<path d="M214.497 23.1097V60.8199H77.4062V23.1097C77.4062 9.02134 82.5802 8.33411 88.9728 8.33411H111.807C113.135 8.33411 114.215 9.84749 114.215 11.7191V12.5306C114.215 16.9172 116.616 16.9172 119.557 16.9172H172.354C175.324 16.9172 177.703 16.9172 177.703 12.5306V11.7191C177.703 9.84749 178.776 8.33411 180.126 8.33411H202.952C209.33 8.33411 214.497 10.213 214.497 23.1097Z" fill="#5570F1"/>
<path d="M107.866 13.8328L107.64 14.0521C107.602 14.0971 107.561 14.1387 107.516 14.1764C106.953 13.6119 106.189 13.2938 105.392 13.2918C104.996 13.2895 104.602 13.3674 104.236 13.5206C103.87 13.6738 103.539 13.8994 103.261 14.1837C103.226 14.1388 103.187 14.0972 103.145 14.0594L102.926 13.8401C103.013 13.7524 103.108 13.6719 103.203 13.5915C103.4 13.4284 103.616 13.2886 103.845 13.1748C104.115 13.0397 104.402 12.9437 104.699 12.8897C104.845 12.8897 104.984 12.8531 105.13 12.8312H105.502H105.794C106.063 12.8615 106.328 12.9254 106.582 13.0213C106.764 13.0892 106.939 13.1724 107.107 13.2698C107.289 13.3715 107.46 13.4915 107.618 13.6281L107.852 13.8328H107.866Z" fill="white"/>
<path d="M103.961 14.8708L103.633 14.5052C103.865 14.2713 104.142 14.0858 104.446 13.9591C104.75 13.8325 105.077 13.7673 105.406 13.7673C105.736 13.7673 106.062 13.8325 106.366 13.9591C106.67 14.0858 106.947 14.2713 107.179 14.5052L106.829 14.8561C106.639 14.6636 106.411 14.5118 106.16 14.41C105.909 14.3082 105.64 14.2585 105.37 14.2639C104.839 14.2739 104.333 14.4917 103.961 14.8708Z" fill="white"/>
<path d="M106.473 15.2365L106.122 15.5801C105.928 15.3884 105.666 15.2808 105.393 15.2803C105.257 15.2795 105.122 15.3063 104.996 15.359C104.871 15.4118 104.757 15.4895 104.663 15.5874L104.312 15.2365C104.454 15.0941 104.623 14.9812 104.808 14.9041C104.993 14.827 105.192 14.7874 105.393 14.7874C105.593 14.7874 105.792 14.827 105.977 14.9041C106.163 14.9812 106.331 15.0941 106.473 15.2365Z" fill="white"/>
<path d="M105.706 15.8877C105.706 15.9711 105.673 16.0511 105.614 16.11C105.555 16.169 105.475 16.2021 105.392 16.2021C105.309 16.2021 105.229 16.169 105.17 16.11C105.111 16.0511 105.078 15.9711 105.078 15.8877C105.078 15.8044 105.111 15.7244 105.17 15.6654C105.229 15.6065 105.309 15.5734 105.392 15.5734C105.475 15.5734 105.555 15.6065 105.614 15.6654C105.673 15.7244 105.706 15.8044 105.706 15.8877Z" fill="white"/>
<path d="M87.2584 15.4037C87.7582 15.4037 88.1633 14.9978 88.1633 14.4971C88.1633 13.9965 87.7582 13.5906 87.2584 13.5906C86.7586 13.5906 86.3535 13.9965 86.3535 14.4971C86.3535 14.9978 86.7586 15.4037 87.2584 15.4037Z" fill="white"/>
<path d="M89.2129 14.5044C89.2129 14.3234 89.2666 14.1464 89.3671 13.996C89.4677 13.8455 89.6106 13.7284 89.7777 13.6594C89.9448 13.5905 90.1286 13.5728 90.3057 13.6087C90.4829 13.6445 90.6454 13.7323 90.7727 13.8608C90.8999 13.9894 90.9862 14.1529 91.0206 14.3307C91.055 14.5084 91.0359 14.6924 90.9657 14.8592C90.8955 15.0261 90.7775 15.1683 90.6265 15.2678C90.4756 15.3674 90.2985 15.4197 90.1178 15.4183C89.8771 15.4164 89.647 15.3192 89.4775 15.1481C89.308 14.9769 89.2129 14.7455 89.2129 14.5044Z" fill="white"/>
<path d="M92.9869 15.4037C93.4867 15.4037 93.8918 14.9978 93.8918 14.4971C93.8918 13.9965 93.4867 13.5906 92.9869 13.5906C92.4872 13.5906 92.082 13.9965 92.082 14.4971C92.082 14.9978 92.4872 15.4037 92.9869 15.4037Z" fill="white"/>
<path d="M94.9336 14.5045C94.9336 14.3237 94.9871 14.147 95.0873 13.9967C95.1876 13.8464 95.33 13.7293 95.4967 13.6601C95.6634 13.591 95.8468 13.5729 96.0237 13.6081C96.2007 13.6434 96.3632 13.7304 96.4908 13.8582C96.6184 13.9861 96.7052 14.1489 96.7404 14.3262C96.7756 14.5034 96.7576 14.6872 96.6885 14.8542C96.6195 15.0212 96.5026 15.1639 96.3526 15.2643C96.2026 15.3647 96.0262 15.4183 95.8458 15.4183C95.6039 15.4183 95.3718 15.322 95.2008 15.1507C95.0297 14.9793 94.9336 14.7468 94.9336 14.5045Z" fill="white"/>
<path d="M97.7949 14.5045C97.7949 14.3237 97.8484 14.147 97.9487 13.9967C98.0489 13.8464 98.1914 13.7293 98.358 13.6601C98.5247 13.591 98.7081 13.5729 98.8851 13.6081C99.062 13.6434 99.2245 13.7304 99.3521 13.8582C99.4797 13.9861 99.5666 14.1489 99.6018 14.3262C99.637 14.5034 99.6189 14.6872 99.5499 14.8542C99.4808 15.0212 99.3639 15.1639 99.2139 15.2643C99.0639 15.3647 98.8875 15.4183 98.7071 15.4183C98.4652 15.4183 98.2332 15.322 98.0621 15.1507C97.891 14.9793 97.7949 14.7468 97.7949 14.5045Z" fill="white"/>
<path d="M204.207 16.4787H196.822V13.0425H204.207V16.4787ZM197.187 16.1131H203.842V13.43H197.187V16.1131Z" fill="white"/>
<path d="M202.201 13.6356H197.436V15.902H202.201V13.6356Z" fill="white"/>
<path d="M204.879 13.8547H204.223V15.6898H204.879V13.8547Z" fill="white"/>
<path d="M164.851 162.049H115.717V169.096H164.851V162.049Z" fill="#5570F1"/>
<path d="M176.017 162.049H168.982V169.096H176.017V162.049Z" fill="#DBDBDB"/>
<path d="M171.083 165.572C171.083 165.659 171.057 165.744 171.009 165.816C170.961 165.888 170.892 165.944 170.812 165.978C170.732 166.011 170.644 166.019 170.559 166.003C170.475 165.986 170.397 165.944 170.335 165.883C170.274 165.821 170.232 165.743 170.215 165.658C170.199 165.573 170.207 165.485 170.24 165.404C170.274 165.324 170.33 165.256 170.402 165.208C170.474 165.159 170.558 165.134 170.645 165.134C170.702 165.134 170.759 165.145 170.812 165.167C170.866 165.189 170.914 165.221 170.955 165.262C170.995 165.303 171.027 165.351 171.049 165.404C171.071 165.458 171.083 165.515 171.083 165.572Z" fill="#263238"/>
<path d="M172.96 165.572C172.96 165.659 172.934 165.744 172.886 165.816C172.838 165.888 172.769 165.944 172.689 165.978C172.609 166.011 172.521 166.019 172.436 166.003C172.351 165.986 172.273 165.944 172.212 165.883C172.151 165.821 172.109 165.743 172.092 165.658C172.076 165.573 172.084 165.485 172.117 165.404C172.15 165.324 172.207 165.256 172.279 165.208C172.351 165.159 172.435 165.134 172.522 165.134C172.579 165.134 172.636 165.145 172.689 165.167C172.743 165.189 172.791 165.221 172.831 165.262C172.872 165.303 172.904 165.351 172.926 165.404C172.948 165.458 172.96 165.515 172.96 165.572Z" fill="#263238"/>
<path d="M174.784 165.572C174.784 165.659 174.758 165.744 174.71 165.816C174.662 165.888 174.594 165.944 174.514 165.978C174.434 166.011 174.346 166.019 174.261 166.003C174.176 165.986 174.098 165.944 174.036 165.883C173.975 165.821 173.934 165.743 173.917 165.658C173.9 165.573 173.908 165.485 173.942 165.404C173.975 165.324 174.031 165.256 174.103 165.208C174.175 165.159 174.259 165.134 174.346 165.134C174.404 165.134 174.46 165.145 174.514 165.167C174.567 165.189 174.615 165.221 174.656 165.262C174.696 165.303 174.729 165.351 174.751 165.404C174.773 165.458 174.784 165.515 174.784 165.572Z" fill="#263238"/>
<path d="M87.5356 35.7651L84.332 32.753L87.5356 29.7482L88.0392 30.2746L85.3902 32.753L88.0392 35.2387L87.5356 35.7651Z" fill="white"/>
<path d="M206.768 31.5101C207.115 31.5101 207.396 31.2286 207.396 30.8813C207.396 30.5341 207.115 30.2526 206.768 30.2526C206.422 30.2526 206.141 30.5341 206.141 30.8813C206.141 31.2286 206.422 31.5101 206.768 31.5101Z" fill="white"/>
<path d="M206.768 33.7553C207.115 33.7553 207.396 33.4738 207.396 33.1266C207.396 32.7793 207.115 32.4978 206.768 32.4978C206.422 32.4978 206.141 32.7793 206.141 33.1266C206.141 33.4738 206.422 33.7553 206.768 33.7553Z" fill="white"/>
<path d="M207.403 35.3774C207.412 35.4662 207.403 35.556 207.376 35.6409C207.348 35.7259 207.303 35.8041 207.244 35.8705C207.184 35.9369 207.112 35.99 207.03 36.0264C206.949 36.0628 206.861 36.0816 206.772 36.0816C206.682 36.0816 206.594 36.0628 206.513 36.0264C206.432 35.99 206.359 35.9369 206.299 35.8705C206.24 35.8041 206.195 35.7259 206.167 35.6409C206.14 35.556 206.131 35.4662 206.14 35.3774C206.157 35.2214 206.231 35.0771 206.347 34.9723C206.464 34.8674 206.615 34.8094 206.772 34.8094C206.928 34.8094 207.079 34.8674 207.196 34.9723C207.312 35.0771 207.386 35.2214 207.403 35.3774Z" fill="white"/>
<path d="M95.912 187.045C95.1255 187.534 94.2045 187.76 93.2813 187.692C92.3582 187.624 91.4803 187.264 90.7739 186.665C90.0674 186.066 89.5687 185.258 89.3493 184.357C89.13 183.456 89.2013 182.508 89.553 181.651C89.9047 180.793 90.5187 180.069 91.3069 179.582C92.0951 179.096 93.0168 178.872 93.9397 178.944C94.8627 179.015 95.7393 179.378 96.4437 179.979C97.1481 180.581 97.6441 181.391 97.8604 182.292C98.0755 183.189 98.003 184.131 97.6532 184.984C97.3034 185.837 96.6942 186.558 95.912 187.045Z" fill="#DBDBDB"/>
<path d="M94.9493 182.841C94.9493 183.104 94.8714 183.361 94.7254 183.58C94.5795 183.799 94.3721 183.969 94.1294 184.07C93.8867 184.171 93.6196 184.197 93.362 184.146C93.1044 184.095 92.8677 183.968 92.682 183.782C92.4962 183.596 92.3697 183.359 92.3185 183.1C92.2672 182.842 92.2935 182.575 92.3941 182.332C92.4946 182.089 92.6648 181.881 92.8832 181.735C93.1016 181.588 93.3584 181.51 93.6211 181.51C93.9734 181.51 94.3112 181.65 94.5603 181.9C94.8093 182.15 94.9493 182.488 94.9493 182.841Z" fill="white"/>
<path d="M95.9124 186.512V187.045C95.2222 187.471 94.4277 187.696 93.6173 187.696C92.8069 187.696 92.0124 187.471 91.3223 187.045V186.497C91.3553 185.91 91.6116 185.357 92.0383 184.953C92.4651 184.549 93.0301 184.324 93.6173 184.324C94.2046 184.324 94.7695 184.549 95.1963 184.953C95.6231 185.357 95.8793 185.91 95.9124 186.497V186.512Z" fill="white"/>
<path d="M200.689 180.465C200.766 180.467 200.839 180.498 200.893 180.553C200.948 180.607 200.979 180.681 200.981 180.758C200.981 180.835 200.95 180.91 200.895 180.964C200.841 181.019 200.766 181.05 200.689 181.05C200.651 181.05 200.613 181.042 200.578 181.028C200.543 181.013 200.512 180.991 200.485 180.964C200.459 180.937 200.438 180.904 200.424 180.869C200.41 180.834 200.403 180.796 200.404 180.758C200.404 180.681 200.434 180.608 200.487 180.553C200.54 180.499 200.613 180.467 200.689 180.465Z" fill="black"/>
<path d="M201.558 180.465C201.635 180.467 201.708 180.498 201.762 180.553C201.817 180.607 201.848 180.681 201.85 180.758C201.85 180.835 201.819 180.91 201.765 180.964C201.71 181.019 201.636 181.05 201.558 181.05C201.52 181.05 201.483 181.042 201.448 181.028C201.413 181.013 201.381 180.991 201.354 180.964C201.328 180.937 201.307 180.904 201.293 180.869C201.279 180.834 201.273 180.796 201.274 180.758C201.274 180.681 201.303 180.608 201.356 180.553C201.41 180.499 201.482 180.467 201.558 180.465Z" fill="black"/>
<path d="M202.448 180.465C202.525 180.467 202.598 180.498 202.653 180.553C202.707 180.607 202.738 180.681 202.74 180.758C202.747 180.799 202.745 180.842 202.733 180.883C202.722 180.924 202.702 180.961 202.674 180.994C202.647 181.026 202.613 181.052 202.574 181.069C202.536 181.087 202.494 181.096 202.452 181.096C202.41 181.096 202.368 181.087 202.33 181.069C202.291 181.052 202.257 181.026 202.23 180.994C202.203 180.961 202.182 180.924 202.171 180.883C202.16 180.842 202.157 180.799 202.164 180.758C202.166 180.682 202.196 180.61 202.249 180.555C202.302 180.501 202.373 180.469 202.448 180.465Z" fill="black"/>
<path d="M89.7754 192.558L103.947 192.426L115.667 192.346L139.106 192.287L150.272 192.346L161.984 192.426L173.704 192.558L161.984 192.689L150.272 192.763L139.106 192.828L115.667 192.763L103.947 192.689L89.7754 192.558Z" fill="#263238"/>
<path d="M89.7676 195.043C96.3791 194.934 105.822 194.883 112.47 194.839L132.312 194.773L152.161 194.839L157.722 195.043L152.161 195.255L132.312 195.314L112.47 195.255C105.859 195.212 96.3864 195.16 89.7676 195.043Z" fill="#263238"/>
<path d="M89.7676 197.917C96.9775 197.807 107.282 197.756 114.506 197.712L136.136 197.646L157.758 197.712L163.823 197.917L157.758 198.129L136.136 198.195L114.506 198.129C107.282 198.085 96.9848 198.012 89.7676 197.917Z" fill="#263238"/>
<path d="M127.911 179.997H101.633V182.841H127.911V179.997Z" fill="#455A64"/>
<path d="M122.599 184.26H101.633V185.978H122.599V184.26Z" fill="#DBDBDB"/>
<path d="M89.25 203.861L103.414 203.765L117.572 203.736L145.886 203.678L174.2 203.736L188.365 203.765L202.522 203.861L188.365 203.948L174.2 203.977L145.886 204.043L117.572 203.977L103.414 203.948L89.25 203.861Z" fill="#DBDBDB"/>
<path d="M95.9124 217.934C95.126 218.422 94.2053 218.649 93.2825 218.58C92.3597 218.512 91.4822 218.153 90.776 217.554C90.0698 216.955 89.5711 216.147 89.3516 215.246C89.132 214.346 89.2029 213.399 89.554 212.541C89.9052 211.683 90.5185 210.959 91.306 210.473C92.0934 209.986 93.0146 209.761 93.9372 209.832C94.8599 209.902 95.7366 210.263 96.4415 210.864C97.1464 211.465 97.6433 212.273 97.8608 213.174C98.0776 214.072 98.0059 215.016 97.6561 215.87C97.3062 216.725 96.696 217.447 95.9124 217.934Z" fill="#DBDBDB"/>
<path d="M94.9493 213.715C94.9493 213.979 94.8714 214.236 94.7254 214.455C94.5795 214.673 94.3721 214.844 94.1294 214.945C93.8867 215.045 93.6196 215.072 93.362 215.02C93.1044 214.969 92.8677 214.842 92.682 214.656C92.4962 214.47 92.3697 214.233 92.3185 213.975C92.2672 213.717 92.2935 213.449 92.3941 213.206C92.4946 212.963 92.6648 212.755 92.8832 212.609C93.1016 212.463 93.3584 212.385 93.6211 212.385C93.9728 212.387 94.3095 212.527 94.5581 212.777C94.8068 213.026 94.9473 213.363 94.9493 213.715Z" fill="white"/>
<path d="M95.9121 217.386V217.934C95.222 218.36 94.4275 218.585 93.6171 218.585C92.8067 218.585 92.0122 218.36 91.322 217.934V217.386C91.3044 217.073 91.3507 216.76 91.4581 216.465C91.5654 216.171 91.7316 215.902 91.9465 215.674C92.1613 215.446 92.4203 215.265 92.7076 215.141C92.9948 215.017 93.3043 214.953 93.6171 214.953C93.9298 214.953 94.2393 215.017 94.5266 215.141C94.8138 215.265 95.0728 215.446 95.2876 215.674C95.5025 215.902 95.6687 216.171 95.7761 216.465C95.8834 216.76 95.9297 217.073 95.9121 217.386Z" fill="white"/>
<path d="M200.689 211.347C200.766 211.347 200.841 211.378 200.895 211.433C200.95 211.488 200.981 211.562 200.981 211.64C200.981 211.678 200.973 211.715 200.959 211.751C200.944 211.786 200.922 211.817 200.895 211.844C200.868 211.871 200.836 211.891 200.8 211.905C200.765 211.919 200.727 211.926 200.689 211.925C200.651 211.926 200.614 211.919 200.579 211.905C200.544 211.891 200.512 211.87 200.486 211.844C200.459 211.817 200.438 211.785 200.424 211.75C200.41 211.715 200.403 211.677 200.404 211.64C200.403 211.602 200.41 211.564 200.424 211.528C200.438 211.493 200.459 211.461 200.485 211.433C200.512 211.406 200.543 211.384 200.578 211.37C200.613 211.355 200.651 211.347 200.689 211.347Z" fill="black"/>
<path d="M201.558 211.347C201.636 211.347 201.71 211.378 201.765 211.433C201.819 211.488 201.85 211.562 201.85 211.64C201.85 211.678 201.842 211.715 201.828 211.751C201.813 211.786 201.791 211.817 201.764 211.844C201.737 211.871 201.705 211.891 201.669 211.905C201.634 211.919 201.596 211.926 201.558 211.925C201.521 211.926 201.483 211.919 201.448 211.905C201.413 211.891 201.381 211.87 201.355 211.844C201.328 211.817 201.307 211.785 201.293 211.75C201.279 211.715 201.273 211.677 201.274 211.64C201.273 211.602 201.279 211.564 201.293 211.528C201.307 211.493 201.328 211.461 201.354 211.433C201.381 211.406 201.413 211.384 201.448 211.37C201.483 211.355 201.52 211.347 201.558 211.347Z" fill="black"/>
<path d="M202.449 211.347C202.526 211.347 202.6 211.378 202.655 211.433C202.71 211.488 202.741 211.562 202.741 211.64C202.73 211.708 202.695 211.771 202.642 211.816C202.589 211.861 202.522 211.886 202.452 211.886C202.383 211.886 202.316 211.861 202.263 211.816C202.21 211.771 202.175 211.708 202.164 211.64C202.164 211.563 202.194 211.49 202.247 211.435C202.3 211.381 202.373 211.349 202.449 211.347Z" fill="black"/>
<path d="M89.7754 223.425L103.947 223.293L115.667 223.22L139.106 223.154L150.272 223.22L161.984 223.293L173.704 223.425L161.984 223.564L150.272 223.637L139.106 223.703L115.667 223.637L103.947 223.557L89.7754 223.425Z" fill="#263238"/>
<path d="M89.7676 225.918C96.3791 225.808 105.822 225.75 112.47 225.706L132.312 225.647L152.161 225.706L157.722 225.918L152.161 226.13L132.312 226.188L112.47 226.123C105.859 226.079 96.3864 226.028 89.7676 225.918Z" fill="#263238"/>
<path d="M127.911 210.872H101.633V213.716H127.911V210.872Z" fill="#455A64"/>
<path d="M122.599 215.134H101.633V216.852H122.599V215.134Z" fill="#DBDBDB"/>
<path d="M89.25 233.266L103.414 233.178L117.572 233.149L145.886 233.083L174.2 233.149L188.365 233.178L202.522 233.266L188.365 233.361L174.2 233.39L145.886 233.449L117.572 233.39L103.414 233.354L89.25 233.266Z" fill="#DBDBDB"/>
<path d="M95.912 248.363C95.1255 248.852 94.2045 249.079 93.2813 249.011C92.3582 248.943 91.4803 248.583 90.7739 247.984C90.0674 247.385 89.5687 246.576 89.3493 245.675C89.13 244.775 89.2013 243.827 89.553 242.969C89.9047 242.111 90.5187 241.387 91.3069 240.901C92.0951 240.415 93.0168 240.191 93.9397 240.262C94.8627 240.334 95.7393 240.696 96.4437 241.298C97.1481 241.899 97.6441 242.709 97.8604 243.611C98.0755 244.508 98.003 245.45 97.6532 246.303C97.3034 247.156 96.6942 247.877 95.912 248.363Z" fill="#DBDBDB"/>
<path d="M94.9493 244.144C94.9493 244.408 94.8714 244.665 94.7254 244.884C94.5795 245.102 94.3721 245.273 94.1294 245.374C93.8867 245.474 93.6196 245.501 93.362 245.449C93.1044 245.398 92.8677 245.271 92.682 245.085C92.4962 244.899 92.3697 244.662 92.3185 244.404C92.2672 244.146 92.2935 243.878 92.3941 243.635C92.4946 243.392 92.6648 243.184 92.8832 243.038C93.1016 242.892 93.3584 242.814 93.6211 242.814C93.9734 242.814 94.3112 242.954 94.5603 243.203C94.8093 243.453 94.9493 243.791 94.9493 244.144Z" fill="white"/>
<path d="M95.9124 247.814V248.363C95.2246 248.795 94.4292 249.024 93.6173 249.024C92.8055 249.024 92.0101 248.795 91.3223 248.363V247.814C91.3553 247.227 91.6116 246.675 92.0383 246.27C92.4651 245.866 93.0301 245.641 93.6173 245.641C94.2046 245.641 94.7695 245.866 95.1963 246.27C95.6231 246.675 95.8793 247.227 95.9124 247.814Z" fill="white"/>
<path d="M200.689 241.782C200.731 241.776 200.774 241.778 200.814 241.79C200.855 241.801 200.893 241.821 200.925 241.849C200.957 241.876 200.983 241.91 201 241.949C201.018 241.987 201.027 242.029 201.027 242.071C201.027 242.114 201.018 242.155 201 242.194C200.983 242.232 200.957 242.266 200.925 242.294C200.893 242.321 200.855 242.341 200.814 242.353C200.774 242.364 200.731 242.367 200.689 242.36C200.621 242.349 200.558 242.314 200.513 242.261C200.468 242.208 200.443 242.141 200.443 242.071C200.443 242.002 200.468 241.934 200.513 241.881C200.558 241.829 200.621 241.793 200.689 241.782Z" fill="black"/>
<path d="M201.558 241.782C201.6 241.776 201.643 241.778 201.683 241.79C201.724 241.801 201.762 241.821 201.794 241.849C201.826 241.876 201.852 241.91 201.869 241.949C201.887 241.987 201.896 242.029 201.896 242.071C201.896 242.114 201.887 242.155 201.869 242.194C201.852 242.232 201.826 242.266 201.794 242.294C201.762 242.321 201.724 242.341 201.683 242.353C201.643 242.364 201.6 242.367 201.558 242.36C201.49 242.349 201.427 242.314 201.382 242.261C201.337 242.208 201.312 242.141 201.312 242.071C201.312 242.002 201.337 241.934 201.382 241.881C201.427 241.829 201.49 241.793 201.558 241.782Z" fill="black"/>
<path d="M202.449 241.782C202.491 241.776 202.533 241.778 202.574 241.79C202.615 241.801 202.652 241.821 202.684 241.849C202.717 241.876 202.742 241.91 202.76 241.949C202.778 241.987 202.787 242.029 202.787 242.071C202.787 242.114 202.778 242.155 202.76 242.194C202.742 242.232 202.717 242.266 202.684 242.294C202.652 242.321 202.615 242.341 202.574 242.353C202.533 242.364 202.491 242.367 202.449 242.36C202.38 242.349 202.318 242.314 202.273 242.261C202.228 242.208 202.203 242.141 202.203 242.071C202.203 242.002 202.228 241.934 202.273 241.881C202.318 241.829 202.38 241.793 202.449 241.782Z" fill="black"/>
<path d="M115.572 253.86L125.387 253.729L133.51 253.655L149.739 253.59L157.474 253.648L165.589 253.729L173.704 253.86L165.589 253.992L157.474 254.072L149.739 254.131L133.51 254.072L125.387 253.992L115.572 253.86Z" fill="#263238"/>
<path d="M115.572 256.346C120.155 256.236 126.716 256.185 131.298 256.141L145.04 256.075L158.788 256.141L162.641 256.346L158.788 256.558L145.04 256.624L131.298 256.558C126.716 256.499 120.155 256.499 115.572 256.346Z" fill="#263238"/>
<path d="M127.911 241.301H101.633V244.145H127.911V241.301Z" fill="#455A64"/>
<path d="M122.599 245.57H101.633V247.288H122.599V245.57Z" fill="#DBDBDB"/>
<path d="M89.2489 271.108H112.01V253.59H89.2489V271.108Z" fill="#5570F1"/>
<path opacity="0.2" d="M91.7021 257.699C91.6182 258.127 91.674 258.57 91.861 258.964C92.048 259.357 92.3565 259.68 92.7408 259.885C93.125 260.09 93.5648 260.165 93.9952 260.1C94.4255 260.035 94.8235 259.833 95.1306 259.524C95.4376 259.215 95.6373 258.815 95.7002 258.384C95.7631 257.953 95.6858 257.512 95.4798 257.128C95.2739 256.744 94.9501 256.437 94.5563 256.251C94.1625 256.065 93.7196 256.012 93.2929 256.098C92.8994 256.177 92.5382 256.371 92.255 256.656C91.9718 256.941 91.7794 257.304 91.7021 257.699Z" fill="black"/>
<path opacity="0.2" d="M95.5625 267.408H112.011L103.787 258.174L95.5625 267.408Z" fill="black"/>
<path d="M89.25 267.415H102.831L96.044 261.398L89.25 267.415Z" fill="#5570F1"/>
<path opacity="0.3" d="M89.25 267.415H102.831L96.044 261.398L89.25 267.415Z" fill="black"/>
<path d="M112.019 267.408H89.2578V271.107H112.019V267.408Z" fill="#5570F1"/>
<path opacity="0.3" d="M112.019 267.408H89.2578V271.107H112.019V267.408Z" fill="black"/>
<path d="M169.243 134.5C162.241 138.832 154.175 141.126 145.946 141.126C137.717 141.126 129.65 138.832 122.648 134.5C114.45 129.422 108.129 121.805 104.642 112.802C101.156 103.8 100.695 93.9038 103.33 84.6153C105.964 75.3267 111.551 67.1523 119.241 61.3318C126.932 55.5113 136.307 52.3623 145.946 52.3623C155.584 52.3623 164.96 55.5113 172.65 61.3318C180.341 67.1523 185.927 75.3267 188.562 84.6153C191.196 93.9038 190.735 103.8 187.249 112.802C183.763 121.805 177.441 129.422 169.243 134.5Z" fill="#A6A6A6"/>
<path d="M144.154 86.4962C160.588 96.1833 182.101 102.471 187.443 99.0858C192.784 95.7008 201.308 68.3356 200.637 61.8361C200.359 59.0287 181.32 57.5299 179.423 59.8621C177.525 62.1944 175.497 78.7904 174.468 80.333C173.738 81.4443 156.917 78.7611 146.394 77.701C139.681 77.0138 135.484 81.3858 144.154 86.4962Z" fill="#DEAB72"/>
<path d="M200.425 65.5423C201.075 62.7349 203.344 48.2152 203.023 44.4501C202.702 40.6849 201.06 29.9157 198.163 29.828C195.266 29.7403 195.492 32.9571 195.492 32.9571C195.492 32.9571 194.077 28.5193 191.15 28.7314C188.224 28.9434 188.749 33.8491 188.749 33.8491C188.749 33.8491 186.961 29.404 184.057 29.8134C181.153 30.2228 182.517 35.1212 182.517 35.1212C182.517 35.1212 181.058 30.9758 178.825 32.3284C176.117 33.9514 179.642 41.2917 179.671 45.4882C179.671 46.4387 178.409 64.7381 178.409 64.7381L200.425 65.5423Z" fill="#DEAB72"/>
<path d="M182.445 34.7699C185.029 40.1728 185.226 42.9802 184.54 48.8363C184.54 48.9533 184.693 48.9972 184.715 48.8802C185.912 43.2069 186.174 39.6464 182.701 34.631C182.496 34.3825 182.285 34.5067 182.445 34.7699Z" fill="#263238"/>
<path d="M188.538 33.5134C190.727 39.3622 190.968 42.4109 190.727 48.596C190.727 48.6174 190.735 48.6378 190.75 48.6529C190.765 48.668 190.786 48.6765 190.807 48.6765C190.828 48.6765 190.849 48.668 190.864 48.6529C190.879 48.6378 190.887 48.6174 190.887 48.596C191.654 42.5498 191.836 38.9894 188.881 33.433C188.713 33.1771 188.435 33.2283 188.538 33.5134Z" fill="#263238"/>
<path d="M195.471 33.3006C197.186 39.1495 197.594 42.4467 196.558 48.4198C196.551 48.4489 196.556 48.4795 196.572 48.5049C196.588 48.5302 196.613 48.5483 196.642 48.5551C196.671 48.5619 196.702 48.5568 196.727 48.5411C196.752 48.5253 196.77 48.5001 196.777 48.471C198.419 42.4833 197.945 38.3233 195.653 33.2714C195.5 32.9205 195.361 32.9351 195.471 33.3006Z" fill="#263238"/>
<path d="M177.906 68.5253C177.906 68.5253 173.476 62.4718 172.119 59.3793C170.761 56.2867 169.929 42.9075 172.797 42.5639C176.512 42.1179 178.511 49.7433 179 53.6109C179 53.6109 187.589 52.5727 190.209 57.7416C192.829 62.9105 177.906 68.5253 177.906 68.5253Z" fill="#DEAB72"/>
<path d="M173.856 42.776C177.505 44.8157 177.855 49.9335 178.614 53.6475C178.624 53.7022 178.646 53.7538 178.68 53.7982C178.713 53.8425 178.756 53.8783 178.806 53.9026C178.856 53.9268 178.911 53.9389 178.966 53.9378C179.022 53.9366 179.076 53.9223 179.125 53.896C182.774 53.6986 187.926 54.4809 190.283 57.5515C190.297 57.5682 190.316 57.5793 190.337 57.5826C190.359 57.5859 190.38 57.5812 190.398 57.5695C190.416 57.5577 190.43 57.5397 190.435 57.5188C190.441 57.498 190.439 57.4758 190.429 57.4565C188.342 53.8595 183.321 52.6751 179.366 53.143C178.636 49.3193 178.096 44.2016 173.878 42.776C173.849 42.7321 173.834 42.7614 173.856 42.776Z" fill="#263238"/>
<path d="M169.601 101.104L174.089 79.1706C174.089 79.1706 156.998 76.3413 146.512 76.5094C136.025 76.6776 132.559 80.7279 145.724 88.6091C153.423 93.2551 161.397 97.4276 169.601 101.104Z" fill="#455A64"/>
<path d="M169.85 79.5063C168.965 82.5233 168.157 85.5647 167.427 88.6305C167.07 90.1365 166.698 91.6426 166.355 93.1633C166.012 94.684 165.778 96.3217 165.428 97.8862C165.428 97.9959 165.574 98.0471 165.603 97.9374C165.99 96.4386 166.479 94.9618 166.88 93.4631C167.281 91.9643 167.61 90.3559 168.011 88.8059C168.746 85.7353 169.405 82.6476 169.989 79.5429C169.99 79.5259 169.985 79.509 169.975 79.4952C169.965 79.4814 169.951 79.4715 169.934 79.4671C169.918 79.4628 169.901 79.4643 169.885 79.4715C169.87 79.4787 169.857 79.491 169.85 79.5063Z" fill="#263238"/>
<path d="M165.791 136.38C162.989 137.801 160.041 138.912 156.998 139.692L156.37 139.852C155.976 139.955 155.568 140.042 155.174 140.13C149.006 141.472 142.623 141.472 136.456 140.13C135.857 139.999 135.259 139.852 134.668 139.692C131.119 138.766 127.701 137.395 124.495 135.612C124.24 135.48 123.991 135.341 123.765 135.188C123.371 134.961 122.977 134.72 122.576 134.457C120.937 133.44 119.368 132.317 117.876 131.094C117.694 130.962 117.519 130.816 117.343 130.662C115.847 129.4 114.435 128.039 113.118 126.59L112.724 126.159C111.98 125.316 111.267 124.446 110.586 123.549C110.703 123.066 110.827 122.584 110.944 122.087C110.987 121.948 111.016 121.801 111.053 121.663C111.396 120.332 111.783 118.979 112.148 117.583C112.184 117.437 112.235 117.298 112.272 117.144C112.651 115.821 113.052 114.454 113.498 113.087C113.532 112.941 113.575 112.794 113.629 112.648C114.06 111.31 114.512 109.943 114.994 108.569C115.037 108.437 115.096 108.291 115.147 108.144C115.629 106.799 116.125 105.439 116.657 104.072C116.709 103.941 116.76 103.802 116.818 103.663C117.351 102.303 117.92 100.958 118.511 99.5979C118.569 99.4444 118.635 99.3055 118.701 99.1592C119.306 97.7921 119.941 96.4396 120.605 95.087C120.664 94.9554 120.729 94.8165 120.795 94.6922C121.476 93.3177 122.189 91.9603 122.933 90.62C122.963 90.5543 122.997 90.4908 123.035 90.4299L123.181 90.174C123.955 88.7995 124.765 87.4397 125.619 86.1164C125.706 85.9702 125.801 85.824 125.896 85.6777C126.794 84.2886 127.742 82.9288 128.728 81.6128C128.797 81.5039 128.873 81.3989 128.954 81.2984L129.049 81.1815C129.917 80.0263 130.829 78.8931 131.771 77.8111C131.997 77.5508 132.241 77.3065 132.5 77.08L132.61 76.9922C132.741 76.8899 132.865 76.7948 133.011 76.6998C133.035 76.6786 133.062 76.6613 133.091 76.6486C137.557 73.6657 146.066 74.8647 147.154 76.4512C147.202 76.5135 147.246 76.5795 147.285 76.6486L147.431 76.8606C148.331 78.2444 149.15 79.6798 149.883 81.1595C150.613 82.5486 151.269 84.0839 151.941 85.6558C152.547 87.0815 153.13 88.5802 153.707 90.1375C153.707 90.2179 153.765 90.291 153.787 90.3641C153.821 90.4342 153.848 90.5077 153.867 90.5834C154.407 92.0456 154.933 93.5078 155.451 95.0724C155.889 96.4103 156.334 97.7702 156.75 99.1446C156.794 99.2982 156.845 99.4298 156.889 99.5833C157.326 100.994 157.757 102.427 158.166 103.86C158.181 103.934 158.2 104.008 158.224 104.08C158.625 105.439 158.998 106.799 159.37 108.152C159.37 108.276 159.421 108.386 159.457 108.503C159.837 109.899 160.187 111.288 160.545 112.655L160.661 113.094C161.012 114.461 161.347 115.821 161.668 117.152C161.668 117.196 161.668 117.232 161.668 117.269C161.668 117.305 161.719 117.481 161.741 117.59C162.077 118.979 162.398 120.339 162.705 121.67C163.055 123.22 163.391 124.726 163.697 126.166C163.734 126.32 163.763 126.459 163.792 126.598C164.106 128.06 164.405 129.463 164.675 130.794C164.675 130.896 164.675 130.999 164.733 131.101C165.047 132.658 165.324 134.099 165.565 135.393C165.565 135.466 165.565 135.532 165.602 135.597L165.791 136.38Z" fill="#F8B32E"/>
<path opacity="0.1" d="M134.668 139.691C135.259 139.852 135.858 139.998 136.456 140.13H155.174C155.568 140.042 155.977 139.955 156.371 139.852L156.999 139.691H134.668ZM165.661 135.407C165.661 135.334 165.624 135.261 165.61 135.188H123.737C123.992 135.341 124.24 135.48 124.466 135.612H165.661C165.661 135.546 165.661 135.48 165.661 135.407ZM164.77 130.808C164.756 130.768 164.744 130.726 164.734 130.684H117.315C117.49 130.838 117.665 130.984 117.847 131.116H164.792C164.77 131.013 164.748 130.911 164.734 130.808H164.77ZM163.792 126.181H112.71L113.104 126.612H163.865C163.822 126.473 163.793 126.363 163.756 126.181H163.792ZM109.973 126.181C109.967 126.255 109.952 126.329 109.93 126.4C109.93 126.327 109.93 126.254 109.981 126.181H109.973ZM162.742 121.684H111.017C111.017 121.823 110.951 121.969 110.915 122.108H162.851L162.742 121.684ZM161.705 117.298C161.705 117.261 161.705 117.225 161.705 117.181H112.243C112.207 117.334 112.155 117.473 112.119 117.619H161.808C161.778 117.502 161.756 117.4 161.727 117.283L161.705 117.298ZM160.552 112.67H113.608C113.553 112.813 113.506 112.96 113.469 113.108H160.691L160.552 112.67ZM159.465 108.517C159.429 108.4 159.407 108.291 159.378 108.166H115.126C115.074 108.312 115.016 108.459 114.965 108.59H159.48C159.479 108.566 159.481 108.541 159.487 108.517H159.465ZM158.173 103.875L158.108 103.663H116.811C116.753 103.802 116.702 103.94 116.643 104.072H158.239C158.221 104.007 158.206 103.941 158.195 103.875H158.173ZM156.758 99.159H118.694C118.628 99.3053 118.563 99.4442 118.504 99.5977H156.904C156.904 99.4442 156.823 99.3126 156.78 99.159H156.758ZM155.298 94.6628H120.803C120.737 94.7871 120.672 94.926 120.613 95.0576H155.495C155.432 94.9294 155.376 94.7975 155.327 94.6628H155.298ZM153.788 90.3712C153.788 90.2981 153.737 90.225 153.707 90.1446H123.189L123.051 90.4004C123.012 90.4614 122.978 90.5249 122.948 90.5905H153.897C153.878 90.5148 153.851 90.4413 153.817 90.3712H153.788ZM151.941 85.6629H125.897C125.809 85.8091 125.714 85.9553 125.634 86.1016H152.138C152.087 85.948 152.022 85.8018 151.971 85.6629H151.941ZM149.876 81.152H129.064L128.969 81.269C128.888 81.3695 128.812 81.4744 128.743 81.5834H150.11C150.037 81.4371 149.971 81.2909 149.905 81.152H149.876ZM147.424 76.8531L147.278 76.6411H133.107C133.077 76.6538 133.05 76.671 133.026 76.6923C132.88 76.7873 132.756 76.8824 132.625 76.9847L132.515 77.0725H147.592C147.54 77.0032 147.494 76.9299 147.453 76.8531H147.424Z" fill="black"/>
<path d="M146.329 88.1775C142.885 88.799 137.324 83.2792 135.237 78.9364C135.098 78.644 135.704 75.6172 136.259 71.9032C136.594 69.6514 136.908 67.1291 137.032 64.8115L151.357 69.1177C150.374 71.9714 149.745 74.9349 149.482 77.9421C149.472 78.2622 149.489 78.5826 149.533 78.8999C149.537 78.9509 149.537 79.0023 149.533 79.0534C149.744 80.8811 149.657 87.5707 146.329 88.1775Z" fill="#DEAB72"/>
<path d="M149.554 79.0534C149.554 79.1557 149.554 79.2654 149.554 79.3897C140.848 77.5473 138.163 73.1315 136.623 69.0665C136.798 67.6409 136.944 66.1933 137.01 64.8115L151.335 69.1104C150.353 71.9664 149.725 74.9326 149.467 77.9421C149.45 78.2623 149.467 78.5833 149.518 78.8999C149.523 78.9524 149.536 79.0039 149.554 79.0534Z" fill="#263238"/>
<path d="M133.748 48.2085C132.15 53.3627 134.806 68.2918 138.462 71.6037C143.753 76.4436 152.451 76.9408 156.567 70.5656C160.559 64.3804 156.75 44.977 152.67 41.9502C146.686 37.4978 136.105 40.5904 133.748 48.2085Z" fill="#DEAB72"/>
<path d="M145.957 57.6388C145.957 57.6388 145.884 57.7046 145.891 57.7411C146.095 58.7428 146.168 59.9345 145.314 60.417C145.314 60.417 145.314 60.4828 145.314 60.4682C146.446 60.088 146.336 58.5161 145.957 57.6388Z" fill="#263238"/>
<path d="M144.906 56.7103C143.264 56.8638 143.702 60.1319 145.22 59.9856C146.738 59.8394 146.278 56.5787 144.906 56.7103Z" fill="#263238"/>
<path d="M152.234 56.6739C152.234 56.63 152.322 56.6739 152.329 56.747C152.431 57.7632 152.716 58.9403 153.679 59.1304C153.679 59.1304 153.679 59.1889 153.679 59.1816C152.526 59.1742 152.168 57.6389 152.234 56.6739Z" fill="#263238"/>
<path d="M153 55.4977C154.606 55.1541 155.189 58.4221 153.679 58.7145C152.168 59.007 151.65 55.7828 153 55.4977Z" fill="#263238"/>
<path d="M143.418 55.3872C143.83 55.2045 144.232 54.9995 144.622 54.7731C145.076 54.6153 145.466 54.3121 145.731 53.9103C145.784 53.768 145.791 53.6126 145.752 53.4659C145.713 53.3192 145.629 53.1883 145.512 53.0915C145.242 52.9415 144.937 52.8671 144.629 52.8761C144.321 52.8851 144.021 52.9772 143.761 53.1427C143.185 53.3942 142.722 53.8498 142.462 54.4221C142.403 54.5564 142.386 54.7053 142.413 54.8494C142.44 54.9934 142.509 55.1261 142.612 55.2302C142.715 55.3342 142.847 55.4048 142.991 55.4328C143.134 55.4608 143.283 55.4449 143.418 55.3872Z" fill="#263238"/>
<path d="M154.043 53.6769C153.592 53.6494 153.144 53.5957 152.7 53.5161C152.219 53.5292 151.748 53.377 151.365 53.0847C151.266 52.9687 151.205 52.8245 151.192 52.6724C151.179 52.5203 151.214 52.3679 151.292 52.2366C151.493 52.0051 151.754 51.8321 152.045 51.7357C152.336 51.6392 152.648 51.6229 152.948 51.6883C153.574 51.7181 154.166 51.9785 154.612 52.4194C154.722 52.5241 154.796 52.6603 154.825 52.8093C154.854 52.9583 154.836 53.1125 154.773 53.2507C154.711 53.3889 154.607 53.5042 154.476 53.5806C154.345 53.6569 154.194 53.6906 154.043 53.6769Z" fill="#263238"/>
<path d="M147.679 63.6924C147.988 64.0583 148.369 64.3563 148.799 64.5677C149.228 64.779 149.697 64.8992 150.175 64.9207C150.594 64.9464 151.014 64.9094 151.423 64.811C151.502 64.7993 151.58 64.7797 151.656 64.7525L151.868 64.6867C151.92 64.6695 151.965 64.6361 151.996 64.5914C152.028 64.5466 152.044 64.4929 152.043 64.4382C152.048 64.4042 152.048 64.3698 152.043 64.3358V64.2481C151.955 63.4658 151.722 62.296 151.722 62.296C152.028 62.3984 153.561 62.859 153.488 62.4569C152.838 59.1084 152.116 55.3944 150.766 52.2215C150.758 52.1984 150.742 52.1793 150.72 52.168C150.699 52.1566 150.674 52.1539 150.65 52.1605C150.627 52.1671 150.607 52.1823 150.595 52.2032C150.582 52.2241 150.578 52.2489 150.583 52.2726C151.08 55.5114 152.145 58.6405 152.692 61.8866C152.146 61.7154 151.579 61.6218 151.007 61.6088C150.897 61.6527 151.495 63.8752 151.503 64.2261C151.507 64.2379 151.507 64.2509 151.503 64.2627C150.218 64.6063 149.182 64.3431 147.796 63.634C147.672 63.5389 147.606 63.6193 147.679 63.6924Z" fill="#263238"/>
<path d="M150.811 64.5187C150.48 65.0818 150.01 65.5501 149.446 65.8786C149.133 66.0456 148.776 66.1096 148.424 66.0614C147.651 65.959 147.549 65.2791 147.614 64.6723C147.656 64.3532 147.732 64.0395 147.84 63.7365C148.721 64.3105 149.762 64.5848 150.811 64.5187Z" fill="#263238"/>
<path d="M149.446 65.879C149.133 66.046 148.776 66.11 148.424 66.0617C147.651 65.9594 147.549 65.2794 147.614 64.6726C148.01 64.6389 148.406 64.7395 148.738 64.9583C149.071 65.1771 149.32 65.5013 149.446 65.879Z" fill="#FF9CBD"/>
<path opacity="0.2" d="M133.777 58.4436C134.711 57.888 136.295 54.5542 136.995 53.187C137.696 51.8199 137.148 45.4666 136.93 43.5876C135.443 44.8095 134.339 46.4337 133.748 48.2667C133.062 50.4088 133.157 54.408 133.777 58.4436Z" fill="#263238"/>
<path d="M149.657 47.3017C149.2 48.0052 148.572 48.5801 147.831 48.9717C147.09 49.3632 146.262 49.5585 145.424 49.5388C144.572 49.5191 143.738 49.2818 143.003 48.8494C142.267 48.417 141.654 47.8038 141.221 47.0677C141.221 47.0238 141.126 47.0677 141.148 47.0677C141.535 47.8824 142.136 48.5761 142.887 49.0746C143.638 49.573 144.51 49.8573 145.41 49.8971C146.3 49.8936 147.174 49.6544 147.943 49.2038C148.712 48.7532 149.348 48.1071 149.788 47.3309C149.795 47.3017 149.7 47.2359 149.657 47.3017Z" fill="#263238"/>
<path d="M143.038 35.9261C140.221 36.3575 137.835 38.2584 137.054 40.3127C136.618 41.4883 136.595 42.7777 136.988 43.9683C136.988 44.0194 137.105 43.9683 137.091 43.9683C136.893 42.901 136.986 41.8002 137.36 40.7814C137.733 39.7625 138.374 38.8632 139.214 38.1779C140.126 37.3835 141.21 36.8127 142.381 36.5107C143.551 36.2087 144.775 36.1838 145.957 36.4379C147.108 36.6629 148.143 37.2898 148.876 38.2072C148.942 38.3022 149.146 38.2072 149.088 38.1121C148.081 36.4379 145.599 35.5387 143.038 35.9261Z" fill="#263238"/>
<path d="M160.231 39.918C159.586 38.5843 158.493 37.5205 157.144 36.9132C155.276 36.0651 153.342 36.4818 151.423 36.9132C151.415 36.9166 151.408 36.9222 151.404 36.9293C151.399 36.9365 151.396 36.9448 151.396 36.9534C151.396 36.9619 151.399 36.9703 151.404 36.9774C151.408 36.9846 151.415 36.9902 151.423 36.9936C153.05 36.6207 154.729 36.3283 156.349 36.9132C157.69 37.385 158.827 38.3072 159.567 39.5232C160.286 40.7789 160.529 42.2523 160.252 43.673C159.974 45.0938 159.195 46.3667 158.056 47.2583C157.389 47.7555 156.627 48.1106 155.817 48.3017C155.008 48.4928 154.168 48.5159 153.349 48.3695C153.284 48.3695 153.254 48.45 153.349 48.4646C154.827 48.7732 156.366 48.5313 157.679 47.7844C158.991 47.0374 159.987 45.8366 160.479 44.407C160.951 42.9311 160.862 41.3327 160.231 39.918Z" fill="#263238"/>
<path d="M133.259 51.2272C133.259 51.2272 129.946 46.5043 131.8 43.2947C132.865 41.4816 137.105 41.1672 137.105 41.1672C138.018 39.3492 139.614 37.9686 141.542 37.3289C144.972 36.0788 149.416 37.6141 149.416 37.6141C149.416 37.6141 152.525 35.2745 155.882 36.6783C160.567 38.6303 160.858 45.3711 156.728 48.0688C153.809 49.9624 149.285 47.7545 149.285 47.7545C148.891 47.8568 145.067 50.869 141.484 47.5717C141.484 47.5717 139.229 50.1525 136.747 48.8511C136.476 49.5554 135.997 50.1601 135.374 50.5846C134.75 51.0091 134.013 51.2333 133.259 51.2272Z" fill="#263238"/>
<path d="M136.88 60.3733C136.88 60.3733 133.436 55.6065 131.268 56.8421C129.101 58.0776 131.75 65.0304 134.326 65.9443C134.649 66.0851 134.997 66.1589 135.349 66.1611C135.701 66.1634 136.05 66.0941 136.375 65.9574C136.7 65.8207 136.993 65.6195 137.238 65.366C137.483 65.1124 137.674 64.8117 137.8 64.4821L136.88 60.3733Z" fill="#DEAB72"/>
<path d="M132.091 58.8165C132.082 58.8165 132.072 58.8204 132.065 58.8272C132.059 58.8341 132.055 58.8434 132.055 58.8531C132.055 58.8628 132.059 58.8721 132.065 58.8789C132.072 58.8858 132.082 58.8896 132.091 58.8896C133.901 59.6207 134.879 61.2438 135.565 62.9619C135.455 62.7814 135.308 62.6267 135.133 62.5086C134.959 62.3905 134.761 62.3117 134.553 62.2777C134.344 62.2436 134.132 62.2551 133.928 62.3114C133.725 62.3677 133.537 62.4674 133.376 62.6036C133.368 62.6126 133.364 62.6235 133.363 62.635C133.362 62.6465 133.364 62.658 133.369 62.6682C133.375 62.6784 133.383 62.6867 133.393 62.6921C133.404 62.6975 133.415 62.6998 133.427 62.6987C133.741 62.5922 134.081 62.5864 134.398 62.682C134.716 62.7777 134.996 62.97 135.2 63.2324C135.538 63.6738 135.829 64.1491 136.068 64.6507C136.156 64.8116 136.44 64.7165 136.382 64.5337C136.379 64.5193 136.379 64.5043 136.382 64.4899C136.375 62.1942 134.543 59.0066 132.091 58.8165Z" fill="#263238"/>
<path d="M125.86 80.6402C110.265 95.1672 90.1023 126.268 93.3278 132.892C96.9181 140.269 118.635 119.893 118.606 118.65C118.606 117.707 126.743 100.555 132.895 86.6937C139.047 72.832 129.713 77.0505 125.86 80.6402Z" fill="#DEAB72"/>
<path d="M93.3272 132.892C96.4798 137.856 105.594 139.172 128.231 144.633C131.362 145.364 142.644 124.681 139.338 123.702C135.178 122.466 118.759 118.584 117.526 118.445C107.098 117.327 91.1818 129.521 93.3272 132.892Z" fill="#DEAB72"/>
<path d="M131.821 122.883C131.821 122.883 141.009 122.773 145.855 124.221C152.342 126.151 157.151 130.494 159.056 132.431C163.033 136.489 169.856 149.042 166.587 151.637C163.668 153.991 157.312 140.802 157.312 140.802C157.312 140.802 165.966 153.187 161.887 155.359C157.808 157.53 151.335 141.811 151.335 141.811C151.335 141.811 159.953 154.73 155.392 156.309C151.941 157.501 145.278 143.588 145.278 143.588C145.278 143.588 152.612 154.744 149.117 156.119C145.256 157.647 138.302 145.189 138.302 145.189C128.815 147.199 123.51 144.275 119.963 141.745C119.109 141.131 131.821 122.883 131.821 122.883Z" fill="#DEAB72"/>
<path d="M154.59 136.335C155.655 137.746 156.779 139.179 157.691 140.721C158.603 142.264 159.516 143.77 160.318 145.357C161.394 147.415 162.236 149.588 162.829 151.834C161.493 147.923 158.209 142.476 157.268 140.963C156.327 139.449 155.465 137.907 154.531 136.401C154.502 136.327 154.561 136.298 154.59 136.335Z" fill="#263238"/>
<path d="M149.088 139.633C150.38 141.504 151.73 143.288 152.934 145.24C154.138 147.192 155.123 149.079 156.167 151.089C156.254 151.243 156.167 151.235 156.05 151.089C154.912 149.137 153.7 147.434 152.533 145.482C151.365 143.53 150.278 141.563 149.044 139.677C149.023 139.633 149.074 139.611 149.088 139.633Z" fill="#263238"/>
<path d="M143.862 141.621C145.908 144.441 147.659 147.464 149.087 150.642C149.16 150.796 149.022 150.774 148.934 150.642C147.256 147.564 145.957 145.196 143.768 141.716C143.768 141.643 143.819 141.562 143.862 141.621Z" fill="#263238"/>
<path d="M104.653 121.589C108.745 118.902 113.679 117.814 118.518 118.533C118.577 118.533 118.577 118.642 118.518 118.635C113.505 118.277 106.624 120.616 104.653 121.676C104.639 121.706 104.602 121.625 104.653 121.589Z" fill="#263238"/>
<path d="M103.479 101.045L122.861 112.143C122.861 112.143 130.888 96.7529 133.975 86.7149C137.062 76.6769 134.318 72.0929 122.744 82.204C115.947 88.0868 109.513 94.3786 103.479 101.045Z" fill="#455A64"/>
<path d="M123.89 108.02C121.302 106.236 118.67 104.53 115.994 102.902C114.673 102.091 113.36 101.257 112.024 100.467C110.689 99.6779 109.215 98.9321 107.835 98.1206C107.74 98.0621 107.638 98.201 107.733 98.2668C109.032 99.1003 110.28 100.029 111.579 100.87C112.878 101.71 114.286 102.558 115.644 103.399C118.329 105.061 121.051 106.653 123.81 108.173C123.89 108.181 123.97 108.086 123.89 108.02Z" fill="#263238"/>
<path d="M122.043 111.676C122.335 111.807 122.619 111.931 122.904 112.07L122.78 112.107C123.327 110.689 123.948 109.314 124.546 107.925C125.144 106.536 125.816 105.191 126.487 103.838C127.159 102.486 127.837 101.14 128.574 99.8171C129.311 98.4938 130.034 97.1705 130.844 95.8838C130.326 97.3094 129.735 98.6985 129.122 100.08C128.509 101.462 127.874 102.829 127.217 104.196C126.56 105.564 125.874 106.894 125.166 108.232C124.458 109.57 123.707 110.893 122.977 112.187L122.926 112.268L122.853 112.224C122.554 112.048 122.298 111.858 122.043 111.676Z" fill="#263238"/>
<path d="M131.223 98.5809C130.41 99.9004 129.291 101.004 127.961 101.798C128.365 101.133 128.856 100.526 129.42 99.992C129.958 99.4458 130.564 98.9715 131.223 98.5809Z" fill="#263238"/>
<path d="M242.677 129.396C241.656 137.76 234.76 144.94 234.76 144.94C234.76 144.94 224.893 143.667 218.873 137.789C213.852 132.884 213.458 125.814 217.596 122.773C223.529 118.386 229.272 129.404 229.272 129.404C229.272 129.404 226.959 117.224 234.293 116.858C239.415 116.661 243.531 122.422 242.677 129.396Z" fill="#5570F1"/>
<path d="M247.45 95.0646C243.728 100.021 236.7 102.061 236.7 102.061C236.7 102.061 230.862 97.6161 229.191 91.6503C227.79 86.6788 230.133 82.0217 233.884 81.605C239.262 81.0201 238.919 90.1442 238.919 90.1442C238.919 90.1442 241.874 81.5026 246.691 84.003C250.04 85.743 250.551 90.9265 247.45 95.0646Z" fill="#5570F1"/>
<path d="M61.2112 88.3458C57.6062 93.3831 50.6225 95.5837 50.6225 95.5837C50.6225 95.5837 44.6969 91.2776 42.8799 85.3483C41.362 80.4061 43.6096 75.6978 47.3459 75.2006C52.7096 74.4695 52.5709 83.6229 52.5709 83.6229C52.5709 83.6229 55.3294 74.9155 60.1968 77.2989C63.5902 78.9877 64.225 84.1639 61.2112 88.3458Z" fill="#5570F1"/>
</svg>
