<svg width="206" height="186" viewBox="0 0 206 186" fill="none" xmlns="http://www.w3.org/2000/svg">
<g id="working-from-anywhere/rafiki">
<g id="Stone">
<path id="Vector" d="M43.1483 143.101C43.1063 142.812 39.0503 114.572 35.0903 110.811C31.2443 107.172 27.8903 112.172 27.7703 112.422L27.3203 111.898C27.3563 111.834 31.1543 106.141 35.4323 110.199C39.5963 114.137 43.5683 141.813 43.7363 142.989L43.1483 143.101Z" fill="#5570F1"/>
<path id="Vector_2" d="M41.642 145.429C41.642 145.236 40.142 125.821 35.48 119.862C34.352 118.421 33.248 117.857 32.198 118.188C29.702 118.953 28.16 124.372 28.148 124.428L27.584 124.146C27.65 123.905 29.252 118.268 32.06 117.398C33.32 117.012 34.61 117.64 35.894 119.275C40.694 125.443 42.182 144.543 42.242 145.348L41.642 145.429Z" fill="#5570F1"/>
<path id="Vector_3" d="M38.8461 113.904C38.8461 113.904 41.5581 113.171 42.0801 116.319C42.6021 119.468 37.5681 129.453 37.5681 129.453C37.5681 129.453 32.9961 128.269 32.9961 120.201C32.9961 112.132 37.9461 112.108 38.8461 113.904Z" fill="#5570F1"/>
<path id="Vector_4" opacity="0.2" d="M38.8461 113.904C38.8461 113.904 41.5581 113.171 42.0801 116.319C42.6021 119.468 37.5681 129.453 37.5681 129.453C37.5681 129.453 32.9961 128.269 32.9961 120.201C32.9961 112.132 37.9461 112.108 38.8461 113.904Z" fill="white"/>
<path id="Vector_5" d="M31.8442 119.991C31.8442 119.991 32.9362 118.38 31.5022 117.986C30.0682 117.591 23.4502 119.242 24.4162 128.1C24.4162 128.1 32.3602 128.188 32.9242 124.613C33.4882 121.038 31.8442 119.991 31.8442 119.991Z" fill="#5570F1"/>
<path id="Vector_6" opacity="0.2" d="M31.8442 119.991C31.8442 119.991 32.9362 118.38 31.5022 117.986C30.0682 117.591 23.4502 119.242 24.4162 128.1C24.4162 128.1 32.3602 128.188 32.9242 124.613C33.4882 121.038 31.8442 119.991 31.8442 119.991Z" fill="white"/>
<path id="Vector_7" d="M42.0433 104.812C42.0433 104.812 41.7373 103.202 42.8053 103.621C43.8733 104.039 47.9353 108.339 44.8993 113.863C44.8993 113.863 39.4993 110.079 40.0993 107.421C40.6993 104.764 42.0433 104.812 42.0433 104.812Z" fill="#5570F1"/>
<path id="Vector_8" opacity="0.2" d="M42.0433 104.812C42.0433 104.812 41.7373 103.202 42.8053 103.621C43.8733 104.039 47.9353 108.339 44.8993 113.863C44.8993 113.863 39.4993 110.079 40.0993 107.421C40.6993 104.764 42.0433 104.812 42.0433 104.812Z" fill="white"/>
<path id="Vector_9" d="M141.854 148.891L141.254 148.674C141.326 148.343 148.25 115.272 160.772 106.366L161.054 107.075C148.778 115.828 141.92 148.561 141.854 148.891Z" fill="#5570F1"/>
<path id="Vector_10" d="M141.968 145.155L141.422 144.817C141.548 144.47 153.494 109.426 149.378 98.2979L149.912 97.9436C154.16 109.41 142.466 143.705 141.968 145.155Z" fill="#5570F1"/>
<path id="Vector_11" d="M141.5 147.692L140.9 147.458C141.308 145.638 150.902 102.872 157.04 97.6138L157.364 98.2902C151.436 103.387 141.596 147.249 141.5 147.692Z" fill="#5570F1"/>
<path id="Vector_12" d="M151.537 99.6746C151.537 99.6746 153.337 100.311 153.595 98.8694C153.853 97.428 148.345 90.4063 142.795 94.2634C142.795 94.2634 143.635 101.237 147.187 103.121C150.739 105.005 151.537 99.6746 151.537 99.6746Z" fill="#5570F1"/>
<path id="Vector_13" opacity="0.2" d="M151.537 99.6746C151.537 99.6746 153.337 100.311 153.595 98.8694C153.853 97.428 148.345 90.4063 142.795 94.2634C142.795 94.2634 143.635 101.237 147.187 103.121C150.739 105.005 151.537 99.6746 151.537 99.6746Z" fill="white"/>
<path id="Vector_14" d="M155.719 97.9115C155.719 97.9115 153.871 98.1209 153.805 96.607C153.739 95.0932 160.075 89.4967 165.019 94.5939C165.019 94.5939 163.279 101.261 159.535 102.316C155.791 103.371 155.719 97.9115 155.719 97.9115Z" fill="#5570F1"/>
<path id="Vector_15" opacity="0.2" d="M155.719 97.9115C155.719 97.9115 153.871 98.1209 153.805 96.607C153.739 95.0932 160.075 89.4967 165.019 94.5939C165.019 94.5939 163.279 101.261 159.535 102.316C155.791 103.371 155.719 97.9115 155.719 97.9115Z" fill="white"/>
<path id="Vector_16" d="M161.581 104.603C161.581 104.603 160.765 102.71 162.223 102.743C163.681 102.775 169.915 106.189 167.593 114.572C167.593 114.572 159.793 112.438 159.793 108.79C159.793 105.142 161.581 104.603 161.581 104.603Z" fill="#5570F1"/>
<path id="Vector_17" opacity="0.2" d="M161.581 104.603C161.581 104.603 160.765 102.71 162.223 102.743C163.681 102.775 169.915 106.189 167.593 114.572C167.593 114.572 159.793 112.438 159.793 108.79C159.793 105.142 161.581 104.603 161.581 104.603Z" fill="white"/>
<path id="Vector_18" d="M155.792 109.337C155.792 109.337 156.134 107.727 156.902 108.822C157.67 109.917 159.584 116.343 154.904 119.097C154.904 119.097 151.634 112.204 153.134 110.239C154.634 108.275 155.792 109.337 155.792 109.337Z" fill="#5570F1"/>
<path id="Vector_19" opacity="0.2" d="M155.792 109.337C155.792 109.337 156.134 107.727 156.902 108.822C157.67 109.917 159.584 116.343 154.904 119.097C154.904 119.097 151.634 112.204 153.134 110.239C154.634 108.275 155.792 109.337 155.792 109.337Z" fill="white"/>
<path id="Vector_20" d="M29.5042 109.886C29.5042 109.886 30.1042 108.404 28.9822 108.477C27.8602 108.549 23.1442 111.351 25.0702 117.705C25.0702 117.705 30.9982 115.828 30.9322 113.034C30.8662 110.24 29.5042 109.886 29.5042 109.886Z" fill="#5570F1"/>
<path id="Vector_21" opacity="0.2" d="M29.5042 109.886C29.5042 109.886 30.1042 108.404 28.9822 108.477C27.8602 108.549 23.1442 111.351 25.0702 117.705C25.0702 117.705 30.9982 115.828 30.9322 113.034C30.8662 110.24 29.5042 109.886 29.5042 109.886Z" fill="white"/>
<path id="Vector_22" d="M134.954 164.762C134.954 164.762 130.994 164.553 130.604 153.835C130.214 143.118 137.204 140.259 142.55 141.572C142.55 141.572 141.764 133.938 145.244 134.22C148.724 134.502 148.484 139.599 148.484 139.599C148.484 139.599 149.684 128.776 154.418 128.768C159.152 128.76 154.418 141.572 154.418 141.572C154.418 141.572 160.988 138.447 163.418 141.572C165.848 144.696 160.418 148.352 160.418 148.352C160.418 148.352 168.932 151.098 165.374 159.842C165.374 159.842 171.308 160.76 172.97 164.674C172.97 164.674 172.496 156.774 174.632 157.306C176.768 157.837 176.288 164.762 176.288 164.762C176.288 164.762 179.852 157.153 182.936 159.842C186.02 162.532 181.514 168.974 181.514 168.974C181.514 168.974 187.448 166.123 188.396 169.9C189.344 173.676 185.072 175.094 185.072 175.094C185.072 175.094 191.246 173.676 191.246 180.69C191.246 180.69 203.114 179.563 205.964 185.86H135.194L134.954 164.762Z" fill="#5570F1"/>
<path id="Vector_23" opacity="0.4" d="M134.954 164.762C134.954 164.762 130.994 164.553 130.604 153.835C130.214 143.118 137.204 140.259 142.55 141.572C142.55 141.572 141.764 133.938 145.244 134.22C148.724 134.502 148.484 139.599 148.484 139.599C148.484 139.599 149.684 128.776 154.418 128.768C159.152 128.76 154.418 141.572 154.418 141.572C154.418 141.572 160.988 138.447 163.418 141.572C165.848 144.696 160.418 148.352 160.418 148.352C160.418 148.352 168.932 151.098 165.374 159.842C165.374 159.842 171.308 160.76 172.97 164.674C172.97 164.674 172.496 156.774 174.632 157.306C176.768 157.837 176.288 164.762 176.288 164.762C176.288 164.762 179.852 157.153 182.936 159.842C186.02 162.532 181.514 168.974 181.514 168.974C181.514 168.974 187.448 166.123 188.396 169.9C189.344 173.676 185.072 175.094 185.072 175.094C185.072 175.094 191.246 173.676 191.246 180.69C191.246 180.69 203.114 179.563 205.964 185.86H135.194L134.954 164.762Z" fill="white"/>
<path id="Vector_24" d="M52.3818 164.762C52.3818 164.762 55.3038 164.553 55.5918 153.835C55.8798 143.118 50.7378 140.259 46.7778 141.572C46.7778 141.572 47.3778 133.938 44.7918 134.22C42.2058 134.502 42.3918 139.599 42.3918 139.599C42.3918 139.599 41.5158 128.776 38.0118 128.768C34.5078 128.76 38.0118 141.572 38.0118 141.572C38.0118 141.572 33.1698 138.447 31.4118 141.572C29.6538 144.696 33.6378 148.352 33.6378 148.352C33.6378 148.352 27.3558 151.098 29.9838 159.842C29.9838 159.842 25.6038 160.76 24.3798 164.674C24.3798 164.674 24.7278 156.774 23.1798 157.306C21.6318 157.837 21.9798 164.762 21.9798 164.762C21.9798 164.762 19.3578 157.153 17.0778 159.842C14.7978 162.532 18.1278 168.974 18.1278 168.974C18.1278 168.974 13.7538 166.123 13.0518 169.9C12.3498 173.676 15.5058 175.094 15.5058 175.094C15.5058 175.094 10.9518 173.676 10.9518 180.69C10.9518 180.69 2.1978 179.563 0.0917969 185.86H52.2918L52.3818 164.762Z" fill="#5570F1"/>
<path id="Vector_25" opacity="0.4" d="M52.3818 164.762C52.3818 164.762 55.3038 164.553 55.5918 153.835C55.8798 143.118 50.7378 140.259 46.7778 141.572C46.7778 141.572 47.3778 133.938 44.7918 134.22C42.2058 134.502 42.3918 139.599 42.3918 139.599C42.3918 139.599 41.5158 128.776 38.0118 128.768C34.5078 128.76 38.0118 141.572 38.0118 141.572C38.0118 141.572 33.1698 138.447 31.4118 141.572C29.6538 144.696 33.6378 148.352 33.6378 148.352C33.6378 148.352 27.3558 151.098 29.9838 159.842C29.9838 159.842 25.6038 160.76 24.3798 164.674C24.3798 164.674 24.7278 156.774 23.1798 157.306C21.6318 157.837 21.9798 164.762 21.9798 164.762C21.9798 164.762 19.3578 157.153 17.0778 159.842C14.7978 162.532 18.1278 168.974 18.1278 168.974C18.1278 168.974 13.7538 166.123 13.0518 169.9C12.3498 173.676 15.5058 175.094 15.5058 175.094C15.5058 175.094 10.9518 173.676 10.9518 180.69C10.9518 180.69 2.1978 179.563 0.0917969 185.86H52.2918L52.3818 164.762Z" fill="white"/>
<path id="Vector_26" d="M26.329 184.072C26.329 184.072 38.425 173.548 36.145 171.776C33.865 170.005 25.765 180.505 25.765 180.505C25.765 180.505 34.681 162.999 32.479 159.488C30.277 155.977 24.343 173.757 24.343 173.757C24.343 173.757 28.375 153.433 25.543 151.21C22.711 148.988 21.649 171.583 21.649 171.583C21.649 171.583 20.545 147.096 15.319 147.426C10.093 147.756 17.719 171.583 17.719 171.583C17.719 171.583 10.345 157.403 7.72899 161.429C5.11299 165.455 16.033 176.728 16.033 176.728C16.033 176.728 7.86699 171.583 7.34499 175.416C6.82299 179.249 16.345 183.299 16.345 183.299C16.345 183.299 13.273 184.483 12.565 185.86H28.891C28.891 185.86 29.149 184.813 26.329 184.072Z" fill="#5570F1"/>
<path id="Vector_27" opacity="0.6" d="M26.329 184.072C26.329 184.072 38.425 173.548 36.145 171.776C33.865 170.005 25.765 180.505 25.765 180.505C25.765 180.505 34.681 162.999 32.479 159.488C30.277 155.977 24.343 173.757 24.343 173.757C24.343 173.757 28.375 153.433 25.543 151.21C22.711 148.988 21.649 171.583 21.649 171.583C21.649 171.583 20.545 147.096 15.319 147.426C10.093 147.756 17.719 171.583 17.719 171.583C17.719 171.583 10.345 157.403 7.72899 161.429C5.11299 165.455 16.033 176.728 16.033 176.728C16.033 176.728 7.86699 171.583 7.34499 175.416C6.82299 179.249 16.345 183.299 16.345 183.299C16.345 183.299 13.273 184.483 12.565 185.86H28.891C28.891 185.86 29.149 184.813 26.329 184.072Z" fill="white"/>
<path id="Vector_28" d="M32.3828 185.859C32.3828 185.859 46.3028 117.116 48.8348 114.572C51.3668 112.027 65.8088 104.852 65.8088 104.852C65.8088 104.852 100.939 112.728 106.219 111.946C111.499 111.165 128.467 106.785 130.903 111.946C133.339 117.108 142.945 148.126 142.945 148.126L156.439 155.768L164.989 185.859H32.3828Z" fill="#5570F1"/>
<path id="Vector_29" opacity="0.6" d="M164.991 185.86H32.3906C32.3906 185.86 46.2446 117.415 48.8246 114.58C49.7254 113.789 50.6749 113.102 51.6626 112.527C56.6786 109.394 65.7986 104.869 65.7986 104.869C65.7986 104.869 100.929 112.744 106.209 111.963C111.489 111.182 128.457 106.794 130.893 111.963C131.409 113.066 132.255 115.337 133.263 118.236C136.995 128.905 142.947 148.118 142.947 148.118L156.441 155.768L164.991 185.86Z" fill="white"/>
<path id="Vector_30" opacity="0.1" d="M133.273 118.219L128.035 125.177L114.385 120.852L98.9414 125.16L99.9314 133.173L94.3094 142.159L96.3074 133.173L91.9454 123.308C91.9454 123.308 74.1734 124.758 69.5354 123.308C66.6254 122.398 57.8234 116.649 51.6914 112.51C56.7074 109.378 65.8274 104.852 65.8274 104.852C65.8274 104.852 100.957 112.728 106.237 111.946C111.517 111.165 128.485 106.777 130.921 111.946C131.419 113.05 132.265 115.32 133.273 118.219Z" fill="black"/>
<path id="Vector_31" opacity="0.1" d="M164.991 185.86H32.3906C32.3906 185.86 46.2446 117.415 48.8246 114.58L40.2806 167.919L44.5526 176.777L55.0526 166.083L63.1466 172.074L74.3186 169.047L75.4286 161.799L91.2566 147.829L81.3206 160.181L84.8186 174.273L100.029 177.791H116.829L123.747 171.583L121.431 158.941L117.933 151.613L135.663 151.557L128.115 157.83L130.899 168.966L139.437 174.281L149.361 166.059L153.405 181.745L164.991 185.86Z" fill="black"/>
<path id="Vector_32" d="M147.266 185.859H169.244C169.244 185.859 164.87 176.873 163.004 178.016C160.574 179.498 158.774 171.357 156.086 173.282C155.138 173.966 155.606 176.14 155.006 177.018C154.022 178.467 152.768 178.185 151.58 178.983C149.246 180.545 148.418 182.606 147.266 185.859Z" fill="#5570F1"/>
<path id="Vector_33" opacity="0.2" d="M147.266 185.859H169.244C169.244 185.859 164.87 176.873 163.004 178.016C160.574 179.498 158.774 171.357 156.086 173.282C155.138 173.966 155.606 176.14 155.006 177.018C154.022 178.467 152.768 178.185 151.58 178.983C149.246 180.545 148.418 182.606 147.266 185.859Z" fill="black"/>
<path id="Vector_34" d="M166.843 183.355C166.843 183.355 165.397 172.122 166.393 170.471C167.389 168.821 167.563 176.599 167.563 176.599C167.563 176.599 170.911 160.366 173.053 160.285C175.195 160.205 170.545 174.369 170.545 174.369C170.545 174.369 179.701 154.286 182.359 156.154C185.017 158.022 172.759 175.826 172.759 175.826C172.759 175.826 179.455 168.088 180.931 170.278C182.407 172.468 173.497 179.136 173.497 179.136C173.497 179.136 177.427 177.952 177.421 179.708C177.415 181.463 170.773 184.354 166.843 183.355Z" fill="#5570F1"/>
<path id="Vector_35" opacity="0.2" d="M166.843 183.355C166.843 183.355 165.397 172.122 166.393 170.471C167.389 168.821 167.563 176.599 167.563 176.599C167.563 176.599 170.911 160.366 173.053 160.285C175.195 160.205 170.545 174.369 170.545 174.369C170.545 174.369 179.701 154.286 182.359 156.154C185.017 158.022 172.759 175.826 172.759 175.826C172.759 175.826 179.455 168.088 180.931 170.278C182.407 172.468 173.497 179.136 173.497 179.136C173.497 179.136 177.427 177.952 177.421 179.708C177.415 181.463 170.773 184.354 166.843 183.355Z" fill="white"/>
<path id="Vector_36" d="M165.523 181.753C165.523 181.753 158.641 180.078 157.975 178.58C157.309 177.083 161.833 179.096 161.833 179.096C161.833 179.096 153.433 171.043 153.979 168.789C154.525 166.534 161.377 175.4 161.377 175.4C161.377 175.4 152.377 160.229 154.219 157.99C156.061 155.752 162.853 173.499 162.853 173.499C162.853 173.499 160.285 164.36 161.959 163.442C163.633 162.524 164.959 173.668 164.959 173.668C164.959 173.668 165.385 169.256 166.393 169.755C167.401 170.254 167.209 177.952 165.523 181.753Z" fill="#5570F1"/>
<path id="Vector_37" opacity="0.2" d="M165.523 181.753C165.523 181.753 158.641 180.078 157.975 178.58C157.309 177.083 161.833 179.096 161.833 179.096C161.833 179.096 153.433 171.043 153.979 168.789C154.525 166.534 161.377 175.4 161.377 175.4C161.377 175.4 152.377 160.229 154.219 157.99C156.061 155.752 162.853 173.499 162.853 173.499C162.853 173.499 160.285 164.36 161.959 163.442C163.633 162.524 164.959 173.668 164.959 173.668C164.959 173.668 165.385 169.256 166.393 169.755C167.401 170.254 167.209 177.952 165.523 181.753Z" fill="white"/>
<path id="Vector_38" d="M165.008 180.521C165.008 180.521 158.36 171.591 158.48 169.247C158.6 166.904 162.452 173.789 162.452 173.789C162.452 173.789 157.766 156.227 159.668 154.318C161.57 152.41 164.06 169.247 164.06 169.247C164.06 169.247 162.8 143.222 166.1 142.674C169.4 142.127 166.772 168.684 166.772 168.684C166.772 168.684 169.172 155.953 171.536 156.661C173.9 157.37 169.016 171.051 169.016 171.051C169.016 171.051 172.016 166.614 172.838 168.209C173.66 169.803 169.04 178.024 165.008 180.521Z" fill="#5570F1"/>
<path id="Vector_39" opacity="0.1" d="M165.008 180.521C165.008 180.521 158.36 171.591 158.48 169.247C158.6 166.904 162.452 173.789 162.452 173.789C162.452 173.789 157.766 156.227 159.668 154.318C161.57 152.41 164.06 169.247 164.06 169.247C164.06 169.247 162.8 143.222 166.1 142.674C169.4 142.127 166.772 168.684 166.772 168.684C166.772 168.684 169.172 155.953 171.536 156.661C173.9 157.37 169.016 171.051 169.016 171.051C169.016 171.051 172.016 166.614 172.838 168.209C173.66 169.803 169.04 178.024 165.008 180.521Z" fill="white"/>
<path id="Vector_40" d="M156.949 185.86H174.463C174.463 185.86 170.977 178.701 169.489 179.611C167.557 180.795 166.123 174.305 163.981 175.843C163.225 176.382 163.591 178.113 163.117 178.814C162.331 179.973 161.317 179.748 160.387 180.384C158.545 181.624 157.867 183.267 156.949 185.86Z" fill="#5570F1"/>
<path id="Vector_41" d="M47.5459 185.859H25.5859C25.5859 185.859 29.9659 176.873 31.8319 178.016C34.2319 179.498 36.0319 171.357 38.7439 173.282C39.6919 173.966 39.2299 176.14 39.8299 177.018C40.8139 178.467 42.0679 178.185 43.2559 178.983C45.5899 180.545 46.4179 182.606 47.5459 185.859Z" fill="#5570F1"/>
<path id="Vector_42" opacity="0.2" d="M47.5459 185.859H25.5859C25.5859 185.859 29.9659 176.873 31.8319 178.016C34.2319 179.498 36.0319 171.357 38.7439 173.282C39.6919 173.966 39.2299 176.14 39.8299 177.018C40.8139 178.467 42.0679 178.185 43.2559 178.983C45.5899 180.545 46.4179 182.606 47.5459 185.859Z" fill="black"/>
<path id="Vector_43" d="M27.9914 183.355C27.9914 183.355 29.4314 172.122 28.4354 170.471C27.4394 168.821 27.2354 176.599 27.2354 176.599C27.2354 176.599 23.9174 160.366 21.7754 160.309C19.6334 160.253 24.3194 174.393 24.3194 174.393C24.3194 174.393 15.1454 154.286 12.4994 156.154C9.85341 158.022 22.0994 175.826 22.0994 175.826C22.0994 175.826 15.3974 168.088 13.9214 170.278C12.4454 172.468 21.3614 179.136 21.3614 179.136C21.3614 179.136 17.4314 177.952 17.4374 179.707C17.4434 181.463 24.0554 184.354 27.9914 183.355Z" fill="#5570F1"/>
<path id="Vector_44" opacity="0.2" d="M27.9914 183.355C27.9914 183.355 29.4314 172.122 28.4354 170.471C27.4394 168.821 27.2354 176.599 27.2354 176.599C27.2354 176.599 23.9174 160.366 21.7754 160.309C19.6334 160.253 24.3194 174.393 24.3194 174.393C24.3194 174.393 15.1454 154.286 12.4994 156.154C9.85341 158.022 22.0994 175.826 22.0994 175.826C22.0994 175.826 15.3974 168.088 13.9214 170.278C12.4454 172.468 21.3614 179.136 21.3614 179.136C21.3614 179.136 17.4314 177.952 17.4374 179.707C17.4434 181.463 24.0554 184.354 27.9914 183.355Z" fill="white"/>
<path id="Vector_45" d="M34.7353 183.887C34.7353 183.887 39.9733 177.662 39.9673 175.915C39.9613 174.168 36.8653 179.047 36.8653 179.047C36.8653 179.047 40.9453 166.3 39.6013 164.77C38.2573 163.24 35.8273 175.609 35.8273 175.609C35.8273 175.609 37.6273 156.38 35.2273 155.744C32.8273 155.108 33.8353 175.005 33.8353 175.005C33.8353 175.005 32.4973 165.407 30.7153 165.793C28.9333 166.18 32.0893 176.624 32.0893 176.624C32.0893 176.624 30.0193 173.145 29.3473 174.28C28.6753 175.416 31.8313 181.801 34.7353 183.887Z" fill="#5570F1"/>
<path id="Vector_46" opacity="0.2" d="M34.7353 183.887C34.7353 183.887 39.9733 177.662 39.9673 175.915C39.9613 174.168 36.8653 179.047 36.8653 179.047C36.8653 179.047 40.9453 166.3 39.6013 164.77C38.2573 163.24 35.8273 175.609 35.8273 175.609C35.8273 175.609 37.6273 156.38 35.2273 155.744C32.8273 155.108 33.8353 175.005 33.8353 175.005C33.8353 175.005 32.4973 165.407 30.7153 165.793C28.9333 166.18 32.0893 176.624 32.0893 176.624C32.0893 176.624 30.0193 173.145 29.3473 174.28C28.6753 175.416 31.8313 181.801 34.7353 183.887Z" fill="white"/>
<path id="Vector_47" d="M37.8852 185.86H20.3652C20.3652 185.86 23.8572 178.701 25.3452 179.611C27.2772 180.795 28.7112 174.305 30.8532 175.843C31.6092 176.382 31.2372 178.113 31.7112 178.814C32.4972 179.973 33.5112 179.748 34.4472 180.384C36.3072 181.624 36.9672 183.267 37.8852 185.86Z" fill="#5570F1"/>
</g>
<g id="Character">
<g id="group">
<path id="Vector_48" d="M79.2674 31.4705C79.2674 31.4705 59.0954 27.2511 55.2674 29.4655C51.4394 31.6799 50.1494 39.6437 50.1494 39.6437C50.1494 39.6437 49.4594 41.2542 51.5474 41.4635C51.5474 41.4635 43.0094 70.0093 45.7094 75.4769C48.4094 80.9444 75.6014 83.1347 79.3094 80.4532C83.0174 77.7718 91.8194 33.5078 79.2674 31.4705Z" fill="#263238"/>
<path id="Vector_49" d="M91.1468 58.7039C91.1468 58.7039 93.8168 67.022 94.4168 68.1815C95.0168 69.3411 108.307 77.5384 108.307 77.5384C109.384 77.3365 110.476 77.3365 111.553 77.5384C113.191 77.8846 115.447 78.8107 115.651 79.1489C115.855 79.4871 113.185 84.697 113.185 84.697C113.185 84.697 107.875 85.1399 107.185 82.3215C107.185 82.3215 93.8708 75.6863 92.3228 73.947C90.7748 72.2077 86.4668 61.9329 86.4668 61.9329L91.1468 58.7039Z" fill="#E4897B"/>
<path id="Vector_50" d="M87.3256 40.4895C89.8216 42.4865 93.7276 63.9864 94.5676 66.539C95.4076 69.0916 105.608 75.3 105.608 75.3L101.084 81.1138C101.084 81.1138 90.7456 74.9537 89.4616 73.2305C88.1776 71.5073 83.0176 53.6391 83.0176 53.6391L87.3256 40.4895Z" fill="#F8B32E"/>
<path id="Vector_51" d="M86.4978 89.6256C86.4978 89.6256 128.57 81.5168 130.79 93.9014C133.136 107.003 99.3558 115.836 79.1898 116.762C59.0238 117.688 53.1918 111.737 56.4318 78.2556L83.6718 78.167L86.4978 89.6256Z" fill="#263238"/>
<path id="Vector_52" opacity="0.2" d="M86.4978 89.6256C86.4978 89.6256 128.57 81.5168 130.79 93.9014C133.136 107.003 99.3558 115.836 79.1898 116.762C59.0238 117.688 53.1918 111.737 56.4318 78.2556L83.6718 78.167L86.4978 89.6256Z" fill="black"/>
<path id="Vector_53" d="M124.496 108.823C124.474 108.844 124.448 108.856 124.421 108.856C124.394 108.856 124.367 108.844 124.346 108.823C124.326 108.805 124.311 108.778 124.305 108.747C124.298 108.716 124.3 108.683 124.31 108.653C124.376 108.356 125.042 105.747 125.72 105.473C125.791 105.45 125.866 105.453 125.937 105.481C126.007 105.509 126.071 105.562 126.122 105.634C126.216 105.738 126.288 105.875 126.33 106.029C126.372 106.183 126.383 106.35 126.362 106.512C126.253 106.998 126.032 107.427 125.732 107.735C125.348 108.153 124.934 108.517 124.496 108.823ZM124.664 108.323C125.293 107.953 125.804 107.293 126.104 106.463C126.121 106.353 126.115 106.238 126.085 106.132C126.055 106.026 126.003 105.934 125.936 105.867C125.917 105.836 125.891 105.813 125.862 105.802C125.833 105.79 125.802 105.791 125.774 105.803C125.717 105.835 125.664 105.878 125.618 105.932C125.196 106.646 124.872 107.456 124.664 108.323Z" fill="#F8B32E"/>
<path id="Vector_54" d="M124.459 108.863C124.437 108.872 124.413 108.872 124.391 108.864C124.368 108.855 124.348 108.838 124.333 108.814C124.267 108.734 123.337 107.156 123.487 106.093C123.528 105.827 123.644 105.593 123.811 105.441C123.881 105.347 123.973 105.29 124.072 105.276C124.17 105.263 124.268 105.296 124.351 105.368C124.837 105.835 124.777 107.945 124.537 108.75V108.831L124.459 108.863ZM123.925 105.763C123.842 105.862 123.785 105.995 123.763 106.141C123.667 106.818 124.135 107.832 124.363 108.315C124.519 107.413 124.471 105.9 124.183 105.666C124.153 105.666 124.093 105.577 123.949 105.714L123.901 105.763H123.925Z" fill="#F8B32E"/>
<path id="Vector_55" d="M109.922 115.458L118.742 115.466L122.972 115.474L123.476 109.491L119.564 108.79L110 107.075L109.922 115.458Z" fill="#E4897B"/>
<path id="Vector_56" d="M122.546 108.774L121.472 115.594C121.459 115.684 121.46 115.776 121.474 115.865C121.488 115.954 121.515 116.039 121.553 116.114C121.592 116.189 121.641 116.253 121.698 116.302C121.755 116.351 121.819 116.384 121.886 116.4L124.418 117.012C124.418 117.012 127.784 118.163 128.732 117.35C131.492 114.982 134.132 99.9646 133.028 98.8292C132.62 98.4266 131.906 99.0386 131.552 99.5298C130.418 101.084 128 105.416 127.04 106.704C125.924 108.202 123.938 108.242 123.068 108.186C122.943 108.18 122.82 108.237 122.723 108.346C122.627 108.454 122.564 108.607 122.546 108.774Z" fill="#263238"/>
<path id="Vector_57" opacity="0.2" d="M109.922 115.458L118.742 115.466L119.564 108.79L110 107.075L109.922 115.458Z" fill="black"/>
<path id="Vector_58" d="M76.6152 89.2145V90.7122C76.6164 91.2105 76.7603 91.6892 77.0172 92.0489C77.2741 92.4087 77.6243 92.6221 77.9952 92.6448H119.029C119.411 92.6278 119.775 92.4203 120.049 92.063C120.323 91.7056 120.488 91.224 120.511 90.7122V89.2145H76.6152Z" fill="#263238"/>
<path id="Vector_59" opacity="0.2" d="M76.6152 89.2145V90.7122C76.6164 91.2105 76.7603 91.6892 77.0172 92.0489C77.2741 92.4087 77.6243 92.6221 77.9952 92.6448H119.029C119.411 92.6278 119.775 92.4203 120.049 92.063C120.323 91.7056 120.488 91.224 120.511 90.7122V89.2145H76.6152Z" fill="white"/>
<path id="Vector_60" opacity="0.2" d="M91.9453 89.2145V90.7122C91.948 91.2113 92.0933 91.6899 92.3511 92.0495C92.609 92.409 92.9598 92.6221 93.3313 92.6448H119.047C119.429 92.6278 119.793 92.4203 120.067 92.063C120.341 91.7056 120.506 91.224 120.529 90.7122V89.2145H91.9453Z" fill="white"/>
<path id="Vector_61" d="M93.3136 91.2682H120.422C120.857 91.2392 121.276 91.039 121.627 90.6925C121.978 90.3459 122.245 89.8684 122.396 89.3195L128.612 63.1492C128.684 62.9233 128.713 62.6763 128.694 62.4315C128.676 62.1867 128.612 61.9522 128.507 61.75C128.403 61.5478 128.262 61.3847 128.097 61.2758C127.933 61.167 127.751 61.1162 127.568 61.128H100.46C100.02 61.1704 99.6 61.3844 99.2503 61.7435C98.9006 62.1027 98.6369 62.5913 98.4916 63.1492L92.2756 89.2873C92.2031 89.5102 92.1746 89.7545 92.1929 89.9966C92.2111 90.2386 92.2754 90.4703 92.3797 90.6693C92.484 90.8683 92.6247 91.028 92.7883 91.1328C92.9518 91.2377 93.1328 91.2843 93.3136 91.2682Z" fill="#263238"/>
<path id="Vector_62" opacity="0.2" d="M93.3136 91.2682H120.422C120.857 91.2392 121.276 91.039 121.627 90.6925C121.978 90.3459 122.245 89.8684 122.396 89.3195L128.612 63.1492C128.684 62.9233 128.713 62.6763 128.694 62.4315C128.676 62.1867 128.612 61.9522 128.507 61.75C128.403 61.5478 128.262 61.3847 128.097 61.2758C127.933 61.167 127.751 61.1162 127.568 61.128H100.46C100.02 61.1704 99.6 61.3844 99.2503 61.7435C98.9006 62.1027 98.6369 62.5913 98.4916 63.1492L92.2756 89.2873C92.2031 89.5102 92.1746 89.7545 92.1929 89.9966C92.2111 90.2386 92.2754 90.4703 92.3797 90.6693C92.484 90.8683 92.6247 91.028 92.7883 91.1328C92.9518 91.2377 93.1328 91.2843 93.3136 91.2682Z" fill="white"/>
<path id="Vector_63" opacity="0.2" d="M94.3456 91.2682H120.434C120.869 91.2392 121.288 91.039 121.639 90.6925C121.99 90.3459 122.257 89.8684 122.408 89.3195L128.624 63.1492C128.696 62.9233 128.725 62.6763 128.706 62.4315C128.688 62.1867 128.624 61.9522 128.519 61.75C128.415 61.5478 128.274 61.3847 128.109 61.2758C127.945 61.167 127.763 61.1162 127.58 61.128H101.48C101.04 61.1704 100.62 61.3844 100.27 61.7435C99.9206 62.1027 99.6568 62.5913 99.5116 63.1492L93.2956 89.2873C93.2224 89.5115 93.1939 89.7574 93.2126 90.001C93.2314 90.2445 93.2968 90.4773 93.4026 90.6768C93.5083 90.8763 93.6507 91.0356 93.816 91.1392C93.9812 91.2429 94.1637 91.2873 94.3456 91.2682Z" fill="white"/>
<path id="Vector_64" opacity="0.2" d="M110.198 77.3696C109.862 79.1089 110.51 80.5261 111.644 80.5261C112.778 80.5261 113.96 79.1089 114.296 77.3696C114.632 75.6302 113.984 74.213 112.856 74.213C111.728 74.213 110.546 75.6544 110.198 77.3696Z" fill="white"/>
<path id="Vector_65" opacity="0.2" d="M122.546 108.774L121.472 115.594C121.459 115.684 121.46 115.776 121.474 115.865C121.488 115.954 121.515 116.039 121.553 116.114C121.592 116.189 121.641 116.253 121.698 116.302C121.755 116.351 121.819 116.384 121.886 116.4L124.418 117.012C124.418 117.012 127.784 118.163 128.732 117.35C131.492 114.982 134.132 99.9646 133.028 98.8292C132.62 98.4266 131.906 99.0386 131.552 99.5298C130.418 101.084 128 105.416 127.04 106.704C125.924 108.202 123.938 108.242 123.068 108.186C122.943 108.18 122.82 108.237 122.723 108.346C122.627 108.454 122.564 108.607 122.546 108.774Z" fill="white"/>
<path id="Vector_66" d="M64.5021 82.9981L55.9941 83.1431L56.1561 79.4309L64.5021 79.1893V82.9981Z" fill="black"/>
<path id="Vector_67" d="M81.2891 78.6984L83.8331 78.626L84.7451 82.6361L81.2891 82.7005V78.6984Z" fill="black"/>
<path id="Vector_68" d="M80.2026 78.7303V82.7163L65.8086 82.9739V79.1491L80.2026 78.7303Z" fill="black"/>
<path id="Vector_69" d="M71.911 82.0241L71.869 80.47C71.8524 80.0707 71.953 79.6784 72.1493 79.3774C72.3455 79.0764 72.6218 78.8905 72.919 78.8595L75.523 78.7146C75.6679 78.7074 75.8125 78.7401 75.9476 78.8107C76.0828 78.8813 76.2058 78.9884 76.309 79.1253C76.5271 79.416 76.6538 79.808 76.663 80.2204L76.705 81.7664C76.7199 82.1666 76.6179 82.5588 76.4207 82.8596C76.2235 83.1603 75.9466 83.346 75.649 83.3769L73.051 83.5219H73.003C72.7126 83.5075 72.4375 83.3441 72.2343 83.0654C72.0311 82.7867 71.9154 82.414 71.911 82.0241ZM75.631 82.7247C75.8034 82.7022 75.9626 82.5903 76.0746 82.4129C76.1866 82.2355 76.2427 82.0065 76.231 81.7745L76.189 80.2284C76.1802 79.9887 76.1054 79.762 75.979 79.5923C75.9199 79.5112 75.8488 79.4478 75.7702 79.4062C75.6916 79.3645 75.6074 79.3456 75.523 79.3507L72.919 79.4957C72.7459 79.5162 72.5858 79.6275 72.4735 79.8053C72.3612 79.9832 72.3056 80.2134 72.319 80.4459L72.361 82C72.3609 82.1166 72.3782 82.2321 72.4119 82.3396C72.4455 82.4472 72.4947 82.5446 72.5567 82.6264C72.6187 82.7081 72.6923 82.7724 72.773 82.8156C72.8537 82.8587 72.9401 82.8798 73.027 82.8777L75.631 82.7247Z" fill="white"/>
<path id="Vector_70" d="M72.3547 81.5165H73.6627C73.7418 81.5145 73.8172 81.4714 73.8731 81.3964C73.929 81.3213 73.9611 81.2201 73.9627 81.1139C73.9627 81.0071 73.9311 80.9047 73.8748 80.8292C73.8186 80.7537 73.7422 80.7113 73.6627 80.7113H72.3547C72.2751 80.7113 72.1988 80.7537 72.1426 80.8292C72.0863 80.9047 72.0547 81.0071 72.0547 81.1139C72.0562 81.2201 72.0883 81.3213 72.1443 81.3964C72.2002 81.4714 72.2756 81.5145 72.3547 81.5165Z" fill="white"/>
<path id="Vector_71" d="M87.3245 40.4894C87.3245 40.4894 84.0425 68.3426 85.4165 78.3357L55.0625 79.5194C55.0625 79.5194 58.6625 50.7481 63.4325 39.8935C63.4325 39.8613 71.3585 22.0977 87.3245 40.4894Z" fill="#F8B32E"/>
<path id="Vector_72" opacity="0.6" d="M87.3245 40.4894C87.3245 40.4894 84.0425 68.3426 85.4165 78.3357L55.0625 79.5194C55.0625 79.5194 58.6625 50.7481 63.4325 39.8935C63.4325 39.8613 71.3585 22.0977 87.3245 40.4894Z" fill="white"/>
<path id="Vector_73" d="M69.5176 34.2892C69.5176 34.2892 74.5516 40.8921 77.4616 39.8131C80.3716 38.7341 81.4636 36.7452 81.4636 36.7452C81.4636 36.7452 79.1236 35.3682 79.3816 34.6193C79.4116 34.5388 79.4836 34.3858 79.5856 34.1603C80.4556 32.3888 83.5396 26.736 83.5396 26.736L76.9396 21.7516C76.9396 21.7516 76.3996 23.4668 75.7396 25.5121C74.8456 28.2338 73.7296 31.5272 73.3396 32.1392C72.6556 33.2182 69.5176 34.2892 69.5176 34.2892Z" fill="#E4897B"/>
<path id="Vector_74" opacity="0.2" d="M75.709 25.5121C76.123 28.6525 77.143 32.3485 79.585 34.1603C80.455 32.3888 83.539 26.736 83.539 26.736L76.939 21.7516C76.939 21.7516 76.375 23.4668 75.709 25.5121Z" fill="black"/>
<path id="Vector_75" d="M74.3834 19.3921C74.015 20.9542 73.8348 22.5852 73.8494 24.2235C73.9754 26.2205 72.3194 26.8889 72.1094 25.681C72.1094 25.681 72.1394 28.6201 73.5614 28.1773C73.5614 28.1773 73.5614 30.2145 74.8334 30.2467C75.9151 28.2437 76.476 25.8188 76.4294 23.3458C76.2314 19.4726 74.3834 19.3921 74.3834 19.3921Z" fill="#263238"/>
<path id="Vector_76" d="M85.7897 9.60064C83.6297 10.8005 83.9897 17.5323 87.5897 23.2897C89.7917 20.7452 90.7937 14.8669 90.2717 12.5478C89.4317 8.83567 87.6677 8.56188 85.7897 9.60064Z" fill="#263238"/>
<path id="Vector_77" d="M88.9448 25.9873C88.7508 26.7566 88.5224 27.5096 88.2608 28.242C86.1308 34.0639 80.0048 35.1993 77.2928 29.4418L77.2628 29.3854C75.4628 25.5042 76.1408 21.8886 76.8908 15.6158C77.0554 14.1578 77.4943 12.7803 78.166 11.6133C78.8378 10.4463 79.7201 9.52842 80.7297 8.94646C81.7393 8.3645 82.8428 8.13766 83.9359 8.28736C85.029 8.43706 86.0756 8.95836 86.9768 9.802C90.5108 13.1437 90.3008 20.6325 88.9448 25.9873Z" fill="#E4897B"/>
<path id="Vector_78" d="M83.4726 19.3921C83.3886 19.8994 83.5206 20.3664 83.7606 20.4389C84.0006 20.5114 84.2706 20.1651 84.3606 19.6336C84.4506 19.1022 84.3186 18.6593 84.0726 18.5868C83.8266 18.5144 83.5806 18.925 83.4726 19.3921Z" fill="#263238"/>
<path id="Vector_79" d="M87.746 20.7051C87.662 21.2044 87.794 21.6714 88.04 21.7439C88.286 21.8164 88.55 21.4782 88.64 20.9387C88.73 20.3991 88.592 19.9643 88.346 19.8918C88.1 19.8194 87.818 20.1978 87.746 20.7051Z" fill="#263238"/>
<path id="Vector_80" d="M86.2998 20.5197C86.4925 22.1882 86.8538 23.8136 87.3738 25.3511C87.0765 25.5195 86.7553 25.5981 86.4328 25.5814C86.1103 25.5647 85.7946 25.4531 85.5078 25.2545L86.2998 20.5197Z" fill="#DE5753"/>
<path id="Vector_81" d="M82.6093 17.258C82.5602 17.2496 82.5142 17.2215 82.4773 17.1775C82.4355 17.119 82.4121 17.0411 82.4121 16.96C82.4121 16.879 82.4355 16.8011 82.4773 16.7426C82.745 16.4221 83.0665 16.1933 83.4144 16.0755C83.7623 15.9577 84.1263 15.9545 84.4753 16.0662C84.5029 16.0756 84.5289 16.0922 84.5517 16.1152C84.5745 16.1381 84.5937 16.1669 84.6082 16.1998C84.6227 16.2327 84.6322 16.2692 84.6362 16.3071C84.6401 16.345 84.6385 16.3835 84.6313 16.4205C84.6132 16.4973 84.5739 16.5618 84.5214 16.6008C84.4689 16.6397 84.4073 16.6502 84.3493 16.6299C84.0732 16.5465 83.7863 16.5535 83.5127 16.6502C83.2391 16.7469 82.9869 16.9305 82.7773 17.1855C82.7542 17.212 82.7275 17.232 82.6987 17.2445C82.6699 17.2569 82.6394 17.2615 82.6093 17.258Z" fill="#263238"/>
<path id="Vector_82" d="M89.9964 19.3925C89.955 19.3768 89.9172 19.3471 89.8868 19.3062C89.8563 19.2653 89.8342 19.2147 89.8224 19.159C89.7651 18.7876 89.6435 18.4395 89.4673 18.143C89.2912 17.8464 89.0654 17.6096 88.8084 17.4519C88.7523 17.4246 88.7064 17.3688 88.6806 17.2965C88.6548 17.2242 88.6511 17.1412 88.6704 17.0654C88.6908 16.99 88.7324 16.9284 88.7862 16.8938C88.8401 16.8592 88.9019 16.8543 88.9584 16.8802C89.2874 17.0712 89.5774 17.3654 89.804 17.7382C90.0305 18.1109 90.1871 18.5513 90.2604 19.0221C90.2676 19.0602 90.2691 19.0998 90.2648 19.1386C90.2606 19.1775 90.2506 19.2148 90.2356 19.2485C90.2205 19.2822 90.2007 19.3115 90.1771 19.3349C90.1536 19.3582 90.1268 19.3751 90.0984 19.3845C90.0652 19.3965 90.0305 19.3992 89.9964 19.3925Z" fill="#263238"/>
<path id="Vector_83" d="M84.62 28.3463C83.9834 28.2625 83.3767 27.9424 82.868 27.4218C82.3594 26.9013 81.9687 26.2009 81.74 25.3992C81.7288 25.3426 81.7344 25.2824 81.7557 25.2313C81.777 25.1802 81.8122 25.1422 81.854 25.1254C81.8969 25.1101 81.9426 25.1174 81.9817 25.1458C82.0207 25.1743 82.0502 25.2217 82.064 25.2784C82.064 25.3669 82.556 27.4123 84.674 27.9035C84.717 27.9152 84.755 27.9482 84.7806 27.996C84.8062 28.0438 84.8174 28.1027 84.812 28.1611C84.8046 28.2197 84.7803 28.2721 84.7444 28.3067C84.7084 28.3414 84.6637 28.3556 84.62 28.3463Z" fill="#263238"/>
<path id="Vector_84" d="M89.8525 14.6176C89.8525 14.6176 91.2446 13.1843 91.1906 11.5094C91.1427 10.4514 90.8923 9.4278 90.4634 8.53769C90.0346 7.64758 89.4418 6.92103 88.7426 6.42832C87.4158 5.39746 85.9135 4.8428 84.3806 4.81784C79.0646 4.39912 76.1726 6.54106 75.2606 10.3498C74.6966 11.7026 74.7086 14.215 75.2126 16.5663C75.2154 16.5794 75.2154 16.5934 75.2126 16.6065C75.485 17.9485 75.9564 19.2028 76.5985 20.2945C79.8385 16.526 81.0445 13.8526 80.5345 12.0811C80.6425 12.0408 82.2505 10.1083 82.9646 10.06C83.9965 9.98749 85.8986 11.3 87.4406 12.532C88.2866 13.2004 89.1566 12.1294 89.1566 12.1294L89.8525 14.6176Z" fill="#263238"/>
<path id="Vector_85" d="M73.8557 19.932C73.8891 20.7224 74.0382 21.4962 74.2945 22.2091C74.5509 22.9221 74.9095 23.5602 75.3497 24.0871C76.5497 25.4721 77.8097 24.2642 78.0437 22.2914C78.2597 20.5118 77.8997 17.6371 76.4357 17.009C74.9717 16.3809 73.7717 17.9753 73.8557 19.932Z" fill="#E4897B"/>
<path id="Vector_86" d="M73.8494 24.1673C73.8494 24.1673 75.8174 13.9005 80.6834 10.0756C85.5494 6.25074 90.5954 8.92414 90.5954 8.92414C90.5428 7.8945 90.4325 6.87163 90.2654 5.86423C90.1214 5.54214 87.7094 4.43091 87.7094 4.43091C87.7094 4.43091 86.3354 1.71725 84.4274 0.847593C82.5194 -0.0220658 76.8194 -0.271686 74.8274 1.95883C72.8354 4.18934 71.5214 8.73089 72.3614 8.81141C73.2014 8.89193 73.8434 8.89194 73.8434 8.89194C73.8434 8.89194 72.2714 16.1793 72.9434 17.2745C72.9494 17.2664 71.7854 22.3394 73.8494 24.1673Z" fill="#F8B32E"/>
<path id="Vector_87" d="M83.6117 118.228C83.6274 118.199 83.6484 118.177 83.6726 118.162C83.6969 118.148 83.7235 118.143 83.7497 118.147C83.773 118.151 83.7945 118.166 83.81 118.19C83.8254 118.214 83.8339 118.244 83.8337 118.276C83.8817 118.582 84.1937 121.304 83.6897 121.972C83.6346 122.036 83.5681 122.08 83.4967 122.1C83.4252 122.12 83.3512 122.114 83.2817 122.085C83.1617 122.052 83.0504 121.976 82.9597 121.865C82.8689 121.755 82.8019 121.614 82.7657 121.457C82.6934 120.959 82.7396 120.443 82.8977 119.983C83.0903 119.367 83.3296 118.778 83.6117 118.228ZM83.6117 118.783C83.1929 119.509 82.9802 120.411 83.0117 121.328C83.0341 121.436 83.0795 121.533 83.1423 121.608C83.2052 121.682 83.2828 121.73 83.3657 121.746C83.3925 121.763 83.4224 121.768 83.4514 121.761C83.4804 121.753 83.507 121.734 83.5277 121.706C83.5706 121.647 83.6034 121.575 83.6237 121.497C83.7487 120.6 83.7507 119.681 83.6297 118.783H83.6117Z" fill="#F8B32E"/>
<path id="Vector_88" d="M97.0402 104.901L88.6762 108.629L84.6562 110.424L85.5862 116.311L89.4682 115.32L98.9422 112.888L97.0402 104.901Z" fill="#E4897B"/>
<path id="Vector_89" d="M86.6723 116.617L86.0723 109.692C86.0651 109.598 86.0435 109.507 86.009 109.424C85.9744 109.341 85.9275 109.269 85.8712 109.212C85.815 109.154 85.7506 109.113 85.6819 109.09C85.6133 109.068 85.542 109.064 85.4723 109.08L82.9463 109.58C82.9463 109.58 79.4843 109.918 78.7763 111.085C76.7123 114.508 77.7263 129.88 79.0583 130.459C79.5443 130.669 80.0723 129.783 80.2943 129.171C81.0023 127.214 82.2803 122.077 82.8803 120.45C83.5883 118.558 85.4603 117.672 86.3003 117.358C86.4182 117.315 86.5205 117.216 86.5888 117.08C86.6571 116.944 86.6867 116.78 86.6723 116.617Z" fill="#263238"/>
<path id="Vector_90" d="M83.6286 118.179C83.6475 118.16 83.6707 118.149 83.6946 118.149C83.7185 118.149 83.7417 118.16 83.7606 118.179C83.8386 118.179 85.2126 118.984 85.4466 120.055C85.4798 120.188 85.4916 120.328 85.4813 120.467C85.4709 120.605 85.4387 120.74 85.3866 120.861C85.3559 120.985 85.2946 121.092 85.2129 121.163C85.1312 121.235 85.0338 121.267 84.9366 121.255C84.3366 121.15 83.6646 119.242 83.5986 118.388V118.3C83.5964 118.278 83.598 118.256 83.6032 118.235C83.6084 118.214 83.6171 118.195 83.6286 118.179ZM85.1766 120.595C85.2127 120.454 85.2127 120.301 85.1766 120.16C85.0326 119.5 84.2646 118.896 83.8746 118.63C84.0486 119.524 84.6066 120.804 84.9546 120.861C84.9906 120.861 85.0626 120.861 85.1406 120.667L85.1706 120.595H85.1766Z" fill="#F8B32E"/>
<path id="Vector_91" opacity="0.2" d="M97.0398 104.901L88.6758 108.629L89.4678 115.32L98.9418 112.888L97.0398 104.901Z" fill="black"/>
<path id="Vector_92" d="M90.9187 116.359L93.3067 116.657L91.8787 105.585L89.1367 107.518L90.9187 116.359Z" fill="#F8B32E"/>
<path id="Vector_93" opacity="0.6" d="M90.9187 116.359L93.3067 116.657L91.8787 105.585L89.1367 107.518L90.9187 116.359Z" fill="white"/>
<path id="Vector_94" opacity="0.2" d="M86.6723 116.617L86.0723 109.692C86.0651 109.598 86.0435 109.507 86.009 109.424C85.9744 109.341 85.9275 109.269 85.8712 109.212C85.815 109.154 85.7506 109.113 85.6819 109.09C85.6133 109.068 85.542 109.064 85.4723 109.08L82.9463 109.58C82.9463 109.58 79.4843 109.918 78.7763 111.085C76.7123 114.508 77.7263 129.88 79.0583 130.459C79.5443 130.669 80.0723 129.783 80.2943 129.171C81.0023 127.214 82.2803 122.077 82.8803 120.45C83.5883 118.558 85.4603 117.672 86.3003 117.358C86.4182 117.315 86.5205 117.216 86.5888 117.08C86.6571 116.944 86.6867 116.78 86.6723 116.617Z" fill="white"/>
<path id="Vector_95" d="M117.938 107.92C117.938 107.92 78.7936 87.5154 66.8116 90.9216C54.8296 94.3277 54.7636 102.751 60.8116 110.602C66.8596 118.453 75.9676 115.433 75.9676 115.433C75.9676 115.433 68.8336 109.7 69.3316 106.157C69.8296 102.614 74.3656 110.714 74.3656 110.714C74.3656 110.714 98.0176 118.477 117.566 116.432L117.938 107.92Z" fill="#263238"/>
<path id="Vector_96" d="M118.411 107.067L116.215 105.714L114.949 116.77L118.009 116.102L118.411 107.067Z" fill="#F8B32E"/>
<path id="Vector_97" opacity="0.6" d="M118.411 107.067L116.215 105.714L114.949 116.77L118.009 116.102L118.411 107.067Z" fill="white"/>
<path id="Vector_98" d="M67.0332 32.1473C67.0332 32.1473 72.3312 51.4731 72.0552 55.8133C71.7792 60.1536 60.8652 92.6691 60.8652 92.6691L51.8652 97.5006C51.8652 97.5006 53.7192 49.7418 67.0332 32.1473Z" fill="#F8B32E"/>
<path id="Vector_99" opacity="0.2" d="M67.0332 32.1473C67.0332 32.1473 72.3312 51.4731 72.0552 55.8133C71.7792 60.1536 60.8652 92.6691 60.8652 92.6691L51.8652 97.5006C51.8652 97.5006 53.7192 49.7418 67.0332 32.1473Z" fill="black"/>
<path id="Vector_100" d="M86.1564 88.2482C86.1564 88.2482 83.3244 79.2375 82.4184 74.245C81.5124 69.2526 84.6804 43.6057 82.9764 34.9977L87.3264 40.4894L85.4844 72.5379L86.1564 88.2482Z" fill="#F8B32E"/>
<path id="Vector_101" opacity="0.2" d="M86.1564 88.2482C86.1564 88.2482 83.3244 79.2375 82.4184 74.245C81.5124 69.2526 84.6804 43.6057 82.9764 34.9977L87.3264 40.4894L85.4844 72.5379L86.1564 88.2482Z" fill="black"/>
<path id="Vector_102" d="M54.0368 74.245C54.0368 74.245 72.8108 79.0765 69.8408 33.049L66.7868 32.6947C66.7868 32.6947 68.6468 50.1845 65.2208 61.627C61.7948 73.0694 53.7188 72.5379 53.7188 72.5379L54.0368 74.245Z" fill="#263238"/>
<path id="Vector_103" d="M71.9474 53.7925L65.6474 34.1607L63.7454 37.5347C63.7454 37.5347 63.4094 32.7757 64.5134 31.3907C65.6174 30.0057 68.7134 31.737 69.9134 32.1476C71.1134 32.5583 71.9474 53.7925 71.9474 53.7925Z" fill="#F8B32E"/>
<path id="Vector_104" d="M81.877 35.3036C81.877 35.3036 84.307 44.9665 83.911 60.0889C83.515 75.2113 85.543 73.9551 85.543 73.9551L85.831 72.5298C85.831 72.5298 84.697 72.3527 84.787 67.2555C84.877 62.1583 85.387 41.5845 83.911 36.1813L81.877 35.3036Z" fill="#263238"/>
<path id="Vector_105" d="M83.1489 53.2127C83.1489 53.2127 83.7489 38.7184 80.7129 34.4747C80.7129 34.4747 82.9869 33.3313 83.9109 34.4747C84.8349 35.6182 85.0629 46.658 83.2509 53.8005" fill="#F8B32E"/>
<path id="Vector_106" d="M67.9025 59.139C67.9025 59.139 70.6505 67.6987 71.2685 68.8905C71.8865 70.0823 85.5605 78.5534 85.5605 78.5534C86.6692 78.3468 87.7938 78.3468 88.9025 78.5534C90.5885 78.9077 92.9105 79.8579 93.1025 80.2202C93.2945 80.5826 90.5645 85.9294 90.5645 85.9294C90.5645 85.9294 85.0985 86.3803 84.4205 83.5137C84.4205 83.5137 70.7165 76.6852 69.1265 74.8976C67.5365 73.1099 63.1445 62.4647 63.1445 62.4647L67.9025 59.139Z" fill="#E4897B"/>
<path id="Vector_107" d="M64.5014 39.9341C67.4294 39.9341 71.5394 63.9222 72.3014 67.1753C73.0634 70.4285 85.2074 77.3697 85.2074 77.3697L81.3494 83.4975C81.3494 83.4975 68.2214 77.1361 66.6794 74.2131C65.1374 71.2901 60.4634 54.6458 60.2474 50.7968C60.0314 46.9477 62.5454 39.926 64.5014 39.9341Z" fill="#F8B32E"/>
</g>
</g>
</g>
</svg>
