<svg width="236" height="233" viewBox="0 0 236 233" fill="none" xmlns="http://www.w3.org/2000/svg">
<g id="business-support/rafiki">
<g id="Arrow">
<path id="Vector" d="M222.562 143.686L209.949 142.737L214.786 148.384L196.382 162.903L165.558 162.835L118.017 188.592H32.789L0.824219 232.669H25.5911L43.1487 208.742H118.017L165.507 183.719L203.676 183.803L228.409 164.281L233.07 169.719L234.12 157.177L235.176 144.634L222.562 143.686Z" fill="#F8B32E"/>
</g>
<g id="speech-bubble">
<path id="Vector_2" d="M167.829 25.7283C172.725 21.6297 173.354 14.3588 169.234 9.48813C165.114 4.61749 157.806 3.99158 152.91 8.09014C148.014 12.1887 147.385 19.4597 151.505 24.3303C155.624 29.2009 162.933 29.8268 167.829 25.7283Z" fill="#5570F1"/>
<path id="Vector_3" d="M154.552 23.834L151.577 24.0712L151.061 27.7758L154.654 26.8948L154.552 23.834Z" fill="#5570F1"/>
<path id="Vector_4" d="M173.237 14.8776C173.203 14.8778 173.17 14.865 173.145 14.842C173.12 14.819 173.104 14.7873 173.101 14.7534C172.883 12.9102 172.212 11.1486 171.149 9.6233C170.086 8.09806 168.663 6.85585 167.005 6.00583C166.971 5.98783 166.947 5.9579 166.935 5.92219C166.923 5.88648 166.926 5.8477 166.942 5.81382C166.959 5.7813 166.988 5.75663 167.023 5.74504C167.058 5.73344 167.096 5.73584 167.129 5.7517C168.83 6.62378 170.289 7.89829 171.377 9.46305C172.466 11.0278 173.152 12.8349 173.374 14.7252C173.376 14.7434 173.375 14.7619 173.37 14.7796C173.364 14.7973 173.356 14.8138 173.344 14.8281C173.332 14.8424 173.318 14.8541 173.302 14.8626C173.285 14.8711 173.267 14.8762 173.249 14.8776H173.237Z" fill="#5570F1"/>
<path id="Vector_5" d="M173.312 18.2996H173.283C173.265 18.2956 173.248 18.2881 173.232 18.2774C173.217 18.2667 173.204 18.253 173.194 18.2373C173.184 18.2215 173.177 18.204 173.174 18.1856C173.171 18.1672 173.171 18.1484 173.175 18.1302C173.304 17.5914 173.319 17.0319 173.221 16.4869C173.214 16.4502 173.222 16.4124 173.244 16.3817C173.265 16.351 173.298 16.33 173.334 16.3231C173.353 16.319 173.372 16.3187 173.39 16.3223C173.409 16.3259 173.426 16.3332 173.442 16.3438C173.457 16.3544 173.47 16.3681 173.48 16.3839C173.49 16.3998 173.496 16.4176 173.499 16.436C173.606 17.0183 173.591 17.6163 173.454 18.1923C173.445 18.2232 173.426 18.2503 173.401 18.2697C173.375 18.2891 173.344 18.2996 173.312 18.2996Z" fill="#5570F1"/>
<path id="Vector_6" d="M156.05 14.0813C155.698 14.6183 155.45 15.2158 155.318 15.8433L154.33 15.9393V17.848L155.318 17.9384C155.45 18.5676 155.698 19.167 156.05 19.706L155.426 20.4401L156.782 21.7898L157.543 21.163C158.085 21.5132 158.687 21.7602 159.32 21.8915L159.411 22.8741H161.329L161.426 21.8915C162.057 21.7602 162.657 21.5131 163.197 21.163L163.941 21.8124L165.314 20.4401L164.678 19.706C165.035 19.1694 165.284 18.5692 165.411 17.9384L166.404 17.848V15.9223L165.411 15.8263C165.284 15.1973 165.035 14.5989 164.678 14.0644L165.314 13.302L163.941 11.9693L163.174 12.5961C162.634 12.246 162.034 11.9989 161.403 11.8676L161.307 10.885H159.399L159.308 11.8676C158.676 11.9989 158.073 12.2459 157.532 12.5961L156.777 11.9693L155.426 13.319L156.05 14.0813ZM162.203 15.064C162.566 15.4251 162.812 15.885 162.912 16.3854C163.012 16.8859 162.96 17.4045 162.763 17.8758C162.567 18.347 162.234 18.7498 161.808 19.0331C161.381 19.3164 160.88 19.4676 160.367 19.4676C159.854 19.4676 159.353 19.3164 158.926 19.0331C158.5 18.7498 158.167 18.347 157.971 17.8758C157.774 17.4045 157.723 16.8859 157.822 16.3854C157.922 15.885 158.168 15.4251 158.531 15.064C158.772 14.8237 159.058 14.6331 159.373 14.5031C159.688 14.373 160.026 14.3061 160.367 14.3061C160.708 14.3061 161.046 14.373 161.361 14.5031C161.676 14.6331 161.963 14.8237 162.203 15.064Z" fill="white"/>
</g>
<g id="Character">
<path id="Vector_7" d="M83.4102 85.6315C83.4102 85.6315 86.4528 81.1137 90.2731 82.0511C94.0935 82.9886 94.3205 89.1892 94.3205 89.1892L92.2032 88.4607C92.2032 88.4607 92.8957 83.9712 90.1766 83.333C87.4576 82.6949 84.9144 86.3091 84.9144 86.3091L83.694 85.6654" fill="#263238"/>
<path id="Vector_8" d="M63.5312 107.165L64.6893 104.171L73.0792 82.5256L105.402 92.2389L98.6863 118.233L63.5312 107.165Z" fill="#5570F1"/>
<path id="Vector_9" d="M90.7952 75.7261C90.3014 75.8899 87.5312 79.1992 86.9749 80.1423C86.4186 81.0853 86.3562 81.7009 86.7819 82.0228C87.0921 82.2945 87.4449 82.5139 87.8264 82.6722C87.957 82.6722 87.3666 83.6492 88.1159 84.1349C88.8652 84.6205 89.2512 84.5245 89.2512 84.5245C89.2512 84.5245 89.0582 85.9533 90.0346 86.3429C91.0109 86.7326 91.4367 86.2752 91.6013 86.3429C91.7659 86.4107 92.6458 84.7504 92.6458 84.7504L93.7811 86.501C94.1946 86.0526 94.5458 85.5512 94.8256 85.0102C95.3479 84.0332 95.3138 81.2774 95.3138 81.2774L94.7915 78.8095L95.6771 75.2687C95.6771 75.2687 91.3686 74.704 91.3345 74.7887C91.3005 74.8734 90.7952 75.7261 90.7952 75.7261Z" fill="#E9B376"/>
<path id="Vector_10" opacity="0.2" d="M99.708 114.28L64.8823 103.68L63.5312 107.164L98.6863 118.233L99.708 114.28Z" fill="black"/>
<path id="Vector_11" d="M175.892 79.2165C175.892 79.2165 176.011 79.6005 175.551 80.3459C175.092 81.0913 174.093 80.5718 174.098 80.7017C173.952 81.0847 173.747 81.4429 173.491 81.7634C173.184 82.1982 172.56 82.1587 171.589 81.6504C170.619 81.1422 167.179 78.5218 166.997 78.0418C166.997 78.0418 166.128 77.5618 166.026 77.5336C165.924 77.5053 166.333 73.2021 166.333 73.2021L169.92 73.925L172.378 73.3038C172.378 73.3038 175.148 73.1513 176.148 73.6313C176.323 73.7104 176.482 73.7951 176.63 73.8798C176.754 73.9503 176.859 74.0509 176.933 74.1724C177.008 74.2938 177.05 74.4321 177.056 74.5742C177.063 74.7164 177.032 74.8578 176.969 74.9852C176.905 75.1127 176.81 75.222 176.692 75.3029L175.977 75.8112C175.977 75.8112 176.681 76.1895 177.175 76.4832C177.334 76.5746 177.463 76.7105 177.546 76.8741C177.629 77.0377 177.662 77.2218 177.64 77.4037C177.636 77.4794 177.618 77.5538 177.589 77.6239C177.54 77.7464 177.446 77.8457 177.326 77.9022C177.206 77.9588 177.069 77.9683 176.942 77.9289C176.965 78.177 176.901 78.4255 176.76 78.6316C176.619 78.8377 176.411 78.9886 176.17 79.0583C175.858 79.1713 175.892 79.2165 175.892 79.2165Z" fill="#E9B376"/>
<path id="Vector_12" opacity="0.1" d="M174.054 77.285C173.894 77.2852 173.737 77.2485 173.594 77.1777C173.502 77.1289 173.422 77.0622 173.356 76.9817C173.291 76.9012 173.242 76.8084 173.214 76.709C173.088 76.3177 173.073 75.8999 173.168 75.5005C172.925 75.7576 172.651 75.9834 172.351 76.1725C172.12 76.3357 171.857 76.4475 171.579 76.5C171.431 76.5277 171.279 76.5244 171.132 76.4904C170.986 76.4564 170.848 76.3923 170.727 76.3024C170.711 76.2916 170.697 76.2775 170.687 76.261C170.676 76.2446 170.669 76.2261 170.666 76.2068C170.663 76.1875 170.664 76.1677 170.669 76.1488C170.674 76.1299 170.683 76.1123 170.695 76.097C170.707 76.0817 170.722 76.069 170.74 76.0599C170.757 76.0508 170.776 76.0454 170.796 76.044C170.815 76.0426 170.835 76.0453 170.854 76.0518C170.872 76.0584 170.889 76.0687 170.903 76.0821C170.993 76.1479 171.095 76.194 171.204 76.2174C171.312 76.2407 171.425 76.2409 171.533 76.2177C171.773 76.1744 172 76.0779 172.198 75.9353C172.643 75.6578 173.029 75.295 173.333 74.868C173.345 74.798 173.374 74.7319 173.417 74.6757C173.461 74.6196 173.518 74.575 173.583 74.5461C173.61 74.5388 173.64 74.5398 173.667 74.5488C173.694 74.5578 173.718 74.5745 173.736 74.5969C173.751 74.6205 173.759 74.648 173.759 74.676C173.759 74.704 173.751 74.7314 173.736 74.755C173.685 74.8341 173.639 74.9132 173.583 74.9866C173.387 75.5068 173.354 76.0735 173.486 76.613C173.522 76.742 173.605 76.8529 173.719 76.9236C173.819 76.9765 173.93 77.0042 174.043 77.0042C174.155 77.0042 174.267 76.9765 174.366 76.9236C174.684 76.709 174.996 76.4549 175.365 76.1669L176.16 75.54C176.19 75.5168 176.228 75.5064 176.266 75.5112C176.304 75.516 176.338 75.5355 176.361 75.5654C176.385 75.5954 176.395 75.6333 176.39 75.6709C176.386 75.7085 176.366 75.7427 176.336 75.7659C176.041 75.9861 175.768 76.1951 175.541 76.3871C175.172 76.6808 174.849 76.9518 174.519 77.1551C174.382 77.2454 174.219 77.2909 174.054 77.285Z" fill="#263238"/>
<path id="Vector_13" opacity="0.1" d="M172.01 81.4638C171.846 81.4478 171.694 81.3712 171.584 81.2492C171.346 81.017 171.135 80.7594 170.954 80.4812C170.854 80.3623 170.784 80.2215 170.749 80.0702C170.714 79.919 170.717 79.7618 170.755 79.6115C170.804 79.4943 170.882 79.3911 170.981 79.3112C171.08 79.2313 171.198 79.1773 171.323 79.1541C171.547 79.1147 171.778 79.1243 171.998 79.1823C172.226 79.2272 172.449 79.2876 172.668 79.3631C172.605 79.2769 172.548 79.1863 172.498 79.092C172.398 78.9463 172.348 78.7722 172.357 78.596C172.365 78.4197 172.43 78.2509 172.543 78.115C172.668 78.0318 172.813 77.9814 172.962 77.9686C173.112 77.9558 173.263 77.9809 173.401 78.0416C174.241 78.2842 175.052 78.6175 175.819 79.0355C175.851 79.0544 175.875 79.0848 175.885 79.1204C175.896 79.156 175.892 79.1943 175.876 79.2275C175.867 79.2439 175.855 79.2583 175.84 79.27C175.825 79.2817 175.809 79.2904 175.791 79.2957C175.773 79.3009 175.754 79.3026 175.736 79.3006C175.717 79.2986 175.699 79.2929 175.683 79.284C174.933 78.877 174.141 78.5513 173.321 78.3127C173.134 78.2562 172.873 78.1997 172.753 78.3127C172.634 78.4256 172.657 78.7249 172.753 78.9452C172.909 79.2333 173.131 79.4809 173.401 79.668L173.696 79.8374C173.726 79.8581 173.747 79.8892 173.756 79.9247C173.764 79.9602 173.759 79.9975 173.741 80.0294C173.724 80.0606 173.696 80.0839 173.662 80.0944C173.628 80.105 173.591 80.1019 173.559 80.0859C173.452 80.0365 173.35 79.9779 173.253 79.9108C172.844 79.6899 172.404 79.5319 171.947 79.4421C171.76 79.4011 171.567 79.4011 171.38 79.4421C171.3 79.4548 171.225 79.4867 171.161 79.5349C171.096 79.5831 171.045 79.6463 171.011 79.7188C170.99 79.8284 170.994 79.9414 171.024 80.049C171.053 80.1566 171.107 80.2562 171.181 80.34C171.345 80.5978 171.535 80.8381 171.749 81.0572C171.857 81.1589 171.936 81.2041 171.993 81.1928C172.011 81.1887 172.03 81.1884 172.048 81.192C172.067 81.1955 172.084 81.2028 172.1 81.2134C172.115 81.224 172.128 81.2377 172.138 81.2536C172.148 81.2695 172.155 81.2872 172.157 81.3057C172.164 81.3424 172.156 81.3802 172.135 81.4109C172.113 81.4415 172.081 81.4626 172.044 81.4695L172.01 81.4638Z" fill="#263238"/>
<path id="Vector_14" opacity="0.1" d="M173.105 78.2617C173.084 78.2616 173.062 78.2571 173.043 78.2483C173.023 78.2396 173.006 78.2268 172.992 78.2109C172.848 78.0246 172.761 77.8011 172.742 77.5671C172.726 77.3969 172.762 77.2259 172.844 77.0758C172.89 76.9936 172.956 76.9236 173.035 76.8715C173.114 76.8195 173.204 76.7869 173.298 76.7765C173.335 76.7748 173.372 76.7873 173.4 76.8114C173.429 76.8355 173.447 76.8695 173.451 76.9064C173.453 76.9435 173.441 76.9799 173.416 77.0082C173.392 77.0365 173.358 77.0546 173.321 77.0589C173.272 77.0643 173.225 77.0816 173.185 77.1091C173.144 77.1367 173.111 77.1737 173.088 77.217C173.036 77.32 173.014 77.4355 173.026 77.5502C173.038 77.7279 173.106 77.8975 173.219 78.0359C173.243 78.0629 173.257 78.0981 173.257 78.1347C173.257 78.1712 173.243 78.2065 173.219 78.2335C173.185 78.256 173.145 78.266 173.105 78.2617Z" fill="#263238"/>
<path id="Vector_15" opacity="0.1" d="M176.904 78.0418C176.879 78.0476 176.854 78.0476 176.83 78.0418C176.173 77.6132 175.473 77.2536 174.741 76.9689C174.707 76.955 174.679 76.9284 174.664 76.8946C174.649 76.8608 174.648 76.8226 174.661 76.7881C174.668 76.7707 174.677 76.7548 174.69 76.7413C174.703 76.7278 174.718 76.717 174.735 76.7096C174.752 76.7022 174.771 76.6983 174.789 76.6982C174.808 76.6982 174.826 76.7018 174.843 76.7091C175.592 76.9969 176.308 77.3642 176.978 77.8046C176.994 77.8139 177.008 77.8263 177.019 77.8411C177.03 77.856 177.038 77.8729 177.042 77.8909C177.046 77.9089 177.047 77.9275 177.043 77.9457C177.04 77.9639 177.033 77.9812 177.023 77.9966C177.008 78.0129 176.989 78.0255 176.969 78.0333C176.948 78.0412 176.926 78.0441 176.904 78.0418Z" fill="#263238"/>
<path id="Vector_16" d="M89.6433 151.896L84.2676 163.558L89.1835 166.235L96.4949 154.454L89.6433 151.896Z" fill="#E9B376"/>
<path id="Vector_17" d="M85.3575 162.982C85.6811 163.936 87.1513 164.614 88.0596 164.461L88.5818 163.552C89.1211 162.835 89.5979 162.62 90.3813 163.179C90.7673 163.45 91.0114 164.224 90.949 165.15C90.8537 166.024 90.9585 166.909 91.2555 167.737C91.2555 167.737 93.9916 171.605 95.1156 172.74C95.7854 173.412 96.6539 174.361 96.7674 175.524C96.7997 175.901 96.7864 176.28 96.7277 176.654C96.6378 176.997 96.5043 177.327 96.3303 177.636L86.8391 172.52C86.5553 172.03 86.1885 171.592 85.7549 171.227C85.5295 171.123 85.2816 171.077 85.0338 171.093C84.786 171.109 84.5461 171.186 84.3358 171.317L80.873 169.482L81.4407 168.092C81.5883 167.725 81.7529 167.302 81.9289 166.856C82.6839 164.941 84.0746 162.903 84.2903 162.383C84.6536 161.417 85.3575 162.982 85.3575 162.982Z" fill="#263238"/>
<path id="Vector_18" d="M92.7775 169.736C92.7663 169.705 92.7451 169.679 92.7174 169.661C92.6896 169.644 92.6568 169.636 92.6242 169.64C92.3151 169.658 92.0168 169.759 91.7614 169.933C91.6251 170.029 91.7614 170.261 91.9033 170.165C92.1286 170.011 92.3914 169.922 92.6639 169.905C92.684 169.905 92.7037 169.899 92.7213 169.89C92.7389 169.88 92.7539 169.866 92.7651 169.85C92.7762 169.833 92.7831 169.814 92.7853 169.794C92.7875 169.774 92.7848 169.754 92.7775 169.736Z" fill="#5570F1"/>
<path id="Vector_19" d="M92.2599 168.962C92.2487 168.931 92.2276 168.905 92.1998 168.888C92.1721 168.87 92.1393 168.863 92.1066 168.866C91.7973 168.887 91.4994 168.991 91.2438 169.165C91.1076 169.256 91.2438 169.493 91.3857 169.397C91.6118 169.244 91.8739 169.153 92.1464 169.131C92.1658 169.131 92.1847 169.125 92.2017 169.116C92.2187 169.107 92.2333 169.094 92.2443 169.078C92.2554 169.062 92.2625 169.044 92.2652 169.025C92.2679 169.005 92.2661 168.986 92.2599 168.968V168.962Z" fill="#5570F1"/>
<path id="Vector_20" d="M91.704 168.172C91.6907 168.143 91.6691 168.118 91.6418 168.101C91.6146 168.084 91.5829 168.075 91.5507 168.076C91.2471 168.108 90.9573 168.219 90.7106 168.398C90.5743 168.488 90.7106 168.725 90.8525 168.629C91.0778 168.476 91.3407 168.386 91.6132 168.369C91.6328 168.368 91.6518 168.362 91.6687 168.352C91.6857 168.342 91.7002 168.328 91.7111 168.312C91.722 168.296 91.7291 168.277 91.7318 168.258C91.7345 168.238 91.7327 168.219 91.7267 168.2L91.704 168.172Z" fill="#5570F1"/>
<path id="Vector_21" opacity="0.2" d="M96.7632 176.128C96.7632 176.298 96.7632 176.478 96.7178 176.665C96.6241 177.007 96.4887 177.337 96.3147 177.647L86.8235 172.531C86.5397 172.041 86.1729 171.603 85.7393 171.238C85.5138 171.134 85.266 171.088 85.0182 171.104C84.7704 171.12 84.5305 171.197 84.3201 171.328L80.8574 169.493L81.4251 168.103L81.5046 167.9L96.7632 176.128Z" fill="white"/>
<path id="Vector_22" d="M91.3164 168.425L91.4243 168.177C91.5679 167.824 91.7406 167.484 91.9408 167.16C92.1547 166.819 92.4565 166.54 92.815 166.353C92.9098 166.295 93.0179 166.261 93.1292 166.257C93.2405 166.252 93.3512 166.275 93.4508 166.325C93.5466 166.397 93.6195 166.495 93.6608 166.607C93.7021 166.719 93.71 166.841 93.6835 166.957C93.6499 167.149 93.5778 167.333 93.4715 167.497C93.3652 167.661 93.2269 167.802 93.0648 167.912C92.5947 168.138 92.0935 168.294 91.5775 168.375L91.3164 168.425ZM93.1897 166.539C93.1023 166.542 93.0168 166.566 92.9399 166.607C92.628 166.771 92.3655 167.015 92.1792 167.313C92.0327 167.546 91.9037 167.79 91.7932 168.041C92.1882 167.98 92.5712 167.858 92.9286 167.68C93.0592 167.592 93.1712 167.48 93.2579 167.349C93.3446 167.218 93.4044 167.072 93.4338 166.918C93.4338 166.793 93.4338 166.63 93.3316 166.568C93.2895 166.541 93.2389 166.531 93.1897 166.539Z" fill="#5570F1"/>
<path id="Vector_23" d="M91.6296 168.493L91.4253 168.324C91.0102 168.006 90.6482 167.624 90.3524 167.194C90.2622 167.021 90.2081 166.832 90.1935 166.638C90.1789 166.444 90.204 166.249 90.2672 166.065C90.3021 165.951 90.3686 165.849 90.4589 165.771C90.5493 165.693 90.6599 165.642 90.7781 165.624C90.8928 165.627 91.005 165.658 91.1042 165.716C91.2034 165.773 91.2865 165.854 91.3458 165.952C91.5678 166.289 91.6952 166.679 91.7148 167.081C91.7366 167.458 91.7252 167.836 91.6807 168.211L91.6296 168.493ZM90.8008 165.912C90.6816 165.912 90.5851 166.053 90.5454 166.172C90.4935 166.32 90.4732 166.478 90.4859 166.634C90.4986 166.791 90.544 166.943 90.6192 167.081C90.8353 167.404 91.1017 167.689 91.4082 167.928C91.4309 167.654 91.4309 167.378 91.4082 167.104C91.3894 166.754 91.2778 166.415 91.0847 166.121C91.0336 166.042 90.9257 165.912 90.8008 165.912Z" fill="#5570F1"/>
<path id="Vector_24" d="M141.833 124.451L136.463 136.112L141.373 138.789L148.685 127.009L141.833 124.451Z" fill="#E9B376"/>
<path id="Vector_25" d="M137.549 135.536C137.878 136.491 139.343 137.168 140.251 137.016L140.773 136.107C141.313 135.389 141.795 135.175 142.573 135.734C142.959 136.005 143.203 136.779 143.14 137.705C143.045 138.577 143.149 139.46 143.447 140.286C143.447 140.286 146.189 144.16 147.307 145.295C147.977 145.967 148.845 146.915 148.959 148.079C148.99 148.455 148.979 148.834 148.925 149.208C148.829 149.55 148.694 149.88 148.522 150.191L139.031 145.074C138.747 144.584 138.38 144.147 137.946 143.781C137.721 143.678 137.473 143.632 137.225 143.648C136.977 143.663 136.738 143.74 136.527 143.872L133.064 142.036L133.632 140.647C133.78 140.28 133.944 139.856 134.12 139.41C134.875 137.49 136.266 135.457 136.487 134.938C136.845 133.949 137.549 135.536 137.549 135.536Z" fill="#263238"/>
<path id="Vector_26" d="M144.968 142.284C144.955 142.256 144.935 142.231 144.909 142.214C144.882 142.197 144.852 142.188 144.82 142.188C144.511 142.208 144.212 142.312 143.957 142.488C143.815 142.584 143.957 142.815 144.094 142.719C144.32 142.568 144.582 142.478 144.854 142.46C144.874 142.459 144.894 142.453 144.912 142.444C144.929 142.434 144.945 142.421 144.956 142.404C144.968 142.388 144.975 142.369 144.978 142.349C144.981 142.329 144.98 142.309 144.973 142.29L144.968 142.284Z" fill="#5570F1"/>
<path id="Vector_27" d="M144.451 141.5C144.44 141.469 144.419 141.443 144.391 141.425C144.363 141.408 144.331 141.4 144.298 141.404C143.99 141.426 143.693 141.527 143.435 141.697C143.299 141.793 143.435 142.03 143.577 141.934C143.802 141.779 144.065 141.688 144.338 141.669C144.357 141.668 144.376 141.663 144.393 141.654C144.41 141.644 144.425 141.631 144.436 141.615C144.447 141.599 144.454 141.581 144.457 141.562C144.459 141.543 144.457 141.523 144.451 141.505V141.5Z" fill="#5570F1"/>
<path id="Vector_28" d="M143.895 140.726C143.882 140.696 143.861 140.671 143.833 140.654C143.806 140.637 143.774 140.629 143.741 140.63C143.432 140.652 143.135 140.755 142.879 140.929C142.742 141.02 142.879 141.257 143.02 141.161C143.246 141.007 143.509 140.918 143.781 140.901C143.801 140.9 143.82 140.894 143.837 140.884C143.854 140.874 143.868 140.86 143.879 140.844C143.89 140.827 143.897 140.809 143.9 140.789C143.902 140.77 143.901 140.75 143.895 140.732V140.726Z" fill="#5570F1"/>
<path id="Vector_29" opacity="0.2" d="M148.953 148.683C148.949 148.872 148.934 149.06 148.907 149.248C148.818 149.592 148.682 149.922 148.504 150.23L139.013 145.114C138.73 144.625 138.365 144.188 137.934 143.821C137.709 143.717 137.461 143.67 137.213 143.686C136.965 143.702 136.725 143.779 136.515 143.911L133.047 142.076L133.615 140.686L133.7 140.483L148.953 148.683Z" fill="white"/>
<path id="Vector_30" d="M143.502 140.98L143.61 140.731C143.754 140.377 143.929 140.035 144.132 139.709C144.344 139.369 144.644 139.092 145.001 138.907C145.098 138.853 145.207 138.825 145.318 138.825C145.43 138.825 145.539 138.853 145.636 138.907C145.733 138.979 145.806 139.077 145.847 139.189C145.889 139.302 145.896 139.423 145.869 139.54C145.835 139.732 145.763 139.916 145.657 140.08C145.551 140.243 145.412 140.385 145.25 140.494C144.783 140.724 144.284 140.88 143.769 140.957L143.502 140.98ZM145.375 139.088C145.287 139.093 145.202 139.118 145.125 139.162C144.812 139.324 144.549 139.568 144.365 139.867C144.218 140.1 144.089 140.344 143.979 140.596C144.363 140.529 144.736 140.408 145.086 140.235C145.217 140.147 145.329 140.035 145.415 139.904C145.502 139.773 145.562 139.626 145.591 139.472C145.591 139.348 145.591 139.184 145.489 139.122C145.457 139.101 145.419 139.089 145.381 139.088H145.375Z" fill="#5570F1"/>
<path id="Vector_31" d="M143.821 141.048L143.617 140.879C143.201 140.561 142.839 140.18 142.544 139.749C142.455 139.576 142.402 139.387 142.387 139.193C142.372 138.999 142.397 138.804 142.459 138.62C142.488 138.509 142.55 138.409 142.637 138.334C142.725 138.259 142.833 138.213 142.947 138.2C143.062 138.188 143.178 138.211 143.279 138.265C143.38 138.32 143.462 138.404 143.515 138.507C143.737 138.844 143.867 139.233 143.889 139.636C143.906 140.013 143.893 140.391 143.849 140.766L143.821 141.048ZM142.992 138.467C142.867 138.467 142.777 138.608 142.731 138.727C142.682 138.876 142.663 139.033 142.676 139.189C142.688 139.345 142.732 139.497 142.805 139.636C143.023 139.957 143.289 140.243 143.594 140.483C143.617 140.209 143.617 139.933 143.594 139.659C143.575 139.309 143.464 138.969 143.27 138.676C143.236 138.614 143.123 138.467 142.992 138.467Z" fill="#5570F1"/>
<path id="Vector_32" d="M111.072 87.2185C111.072 87.2185 109.76 93.3232 111.679 98.6711L104.135 125.778C104.135 125.778 84.3293 160 84.9253 160.147C85.5213 160.294 95.1431 166.009 95.1431 166.009C95.1431 166.009 114.364 136.344 117.151 132.396C119.938 128.449 131.405 98.225 131.405 98.225L111.072 87.2185Z" fill="#263238"/>
<path id="Vector_33" opacity="0.3" d="M118.527 89.7141C118.158 90.8097 115.478 93.814 115.07 95.0677C114.95 95.4348 112.021 93.8366 111.896 94.2206C114.258 97.5073 123.136 101.935 129.125 104.674C130.067 102.364 130.317 101.353 131.078 99.3709C132.258 96.4004 133.547 94.0681 134.217 92.357C128.869 91.2163 122.96 90.3184 118.527 89.7141Z" fill="black"/>
<path id="Vector_34" d="M165.239 95.243C157.808 91.465 137.464 86.2526 137.464 86.2526L138.315 80.227L114.405 75.5342C113.244 78.2354 112.295 81.0222 111.567 83.8695C108.235 98.1965 122.92 99.9302 125.832 100.117L152.399 104.826L138.366 130.352L148.198 134.119C148.198 134.119 160.913 115.048 167.004 104.826C169.36 100.834 167.26 96.2708 165.239 95.243Z" fill="#263238"/>
<path id="Vector_35" opacity="0.3" d="M132.939 81.4978L122.721 79.5326L123.118 77.9175L133.302 79.8827L132.939 81.4978Z" fill="white"/>
<path id="Vector_36" opacity="0.3" d="M134.075 80.0354L138.225 80.8655L137.992 82.5145L133.746 81.6505L134.075 80.0354Z" fill="white"/>
<path id="Vector_37" opacity="0.3" d="M115.314 76.4097L122.341 77.765L121.927 79.3688L114.928 78.0248L115.314 76.4097Z" fill="white"/>
<g id="Group" opacity="0.3">
<path id="Vector_38" d="M114.205 77.8609L113.535 77.6915L114.143 76.1611L114.608 76.2458L114.205 77.8609Z" fill="white"/>
</g>
<path id="Vector_39" opacity="0.3" d="M137.48 86.1964L125.457 82.7234C125.701 82.7968 133.308 84.4176 137.622 85.1799L137.48 86.1964Z" fill="black"/>
<path id="Vector_40" opacity="0.3" d="M152.455 104.539L158.921 102.483C158.921 102.483 154.453 106.583 151.008 107.176L152.455 104.539Z" fill="black"/>
<path id="Vector_41" d="M114.087 40.77C113.627 40.77 98.3289 51.5506 96.1775 54.137C94.0261 56.7234 89.7402 75.8902 89.7402 75.8902L95.4792 77.3133L102.478 58.9654L115.535 52.3412C115.535 52.3412 118.668 46.4003 118.753 46.1292C118.838 45.8582 114.087 40.77 114.087 40.77Z" fill="#5570F1"/>
<path id="Vector_42" opacity="0.7" d="M114.087 40.77C113.627 40.77 98.3289 51.5506 96.1775 54.137C94.0261 56.7234 89.7402 75.8902 89.7402 75.8902L95.4792 77.3133L102.478 58.9654L115.535 52.3412C115.535 52.3412 118.668 46.4003 118.753 46.1292C118.838 45.8582 114.087 40.77 114.087 40.77Z" fill="white"/>
<path id="Vector_43" d="M169.677 73.5241L151.722 61.1849C151.722 61.1849 145.773 44.3109 143.928 41.6454C141.533 38.1837 136.969 37.9521 136.969 37.9521L139.739 52.3695C139.739 52.3695 141.345 58.1297 142.884 62.2691C144.468 66.5159 145.081 68.8256 148.969 71.124C152.341 73.1175 166.742 78.4654 166.742 78.4654C166.493 78.3581 169.677 73.5241 169.677 73.5241Z" fill="#5570F1"/>
<path id="Vector_44" opacity="0.7" d="M169.677 73.5241L151.722 61.1849C151.722 61.1849 145.773 44.3109 143.928 41.6454C141.533 38.1837 136.969 37.9521 136.969 37.9521L139.739 52.3695C139.739 52.3695 141.345 58.1297 142.884 62.2691C144.468 66.5159 145.081 68.8256 148.969 71.124C152.341 73.1175 166.742 78.4654 166.742 78.4654C166.493 78.3581 169.677 73.5241 169.677 73.5241Z" fill="white"/>
<path id="Vector_45" d="M113.106 75.269C113.106 75.269 111.88 75.19 112.323 74.0888C112.747 73.2631 113.35 72.5417 114.088 71.9767L115.087 64.8668L114.088 40.7701L118.562 39.6407L123.483 38.5112L125.583 36.625L131.26 36.3596L134.047 37.8957H136.976C136.976 37.9408 142.732 50.9634 141.291 61.3599C139.849 71.7565 138.816 78.3016 138.571 78.9906C138.078 80.3346 136.999 79.9111 136.999 79.9111L113.106 75.269Z" fill="#5570F1"/>
<path id="Vector_46" opacity="0.7" d="M113.106 75.269C113.106 75.269 111.88 75.19 112.323 74.0888C112.747 73.2631 113.35 72.5417 114.088 71.9767L115.087 64.8668L114.588 52.8326L114.088 40.7701L118.562 39.6407L123.483 38.5112L125.583 36.625L131.112 36.3596L134.064 37.8957H136.993C136.993 37.9408 142.749 50.9634 141.308 61.3599C139.866 71.7565 138.833 78.3016 138.588 78.9906C138.095 80.3346 137.016 79.9111 137.016 79.9111L113.106 75.269Z" fill="white"/>
<path id="Vector_47" opacity="0.1" d="M128.51 77.9064C128.491 77.905 128.473 77.8999 128.456 77.8915C128.44 77.883 128.425 77.8714 128.413 77.8572C128.401 77.843 128.391 77.8266 128.386 77.8089C128.38 77.7912 128.378 77.7725 128.379 77.754C129.582 66.1563 129.822 54.4796 129.095 42.8428C129.093 42.8062 129.106 42.7705 129.13 42.7431C129.154 42.7157 129.189 42.6988 129.225 42.6959C129.244 42.6935 129.263 42.6951 129.28 42.7005C129.298 42.7059 129.315 42.7151 129.329 42.7274C129.343 42.7397 129.354 42.7549 129.362 42.7719C129.369 42.7888 129.373 42.8072 129.373 42.8258C130.105 54.4775 129.867 66.1694 128.663 77.7822C128.662 77.8005 128.657 77.8184 128.648 77.8347C128.64 77.851 128.628 77.8655 128.613 77.8771C128.599 77.8887 128.583 77.8973 128.565 77.9024C128.547 77.9074 128.528 77.9088 128.51 77.9064Z" fill="#263238"/>
<path id="Vector_48" opacity="0.2" d="M116.006 56.3168L116.165 60.0666C116.165 60.0666 126.053 52.8042 128.012 50.3759C130.544 47.2473 130.737 45.5193 130.737 45.5193L116.006 56.3168Z" fill="black"/>
<path id="Vector_49" d="M128.369 43.8872L129.538 45.7112C129.538 45.7112 112.736 58.0561 97.057 59.1008L96.0977 64.4149L101.496 65.3975C101.496 65.3975 125.338 56.2659 130.935 45.8242L132.609 43.3281L130.821 41.7808L130.254 42.1422L128.369 43.8872Z" fill="#5570F1"/>
<path id="Vector_50" opacity="0.2" d="M141.533 58.2145C141.533 58.2145 142.055 50.8731 142.158 47.1064C142.499 49.0237 142.736 50.9578 142.867 52.9005C143.02 55.4248 142.254 60.5807 142.254 60.5807L141.533 58.2145Z" fill="black"/>
<path id="Vector_51" opacity="0.2" d="M123.748 38.8384C123.975 39.2619 127.614 43.8757 127.614 43.8757L130.549 41.8371C130.549 41.8371 128 44.6211 127.983 44.6607L127.228 44.7341L123.748 38.8384Z" fill="black"/>
<path id="Vector_52" opacity="0.2" d="M130.822 41.781L133.013 42.7354C133.425 41.8223 133.763 40.8781 134.024 39.9117C134.069 39.3131 134.024 38.2966 134.024 38.2966H134.319C134.456 39.2668 134.392 40.2546 134.132 41.1993C133.672 42.5038 133.121 43.7632 133.121 43.7632L130.822 41.781Z" fill="black"/>
<path id="Vector_53" opacity="0.2" d="M151.722 61.1733C151.886 62.348 151.154 63.9348 150.535 64.9457C151.279 64.669 152.119 64.3358 152.477 63.6355C152.834 62.9353 153.101 62.8845 153.044 62.0995L151.722 61.1733Z" fill="black"/>
<path id="Vector_54" d="M123.748 26.9341C123.748 26.9341 118.741 23.0601 118.894 21.6934C119.047 20.3268 119.842 20.7165 119.842 20.7165C119.842 20.7165 118.031 17.4976 119.655 16.8707C121.278 16.2439 121.42 16.786 121.42 16.786C121.42 16.786 120.659 14.1318 121.931 13.2734C122.902 12.6127 123.379 13.8381 123.379 13.8381C123.379 13.8381 125.155 10.8282 127.432 10.7773C128.567 10.8169 129.135 11.5171 129.021 12.3868V12.4998C129.021 12.4998 133.528 10.3199 135.714 11.4832C137.899 12.6466 135.174 14.1318 135.174 14.1318C135.174 14.1318 139.631 13.4824 140.579 15.2612C141.334 16.6561 139.381 17.6952 139.381 17.6952C139.87 17.8548 140.326 18.1016 140.726 18.4237C140.989 18.6484 141.18 18.9448 141.275 19.2762C141.37 19.6076 141.365 19.9595 141.261 20.2883C141.157 20.617 140.959 20.9083 140.69 21.1259C140.421 21.3436 140.094 21.478 139.75 21.5127H139.71C139.477 21.5127 139.052 21.5974 138.87 21.4393C138.87 21.4393 139.704 23.0205 138.07 23.6079C136.435 24.1952 135.572 22.3146 135.572 22.3146L123.748 26.9341Z" fill="#263238"/>
<path id="Vector_55" d="M125.706 37.3475C125.706 37.3475 125.877 35.0152 124.003 29.4414C124.003 29.4414 124.299 29.2889 124.299 29.2833C124.032 28.504 123.759 27.7868 123.504 27.1599L131.451 31.5986C131.343 33.4114 132.149 36.8732 132.586 38.3301L130.713 41.8032L125.706 37.3475Z" fill="#E9B376"/>
<path id="Vector_56" opacity="0.2" d="M131.7 34.1059L127.188 33.2983C127.653 34.665 128.953 36.2462 132.069 36.2462C131.887 35.5441 131.764 34.8282 131.7 34.1059Z" fill="black"/>
<path id="Vector_57" d="M136.236 18.0005C137.229 19.7455 137.723 23.6477 134.828 22.9644C131.933 22.2811 134.533 14.9961 136.236 18.0005Z" fill="#263238"/>
<path id="Vector_58" d="M123.259 23.3878C123.997 28.2613 124.315 31.0228 127.028 33.2987C131.11 36.7209 136.86 34.0046 137.604 28.9955C138.274 24.4777 136.957 17.2775 131.956 15.7979C130.847 15.4638 129.672 15.4162 128.54 15.6596C127.409 15.9031 126.358 16.4294 125.488 17.1891C124.617 17.9487 123.956 18.9165 123.566 20.0011C123.176 21.0857 123.07 22.2513 123.259 23.3878Z" fill="#E9B376"/>
<path id="Vector_59" d="M130.446 24.1838C130.491 24.6865 130.792 25.0648 131.121 25.0309C131.45 24.9971 131.689 24.5679 131.638 24.0653C131.587 23.5627 131.292 23.1843 130.962 23.2182C130.633 23.2521 130.389 23.6812 130.446 24.1838Z" fill="#263238"/>
<path id="Vector_60" d="M135.385 23.8285C135.43 24.3311 135.737 24.7151 136.066 24.6812C136.395 24.6473 136.633 24.2181 136.582 23.7155C136.531 23.2129 136.23 22.8346 135.901 22.8628C135.572 22.891 135.339 23.3485 135.385 23.8285Z" fill="#263238"/>
<path id="Vector_61" d="M133.756 23.7097C133.756 23.7097 135.572 26.0646 136.174 27.0303C135.527 27.7249 134.289 27.5385 134.289 27.5385L133.756 23.7097Z" fill="#D58745"/>
<path id="Vector_62" d="M129.102 21.5353C129.143 21.5446 129.186 21.5427 129.226 21.5297C129.265 21.5168 129.301 21.4934 129.329 21.4619C129.523 21.2373 129.768 21.0607 130.043 20.946C130.317 20.8313 130.615 20.7817 130.913 20.8011C130.975 20.8094 131.038 20.7935 131.089 20.7566C131.139 20.7198 131.174 20.665 131.185 20.6035C131.191 20.5729 131.19 20.5416 131.183 20.5113C131.176 20.4811 131.163 20.4526 131.144 20.4277C131.125 20.4028 131.102 20.382 131.075 20.3666C131.047 20.3511 131.017 20.3414 130.986 20.3381C130.611 20.304 130.232 20.36 129.882 20.5015C129.533 20.643 129.222 20.8658 128.977 21.1513C128.933 21.1957 128.908 21.2555 128.908 21.3179C128.908 21.3802 128.933 21.4401 128.977 21.4845C129.012 21.5146 129.056 21.5325 129.102 21.5353Z" fill="#263238"/>
<path id="Vector_63" d="M137.399 21.4902C137.443 21.4763 137.481 21.4485 137.507 21.4112C137.544 21.3605 137.56 21.2976 137.552 21.2355C137.543 21.1734 137.511 21.117 137.462 21.078C137.167 20.8487 136.822 20.6935 136.454 20.6256C136.086 20.5578 135.708 20.5793 135.35 20.6883C135.321 20.699 135.293 20.7154 135.27 20.7366C135.247 20.7577 135.229 20.7832 135.215 20.8115C135.202 20.8398 135.195 20.8705 135.194 20.9017C135.192 20.9329 135.197 20.964 135.208 20.9933C135.219 21.0219 135.235 21.0481 135.256 21.0704C135.277 21.0928 135.302 21.1107 135.33 21.1233C135.358 21.1359 135.388 21.1429 135.419 21.1438C135.45 21.1448 135.48 21.1397 135.509 21.1288C135.793 21.045 136.094 21.0316 136.385 21.0896C136.676 21.1477 136.948 21.2755 137.178 21.462C137.21 21.4843 137.246 21.4986 137.285 21.5035C137.324 21.5084 137.363 21.5039 137.399 21.4902Z" fill="#263238"/>
<path id="Vector_64" d="M133.682 28.9503C132.876 28.7301 131.411 28.2614 130.651 27.5498C130.568 27.7299 130.509 27.9196 130.475 28.1145C130.402 28.4491 130.414 28.7964 130.509 29.1254C130.713 29.7974 131.338 30.5033 132.961 30.8817H132.99C132.99 30.8817 133.864 31.068 134.216 29.0859C134.233 29.0859 134.017 29.0407 133.682 28.9503Z" fill="#263238"/>
<path id="Vector_65" d="M133.682 28.9505L133.398 29.5152C131.871 29.1538 130.844 28.6964 130.475 28.126C130.509 27.9311 130.568 27.7413 130.651 27.5613C131.394 28.2615 132.876 28.7303 133.682 28.9505Z" fill="white"/>
<path id="Vector_66" d="M132.962 30.8705C131.339 30.4922 130.691 29.7863 130.51 29.1143C131.119 29.2711 131.695 29.5329 132.213 29.8879C132.558 30.1306 132.82 30.4739 132.962 30.8705Z" fill="#DC5753"/>
<path id="Vector_67" d="M124.895 27.1205C125.334 26.9095 125.704 26.5785 125.962 26.1661C126.13 25.7462 126.168 25.2859 126.07 24.8446C126.01 24.381 125.925 23.9209 125.814 23.4667C126.263 23.67 126.779 23.2973 127.001 22.8625C127.275 22.1795 127.344 21.4321 127.199 20.7109C127.483 20.761 127.775 20.7352 128.046 20.6359C128.316 20.5367 128.555 20.3676 128.738 20.1461C128.915 19.921 129.007 19.6415 128.999 19.3558C128.99 19.0702 128.882 18.7964 128.692 18.5819C130.525 18.7484 132.372 18.5566 134.131 18.0171C134.017 18.243 134.17 18.5141 134.335 18.7117C135.013 19.5137 135.965 20.0385 137.009 20.1857C137.162 20.1857 137.349 20.1857 137.429 20.0727C137.464 19.9989 137.474 19.9156 137.457 19.8355C137.308 18.8393 136.772 17.9411 135.964 17.3338C135.153 16.7479 134.247 16.3047 133.285 16.0237C131.717 15.4605 130.073 15.1368 128.409 15.0636C126.74 14.9913 125.08 15.3472 123.589 16.0971C123.257 16.2496 122.963 16.4756 122.732 16.7578C122.537 17.0421 122.401 17.363 122.335 17.7009C121.806 19.7272 121.66 21.8335 121.903 23.9128" fill="#263238"/>
<path id="Vector_68" d="M121.675 27.6457C121.914 28.2089 122.263 28.7194 122.701 29.1479C123.139 29.5763 123.659 29.9141 124.229 30.1418C125.767 30.7404 126.71 29.4076 126.437 27.8829C126.187 26.505 125.086 24.5341 123.474 24.5905C121.862 24.647 121.096 26.2395 121.675 27.6457Z" fill="#E9B376"/>
<path id="Vector_69" opacity="0.2" d="M125.06 27.6006C125.028 27.5999 124.997 27.5884 124.972 27.5679C124.947 27.5473 124.93 27.519 124.924 27.4876C124.841 27.0939 124.657 26.7281 124.39 26.4259C124.185 26.1721 123.898 25.9966 123.578 25.929C123.432 25.9015 123.28 25.9179 123.142 25.9762C123.005 26.0345 122.888 26.1321 122.806 26.2565C122.798 26.2735 122.786 26.2885 122.772 26.3006C122.757 26.3128 122.74 26.3218 122.722 26.3271C122.704 26.3324 122.685 26.3339 122.666 26.3315C122.648 26.329 122.63 26.3228 122.613 26.313C122.597 26.3041 122.582 26.2921 122.571 26.2777C122.559 26.2632 122.55 26.2466 122.545 26.2287C122.54 26.2109 122.538 26.1922 122.54 26.1737C122.542 26.1552 122.548 26.1373 122.557 26.121C122.667 25.9456 122.828 25.8071 123.018 25.7235C123.208 25.64 123.419 25.6151 123.624 25.6523C124.006 25.7233 124.353 25.9226 124.606 26.217C124.893 26.5601 125.088 26.97 125.173 27.4086C125.18 27.4459 125.172 27.4844 125.151 27.516C125.13 27.5476 125.097 27.5698 125.06 27.578V27.6006Z" fill="black"/>
</g>
<g id="Hand">
<path id="Vector_70" d="M197.21 145.187L176.429 176.529C168.958 186.13 162.725 194.601 151.452 197.865L111.466 212.869C109.122 213.748 107.046 215.213 105.438 217.123C103.83 219.034 102.744 221.324 102.287 223.774L103.768 231.646H60.8535C60.8535 231.646 61.4212 200.767 64.0438 191.455C66.5017 182.73 72.6267 175.078 85.2003 172.565C95.6566 170.459 135.5 163.004 143.226 162.756C146.513 162.654 147.325 164.924 147.171 165.178L148.994 164.975C148.994 164.975 170.423 146.164 175.106 141.613C178.733 138.089 184.79 140.139 184.79 140.139C184.79 140.139 191.256 134.198 195.876 137.117C195.888 137.095 200.14 140.116 197.21 145.187Z" fill="#DB8C7E"/>
<path id="Vector_71" opacity="0.3" d="M147.171 165.156C149.691 172.316 143.453 176.744 136.187 180.087C128.921 183.43 110.71 189.422 110.71 189.422L110.143 192.613L113.208 190.162C113.208 190.162 128.183 184.881 138.185 180.245C144.543 177.303 146.813 174.914 147.869 172.475C148.732 170.434 148.874 168.162 148.272 166.031L148.045 164.952L147.171 165.156Z" fill="black"/>
<path id="Vector_72" opacity="0.3" d="M184.801 140.116C184.801 140.116 188.859 143.798 185.584 147.734C182.825 151.049 160.295 179.822 160.295 179.822L163.167 177.478C163.167 177.478 186.441 150.168 187.917 147.779C190.091 144.21 186.685 140.076 184.801 140.116Z" fill="black"/>
</g>
</g>
</svg>
