<svg width="17" height="18" viewBox="0 0 17 18" fill="none" xmlns="http://www.w3.org/2000/svg">
<g id="carbon:zoom-area" clip-path="url(#clip0_1873_19539)">
<path id="Vector" d="M16.2882 15.9515L13.854 13.5255C14.5049 12.6911 14.8122 11.6407 14.7134 10.5884C14.6146 9.53603 14.117 8.56078 13.322 7.86123C12.5271 7.16168 11.4945 6.79042 10.4345 6.82305C9.3745 6.85568 8.36685 7.28974 7.61671 8.03685C6.86657 8.78397 6.43034 9.78795 6.39685 10.8444C6.36337 11.9008 6.73514 12.9302 7.43647 13.723C8.13779 14.5159 9.11594 15.0124 10.1717 15.1117C11.2275 15.2109 12.2816 14.9054 13.1193 14.2572L15.554 16.6833L16.2882 15.9515ZM10.5766 14.0958C9.96046 14.0958 9.35813 13.9137 8.84581 13.5725C8.33349 13.2313 7.93418 12.7464 7.69838 12.179C7.46259 11.6116 7.40089 10.9873 7.5211 10.385C7.64131 9.78272 7.93802 9.22946 8.37371 8.79522C8.80941 8.36097 9.36452 8.06525 9.96884 7.94544C10.5732 7.82564 11.1996 7.88713 11.7688 8.12214C12.3381 8.35715 12.8246 8.75512 13.167 9.26574C13.5093 9.77635 13.692 10.3767 13.692 10.9908C13.691 11.814 13.3625 12.6032 12.7785 13.1853C12.1944 13.7674 11.4026 14.0948 10.5766 14.0958ZM4.34585 14.0958H2.26893C1.9936 14.0955 1.72962 13.9864 1.53493 13.7923C1.34024 13.5983 1.23074 13.3352 1.23047 13.0608V10.9908H2.26893V13.0608H4.34585V14.0958ZM1.23047 6.85078H2.26893V8.92078H1.23047V6.85078ZM13.692 4.78078H12.6535V2.71078H10.5766V1.67578H12.6535C12.9289 1.67606 13.1929 1.78519 13.3875 1.97923C13.5822 2.17327 13.6917 2.43637 13.692 2.71078V4.78078ZM6.42278 1.67578H8.4997V2.71078H6.42278V1.67578ZM2.26893 4.78078H1.23047V2.71078C1.23074 2.43637 1.34024 2.17327 1.53493 1.97923C1.72962 1.78519 1.9936 1.67606 2.26893 1.67578H4.34585V2.71078H2.26893V4.78078Z" fill="#FFAD33"/>
</g>
<defs>
<clipPath id="clip0_1873_19539">
<rect width="16.6154" height="16.56" fill="white" transform="translate(0.191406 0.640625)"/>
</clipPath>
</defs>
</svg>
