<svg width="19" height="20" viewBox="0 0 19 20" fill="none" xmlns="http://www.w3.org/2000/svg">
<g id="material-symbols-light:bed">
<path id="Vector" d="M2.80859 14.8823V10.9608C2.80859 10.7286 2.87423 10.4813 3.00552 10.2188C3.1368 9.95632 3.32757 9.7592 3.57782 9.62743V7.82351C3.57782 7.38116 3.72577 7.00913 4.02167 6.70743C4.31757 6.40573 4.68244 6.25488 5.11629 6.25488H8.57782C8.84295 6.25488 9.06936 6.31057 9.25706 6.42194C9.44423 6.53279 9.60244 6.68626 9.73167 6.88233C9.8609 6.68626 10.0191 6.53279 10.2063 6.42194C10.394 6.31057 10.6204 6.25488 10.8855 6.25488H14.3471C14.7809 6.25488 15.1458 6.40573 15.4417 6.70743C15.7376 7.00913 15.8855 7.38116 15.8855 7.82351V9.62743C16.1358 9.7592 16.3265 9.95632 16.4578 10.2188C16.5891 10.4813 16.6547 10.7286 16.6547 10.9608V14.8823H15.8855V13.3137H3.57782V14.8823H2.80859ZM10.1163 9.39214H15.1163V7.82351C15.1163 7.60129 15.0424 7.41514 14.8947 7.26508C14.7471 7.11501 14.5645 7.03972 14.3471 7.0392H10.8855C10.6676 7.0392 10.485 7.11449 10.3378 7.26508C10.1906 7.41567 10.1168 7.60181 10.1163 7.82351V9.39214ZM4.34706 9.39214H9.34705V7.82351C9.34705 7.60129 9.27321 7.41514 9.12552 7.26508C8.97782 7.11501 8.79526 7.03972 8.57782 7.0392H5.11629C4.89834 7.0392 4.71577 7.11449 4.56859 7.26508C4.42141 7.41567 4.34757 7.60181 4.34706 7.82351V9.39214Z" fill="#FFAD33"/>
</g>
</svg>
