<svg width="50" height="50" viewBox="0 0 50 50" fill="none" xmlns="http://www.w3.org/2000/svg">
<g id="bi:quote">
<path id="Vector" d="M37.5006 37.5C38.3294 37.5 39.1242 37.1708 39.7103 36.5847C40.2963 35.9987 40.6256 35.2038 40.6256 34.375V26.7437C40.6256 25.9149 40.2963 25.1201 39.7103 24.534C39.1242 23.948 38.3294 23.6188 37.5006 23.6188H33.1631C33.1631 22.5208 33.2277 21.4229 33.3568 20.325C33.5506 19.1625 33.8735 18.1292 34.3256 17.225C34.7777 16.3208 35.3599 15.6094 36.0724 15.0906C36.7808 14.5094 37.6849 14.2188 38.7849 14.2188V9.375C36.9766 9.375 35.3933 9.7625 34.0349 10.5375C32.686 11.3027 31.527 12.3624 30.6443 13.6375C29.7556 15.0411 29.1012 16.58 28.7068 18.1938C28.308 19.9742 28.113 21.7942 28.1256 23.6188V34.375C28.1256 35.2038 28.4548 35.9987 29.0409 36.5847C29.6269 37.1708 30.4218 37.5 31.2506 37.5H37.5006ZM18.7506 37.5C19.5794 37.5 20.3742 37.1708 20.9603 36.5847C21.5463 35.9987 21.8756 35.2038 21.8756 34.375V26.7437C21.8756 25.9149 21.5463 25.1201 20.9603 24.534C20.3742 23.948 19.5794 23.6188 18.7506 23.6188H14.4131C14.4131 22.5208 14.4777 21.4229 14.6068 20.325C14.8027 19.1625 15.1256 18.1292 15.5756 17.225C16.0277 16.3208 16.6099 15.6094 17.3224 15.0906C18.0308 14.5094 18.9349 14.2188 20.0349 14.2188V9.375C18.2266 9.375 16.6433 9.7625 15.2849 10.5375C13.936 11.3027 12.777 12.3624 11.8943 13.6375C11.0056 15.0411 10.3512 16.58 9.95682 18.1938C9.55802 19.9742 9.36301 21.7942 9.37557 23.6188V34.375C9.37557 35.2038 9.70481 35.9987 10.2909 36.5847C10.8769 37.1708 11.6718 37.5 12.5006 37.5H18.7506Z" fill="#FFAD33"/>
</g>
</svg>
