<svg width="21" height="21" viewBox="0 0 21 21" fill="none" xmlns="http://www.w3.org/2000/svg">
<g id="bx:bath">
<path id="Vector" d="M17.9232 9.09798H6.25651V6.59798C6.25651 5.67882 7.00401 4.93132 7.92318 4.93132C8.84234 4.93132 9.58984 5.67882 9.58984 6.59798H11.2565C11.2565 4.75965 9.76151 3.26465 7.92318 3.26465C6.08484 3.26465 4.58984 4.75965 4.58984 6.59798V9.09798H2.92318C2.70216 9.09798 2.4902 9.18578 2.33392 9.34206C2.17764 9.49834 2.08984 9.7103 2.08984 9.93131V11.598C2.08984 13.7696 3.48484 15.6171 5.42318 16.3063V19.098H7.08984V16.598H13.7565V19.098H15.4232V16.3063C17.3615 15.6171 18.7565 13.7696 18.7565 11.598V9.93131C18.7565 9.7103 18.6687 9.49834 18.5124 9.34206C18.3562 9.18578 18.1442 9.09798 17.9232 9.09798ZM17.0898 11.598C17.0898 13.4363 15.5948 14.9313 13.7565 14.9313H7.08984C5.25151 14.9313 3.75651 13.4363 3.75651 11.598V10.7646H17.0898V11.598Z" fill="#FFAD33"/>
</g>
</svg>
