<svg width="42" height="40" viewBox="0 0 42 40" fill="none" xmlns="http://www.w3.org/2000/svg">
<g id="mdi:customer-service">
<path id="Vector" d="M32.4793 24.5998C33.0773 23.1832 33.4018 21.6665 33.4018 19.9998C33.4018 18.7998 33.2139 17.6498 32.8893 16.5832C31.7789 16.8332 30.6173 16.9665 29.4044 16.9665C26.9204 16.9691 24.4722 16.389 22.2661 15.2752C20.0601 14.1614 18.1608 12.5464 16.7285 10.5665C15.1963 14.1835 12.3059 17.0928 8.6481 18.6998C8.57977 19.1165 8.57977 19.5665 8.57977 19.9998C8.57977 21.591 8.90101 23.1666 9.52515 24.6367C10.1493 26.1067 11.0641 27.4425 12.2174 28.5676C14.5465 30.8399 17.7055 32.1165 20.9993 32.1165C22.7931 32.1165 24.5185 31.7332 26.0731 31.0498C27.0469 32.8665 27.491 33.7665 27.4568 33.7665C24.6552 34.6832 22.4856 35.1332 20.9993 35.1332C16.8652 35.1332 12.9189 33.5498 10.0148 30.6998C8.24834 28.9818 6.93527 26.8715 6.1881 24.5498H3.91602V16.9665H5.7781C6.34226 14.2874 7.63932 11.8072 9.53163 9.78915C11.4239 7.77112 13.8409 6.29051 16.5261 5.50443C19.2113 4.71835 22.0646 4.65612 24.7831 5.32434C27.5016 5.99257 29.984 7.36632 31.9669 9.29983C34.1197 11.3919 35.5882 14.06 36.1864 16.9665H38.0827V24.5498H37.9802L31.8985 29.9998L22.8443 28.9998V26.2165H31.0956L32.4793 24.5998ZM16.3356 19.6165C16.8481 19.6165 17.3435 19.8165 17.7023 20.1832C18.0628 20.5378 18.2651 21.017 18.2651 21.5165C18.2651 22.016 18.0628 22.4952 17.7023 22.8498C17.3435 23.1998 16.8481 23.3998 16.3356 23.3998C15.2593 23.3998 14.3881 22.5665 14.3881 21.5165C14.3881 20.4665 15.2593 19.6165 16.3356 19.6165ZM25.646 19.6165C26.7223 19.6165 27.5764 20.4665 27.5764 21.5165C27.5764 22.5665 26.7223 23.3998 25.646 23.3998C24.5698 23.3998 23.6985 22.5665 23.6985 21.5165C23.6985 21.0126 23.9037 20.5293 24.2689 20.173C24.6342 19.8167 25.1295 19.6165 25.646 19.6165Z" fill="#5DC1B5"/>
</g>
</svg>
