<svg xmlns="http://www.w3.org/2000/svg" width="21" height="20" viewBox="0 0 21 20" fill="none">
  <path fill-rule="evenodd" clip-rule="evenodd" d="M10.4997 4.16797C15.608 4.16797 18.0253 7.59294 18.8763 9.19412C19.1473 9.70397 19.1473 10.2986 18.8763 10.8085C18.0253 12.4097 15.608 15.8346 10.4997 15.8346C5.39139 15.8346 2.97411 12.4097 2.12315 10.8085C1.85218 10.2986 1.85218 9.70397 2.12315 9.19412C2.97411 7.59294 5.39139 4.16797 10.4997 4.16797ZM6.19667 7.06605C4.81312 7.98275 4.00523 9.20416 3.59488 9.97629C3.59029 9.98491 3.58841 9.99089 3.58758 9.99418C3.58675 9.99752 3.58659 10.0013 3.58659 10.0013C3.58659 10.0013 3.58675 10.0051 3.58758 10.0084C3.58841 10.0117 3.59029 10.0177 3.59488 10.0263C4.00523 10.7984 4.81312 12.0199 6.19667 12.9366C5.62545 12.1008 5.29139 11.09 5.29139 10.0013C5.29139 8.91256 5.62545 7.90183 6.19667 7.06605ZM14.8028 12.9365C16.1863 12.0198 16.9942 10.7984 17.4046 10.0263C17.4091 10.0177 17.411 10.0117 17.4119 10.0084C17.4124 10.0063 17.4128 10.0032 17.4128 10.0032L17.4128 10.0013L17.4126 9.99763L17.4119 9.99417C17.411 9.99089 17.4091 9.98491 17.4046 9.97629C16.9942 9.20416 16.1863 7.98276 14.8028 7.06606C15.374 7.90184 15.7081 8.91256 15.7081 10.0013C15.7081 11.09 15.374 12.1008 14.8028 12.9365ZM6.95806 10.0013C6.95806 8.04529 8.54371 6.45964 10.4997 6.45964C12.4557 6.45964 14.0414 8.04529 14.0414 10.0013C14.0414 11.9573 12.4557 13.543 10.4997 13.543C8.54371 13.543 6.95806 11.9573 6.95806 10.0013Z" fill="#667085"/>
</svg>