<svg width="21" height="20" viewBox="0 0 21 20" fill="none" xmlns="http://www.w3.org/2000/svg">
<g id="fi:share-2">
<path id="Vector" d="M15.5 18.333C16.8807 18.333 18 17.2137 18 15.833C18 14.4523 16.8807 13.333 15.5 13.333C14.1193 13.333 13 14.4523 13 15.833C13 17.2137 14.1193 18.333 15.5 18.333Z" stroke="white" stroke-width="2" stroke-linecap="round" stroke-linejoin="round"/>
<path id="Vector_2" d="M5.5 12.5C6.88071 12.5 8 11.3807 8 10C8 8.61929 6.88071 7.5 5.5 7.5C4.11929 7.5 3 8.61929 3 10C3 11.3807 4.11929 12.5 5.5 12.5Z" stroke="white" stroke-width="2" stroke-linecap="round" stroke-linejoin="round"/>
<path id="Vector_3" d="M7.6582 11.2588L13.3499 14.5755" stroke="white" stroke-width="2" stroke-linecap="round" stroke-linejoin="round"/>
<path id="Vector_4" d="M15.5 6.66699C16.8807 6.66699 18 5.5477 18 4.16699C18 2.78628 16.8807 1.66699 15.5 1.66699C14.1193 1.66699 13 2.78628 13 4.16699C13 5.5477 14.1193 6.66699 15.5 6.66699Z" stroke="white" stroke-width="2" stroke-linecap="round" stroke-linejoin="round"/>
<path id="Vector_5" d="M13.3415 5.4248L7.6582 8.74147" stroke="white" stroke-width="2" stroke-linecap="round" stroke-linejoin="round"/>
</g>
</svg>
