<svg xmlns="http://www.w3.org/2000/svg" width="21" height="20" viewBox="0 0 21 20" fill="none">
  <path d="M11.3333 6.66667C11.3333 7.1269 11.7064 7.5 12.1667 7.5C12.6269 7.5 13 7.1269 13 6.66667V5.83333H17.1667C17.6269 5.83333 18 5.46024 18 5C18 4.53976 17.6269 4.16667 17.1667 4.16667H13V3.33333C13 2.8731 12.6269 2.5 12.1667 2.5C11.7064 2.5 11.3333 2.8731 11.3333 3.33333V6.66667Z" fill="#667085"/>
  <path d="M3 10C3 9.53976 3.3731 9.16667 3.83333 9.16667H5.08333C5.31345 9.16667 5.5 9.35321 5.5 9.58333V10.4167C5.5 10.6468 5.31345 10.8333 5.08333 10.8333H3.83333C3.3731 10.8333 3 10.4602 3 10Z" fill="#667085"/>
  <path d="M8 7.5C7.53976 7.5 7.16667 7.8731 7.16667 8.33333V11.6667C7.16667 12.1269 7.53976 12.5 8 12.5C8.46024 12.5 8.83333 12.1269 8.83333 11.6667V10.8333H17.1667C17.6269 10.8333 18 10.4602 18 10C18 9.53976 17.6269 9.16667 17.1667 9.16667H8.83333V8.33333C8.83333 7.8731 8.46024 7.5 8 7.5Z" fill="#667085"/>
  <path d="M3 5C3 4.53976 3.3731 4.16667 3.83333 4.16667H9.25C9.48012 4.16667 9.66667 4.35321 9.66667 4.58333V5.41667C9.66667 5.64679 9.48012 5.83333 9.25 5.83333H3.83333C3.3731 5.83333 3 5.46024 3 5Z" fill="#667085"/>
  <path d="M13 13.3333C13 12.8731 13.3731 12.5 13.8333 12.5C14.2936 12.5 14.6667 12.8731 14.6667 13.3333V14.1667H17.1667C17.6269 14.1667 18 14.5398 18 15C18 15.4602 17.6269 15.8333 17.1667 15.8333H14.6667V16.6667C14.6667 17.1269 14.2936 17.5 13.8333 17.5C13.3731 17.5 13 17.1269 13 16.6667V13.3333Z" fill="#667085"/>
  <path d="M3 15C3 14.5398 3.3731 14.1667 3.83333 14.1667H10.9167C11.1468 14.1667 11.3333 14.3532 11.3333 14.5833V15.4167C11.3333 15.6468 11.1468 15.8333 10.9167 15.8333H3.83333C3.3731 15.8333 3 15.4602 3 15Z" fill="#667085"/>
</svg>