<svg xmlns="http://www.w3.org/2000/svg" width="80" height="46" viewBox="0 0 80 46" fill="none">
  <rect width="80" height="46" rx="8" fill="white"/>
  <path d="M38.8549 22.0881V26.9407H37.3047V14.9569H41.4161C41.9068 14.9467 42.3947 15.0331 42.8517 15.2112C43.3086 15.3892 43.7255 15.6554 44.0783 15.9943C44.4347 16.3127 44.7183 16.7031 44.9102 17.1393C45.102 17.5755 45.1975 18.0475 45.1904 18.5234C45.2006 19.0019 45.1065 19.477 44.9146 19.916C44.7226 20.355 44.4374 20.7476 44.0783 21.0669C43.3594 21.7477 42.472 22.0878 41.4161 22.0871H38.8549V22.0881ZM38.8549 16.4323V20.6156H41.4546C41.7396 20.624 42.0232 20.5732 42.2873 20.4665C42.5514 20.3598 42.7902 20.1995 42.9884 19.996C43.1855 19.8056 43.3422 19.578 43.4493 19.3264C43.5563 19.0749 43.6114 18.8046 43.6114 18.5316C43.6114 18.2585 43.5563 17.9882 43.4493 17.7367C43.3422 17.4852 43.1855 17.2575 42.9884 17.0672C42.7927 16.8593 42.5547 16.6951 42.2903 16.5855C42.0259 16.4759 41.741 16.4233 41.4546 16.4313H38.8549V16.4323Z" fill="#5F6368"/>
  <path d="M48.7625 18.4736C49.9083 18.4736 50.8128 18.7777 51.4759 19.3858C52.1389 19.994 52.4702 20.8278 52.4695 21.8872V26.9407H50.9867V25.8028H50.9193C50.2774 26.7399 49.4237 27.2084 48.3581 27.2084C47.4486 27.2084 46.6876 26.9407 46.0752 26.4052C45.7814 26.1594 45.5464 25.8517 45.3875 25.5043C45.2286 25.1569 45.1497 24.7787 45.1567 24.3972C45.1567 23.5488 45.4795 22.874 46.1253 22.373C46.7711 21.8719 47.6331 21.6208 48.7115 21.6195C49.632 21.6195 50.3901 21.7868 50.9858 22.1215V21.7696C50.9875 21.5095 50.931 21.2523 50.8202 21.0167C50.7095 20.781 50.5473 20.5728 50.3455 20.407C49.9355 20.0397 49.4013 19.8393 48.8492 19.8458C47.9833 19.8458 47.2981 20.2085 46.7935 20.9339L45.4282 20.08C46.1792 19.0091 47.2907 18.4736 48.7625 18.4736ZM46.7569 24.4307C46.7559 24.6266 46.802 24.8199 46.8914 24.9946C46.9809 25.1692 47.111 25.3201 47.2711 25.4347C47.6139 25.7025 48.0395 25.8444 48.4756 25.8363C49.1298 25.8352 49.7568 25.5766 50.2193 25.1172C50.7329 24.6372 50.9896 24.074 50.9896 23.4276C50.5063 23.0452 49.8323 22.8539 48.9676 22.8539C48.3379 22.8539 47.8129 23.0047 47.3924 23.3062C46.9678 23.6122 46.7569 23.9841 46.7569 24.4307Z" fill="#5F6368"/>
  <path d="M60.9781 18.7412L55.8018 30.5549H54.2015L56.1224 26.4213L52.7188 18.7412H54.4037L56.8638 24.6313H56.8975L59.2902 18.7412H60.9781Z" fill="#5F6368"/>
  <path d="M32.5907 21.0415C32.5913 20.5723 32.5514 20.104 32.4713 19.6416H25.9336V22.2931H29.6781C29.6015 22.7166 29.4393 23.1203 29.2014 23.4798C28.9634 23.8394 28.6546 24.1474 28.2935 24.3852V26.1064H30.5283C31.8368 24.9083 32.5907 23.1365 32.5907 21.0415Z" fill="#4285F4"/>
  <path d="M25.9323 27.7691C27.8031 27.7691 29.3783 27.159 30.527 26.1072L28.2922 24.3861C27.6702 24.8049 26.8691 25.0439 25.9323 25.0439C24.1241 25.0439 22.5893 23.8334 22.0405 22.2021H19.7383V23.9759C20.3153 25.1161 21.2001 26.0746 22.2938 26.7445C23.3876 27.4143 24.6473 27.769 25.9323 27.7691Z" fill="#34A853"/>
  <path d="M22.0404 22.2029C21.7502 21.3481 21.7502 20.4225 22.0404 19.5677V17.7939H19.7382C19.2528 18.7531 19 19.8118 19 20.8853C19 21.9588 19.2528 23.0174 19.7382 23.9766L22.0404 22.2029Z" fill="#FBBC04"/>
  <path d="M25.9323 16.7256C26.9209 16.7095 27.8762 17.0805 28.5917 17.7583L30.5703 15.7933C29.3157 14.623 27.6535 13.9805 25.9323 14.0005C24.6473 14.0005 23.3876 14.3552 22.2938 15.0251C21.2001 15.6949 20.3153 16.6534 19.7383 17.7936L22.0405 19.5674C22.5893 17.9361 24.1241 16.7256 25.9323 16.7256Z" fill="#EA4335"/>
</svg>