<svg width="21" height="18" viewBox="0 0 21 18" fill="none" xmlns="http://www.w3.org/2000/svg">
<g id="Hide">
<path id="Stroke 1" d="M8.26094 11.3677C7.68594 10.7937 7.33594 10.0137 7.33594 9.13866C7.33594 7.38566 8.74794 5.97266 10.4999 5.97266C11.3669 5.97266 12.1649 6.32366 12.7299 6.89766" stroke="#130F26" stroke-width="1.5" stroke-linecap="round" stroke-linejoin="round"/>
<path id="Stroke 3" d="M13.6034 9.69922C13.3714 10.9892 12.3554 12.0072 11.0664 12.2412" stroke="#130F26" stroke-width="1.5" stroke-linecap="round" stroke-linejoin="round"/>
<path id="Stroke 5" d="M5.155 14.473C3.568 13.227 2.224 11.407 1.25 9.13796C2.234 6.85896 3.587 5.02896 5.184 3.77296C6.771 2.51696 8.602 1.83496 10.5 1.83496C12.409 1.83496 14.239 2.52696 15.836 3.79196" stroke="#130F26" stroke-width="1.5" stroke-linecap="round" stroke-linejoin="round"/>
<path id="Stroke 7" d="M17.9487 5.99121C18.6367 6.90521 19.2417 7.96021 19.7507 9.13721C17.7837 13.6942 14.3077 16.4392 10.5008 16.4392C9.63775 16.4392 8.78675 16.2992 7.96875 16.0262" stroke="#130F26" stroke-width="1.5" stroke-linecap="round" stroke-linejoin="round"/>
<path id="Stroke 9" d="M18.3873 1.25L2.61328 17.024" stroke="#130F26" stroke-width="1.5" stroke-linecap="round" stroke-linejoin="round"/>
</g>
</svg>
