<svg width="129" height="30" viewBox="0 0 129 30" fill="none" xmlns="http://www.w3.org/2000/svg">
<path d="M21.5 22.5H3.5V14.5L12.5 6L21.5 14.5V22.5Z" fill="#E8EAF6"/>
<path d="M20 13.5L17.5 11V7.5H20V13.5ZM3.5 22.5H21.5V25H3.5V22.5Z" fill="#C5CAE9"/>
<path d="M12.5 5.15039L2.5 14.4504L3.5 15.5504L12.5 7.20039L21.5 15.5504L22.5 14.4504L12.5 5.15039Z" fill="#5570F1"/>
<path d="M9.5 17H15.5V25H9.5V17Z" fill="#FFCC4D"/>
<path d="M11 11.5H14V14.5H11V11.5Z" fill="#5570F1"/>
<path d="M14.25 20.75C14.1 20.75 14 20.85 14 21V22C14 22.15 14.1 22.25 14.25 22.25C14.4 22.25 14.5 22.15 14.5 22V21C14.5 20.85 14.4 20.75 14.25 20.75Z" fill="#FF8A65"/>
<path d="M41.116 23.836C39.54 23.836 38.236 23.524 37.204 22.9C36.18 22.276 35.416 21.4 34.912 20.272C34.408 19.144 34.156 17.82 34.156 16.3V6.7H37.228V15.508C37.228 16.308 37.28 17.04 37.384 17.704C37.488 18.36 37.676 18.928 37.948 19.408C38.228 19.88 38.624 20.244 39.136 20.5C39.648 20.756 40.308 20.884 41.116 20.884C41.924 20.884 42.584 20.756 43.096 20.5C43.608 20.244 44 19.88 44.272 19.408C44.552 18.928 44.744 18.36 44.848 17.704C44.952 17.04 45.004 16.308 45.004 15.508V6.7H48.076V16.3C48.076 17.82 47.824 19.144 47.32 20.272C46.816 21.4 46.048 22.276 45.016 22.9C43.992 23.524 42.692 23.836 41.116 23.836ZM50.7436 23.5V11.5H53.5276L53.6476 13.732L52.9516 12.82C53.4076 12.436 53.9516 12.088 54.5836 11.776C55.2156 11.464 55.9516 11.308 56.7916 11.308C58.3276 11.308 59.4676 11.82 60.2116 12.844C60.9556 13.86 61.3276 15.18 61.3276 16.804V23.5H58.3516V17.044C58.3516 15.924 58.1636 15.096 57.7876 14.56C57.4196 14.024 56.8156 13.756 55.9756 13.756C55.2956 13.756 54.7396 13.924 54.3076 14.26C53.8756 14.588 53.4956 15.028 53.1676 15.58L53.7196 14.116V23.5H50.7436ZM63.9858 23.5V11.5H66.9618V23.5H63.9858ZM63.9858 9.676V6.7H66.9618V9.676H63.9858Z" fill="#5570F1"/>
<path d="M70.2314 23.5V6.7H76.4954C78.1034 6.7 79.5314 7.036 80.7794 7.708C82.0354 8.372 83.0194 9.332 83.7314 10.588C84.4434 11.836 84.7994 13.34 84.7994 15.1C84.7994 16.86 84.4434 18.368 83.7314 19.624C83.0194 20.872 82.0354 21.832 80.7794 22.504C79.5314 23.168 78.1034 23.5 76.4954 23.5H70.2314ZM73.0154 21.004H76.4954C77.6554 21.004 78.6234 20.764 79.3994 20.284C80.1754 19.796 80.7594 19.112 81.1514 18.232C81.5514 17.344 81.7514 16.3 81.7514 15.1C81.7514 13.9 81.5514 12.86 81.1514 11.98C80.7594 11.092 80.1754 10.408 79.3994 9.928C78.6234 9.44 77.6554 9.196 76.4954 9.196H73.0154V21.004ZM92.3185 23.74C91.0385 23.74 89.9465 23.46 89.0425 22.9C88.1465 22.34 87.4585 21.592 86.9785 20.656C86.5065 19.72 86.2705 18.688 86.2705 17.56C86.2705 16.432 86.5065 15.396 86.9785 14.452C87.4585 13.508 88.1465 12.756 89.0425 12.196C89.9465 11.628 91.0385 11.344 92.3185 11.344C93.5905 11.344 94.6785 11.628 95.5825 12.196C96.4865 12.756 97.1745 13.508 97.6465 14.452C98.1265 15.396 98.3665 16.432 98.3665 17.56C98.3665 18.688 98.1265 19.72 97.6465 20.656C97.1745 21.592 96.4865 22.34 95.5825 22.9C94.6785 23.46 93.5905 23.74 92.3185 23.74ZM92.3185 21.484C93.3745 21.484 94.1865 21.128 94.7545 20.416C95.3305 19.696 95.6185 18.744 95.6185 17.56C95.6185 16.36 95.3305 15.4 94.7545 14.68C94.1865 13.96 93.3745 13.6 92.3185 13.6C91.2625 13.6 90.4465 13.96 89.8705 14.68C89.2945 15.4 89.0065 16.36 89.0065 17.56C89.0065 18.744 89.2945 19.696 89.8705 20.416C90.4465 21.128 91.2625 21.484 92.3185 21.484ZM100.479 23.5V11.584H102.903L103.035 13.108C103.451 12.62 103.935 12.204 104.487 11.86C105.039 11.516 105.635 11.344 106.275 11.344C106.467 11.344 106.647 11.364 106.815 11.404L106.599 14.128C106.447 14.088 106.295 14.064 106.143 14.056C105.991 14.04 105.835 14.032 105.674 14.032C105.131 14.032 104.631 14.156 104.175 14.404C103.719 14.652 103.399 14.94 103.215 15.268V23.5H100.479ZM108.283 23.5V11.584H110.515L110.791 13.528L110.227 13.048C110.779 12.528 111.383 12.12 112.039 11.824C112.703 11.528 113.443 11.38 114.259 11.38C114.875 11.38 115.435 11.476 115.939 11.668C116.451 11.852 116.895 12.14 117.271 12.532C117.655 12.924 117.963 13.424 118.195 14.032L117.511 13.828C117.887 13.06 118.443 12.46 119.179 12.028C119.915 11.596 120.803 11.38 121.843 11.38C122.907 11.38 123.783 11.592 124.471 12.016C125.159 12.432 125.667 13.04 125.995 13.84C126.331 14.64 126.499 15.604 126.499 16.732V23.5H123.811V16.876C123.811 15.764 123.623 14.948 123.247 14.428C122.871 13.9 122.247 13.636 121.375 13.636C120.871 13.636 120.447 13.72 120.103 13.888C119.759 14.048 119.487 14.276 119.287 14.572C119.087 14.868 118.943 15.204 118.855 15.58C118.775 15.956 118.735 16.356 118.735 16.78V23.5H116.047V17.032C116.047 16.208 115.955 15.548 115.771 15.052C115.587 14.556 115.311 14.196 114.943 13.972C114.575 13.748 114.119 13.636 113.575 13.636C112.847 13.636 112.227 13.804 111.715 14.14C111.211 14.468 110.811 14.944 110.515 15.568L110.959 14.128V23.5H108.283Z" fill="#F8B32E"/>
</svg>
