<svg width="33" height="32" viewBox="0 0 33 32" fill="none" xmlns="http://www.w3.org/2000/svg">
<g id="exchange">
<path id="Vector" d="M24.6275 20.8338H23.4204H9.83376C9.70115 20.8338 9.57397 20.8865 9.4802 20.9802C9.38643 21.074 9.33376 21.2012 9.33376 21.3338C9.33376 21.4664 9.38643 21.5936 9.4802 21.6873C9.57397 21.7811 9.70115 21.8338 9.83376 21.8338H23.4204H24.6275L23.774 22.6873L22.814 23.6473L22.8077 23.6536L22.8013 23.6596C22.7522 23.7054 22.7128 23.7606 22.6854 23.8219C22.6581 23.8832 22.6434 23.9494 22.6422 24.0166C22.641 24.0837 22.6534 24.1504 22.6785 24.2126C22.7037 24.2749 22.7411 24.3315 22.7886 24.3789C22.8361 24.4264 22.8926 24.4639 22.9549 24.489C23.0171 24.5141 23.0838 24.5265 23.151 24.5253C23.2181 24.5241 23.2843 24.5094 23.3456 24.4821C23.407 24.4548 23.4622 24.4154 23.5079 24.3663L23.514 24.3598L23.5202 24.3536L26.1866 21.6871L24.6275 20.8338ZM24.6275 20.8338L23.774 19.9802M24.6275 20.8338L23.774 19.9802M23.774 19.9802L22.8142 19.0204L23.774 19.9802ZM22.814 18.314C22.7205 18.4077 22.668 18.5347 22.668 18.6671C22.668 18.7995 22.7205 18.9265 22.814 19.0202V18.314ZM22.814 18.314C22.9077 18.2205 23.0347 18.168 23.1671 18.168C23.2996 18.168 23.4267 18.2206 23.5204 18.3142L26.1866 20.9804L22.814 18.314ZM9.49289 13.6996L9.48688 13.6931L9.48064 13.6869L6.8142 11.0204C6.81416 11.0204 6.81412 11.0204 6.81408 11.0203C6.72052 10.9266 6.66797 10.7996 6.66797 10.6671C6.66797 10.5347 6.72052 10.4076 6.81408 10.3139C6.81412 10.3139 6.81416 10.3138 6.8142 10.3138L9.47333 7.65464C9.56745 7.56947 9.69054 7.52323 9.81763 7.52547C9.94717 7.52775 10.0708 7.58023 10.1624 7.67184C10.254 7.76345 10.3064 7.88704 10.3087 8.01657C10.311 8.14366 10.2647 8.26674 10.1796 8.36086L9.22687 9.31356L8.37331 10.1671H9.58042H23.1671C23.2997 10.1671 23.4269 10.2198 23.5206 10.3136C23.6144 10.4073 23.6671 10.5345 23.6671 10.6671C23.6671 10.7997 23.6144 10.9269 23.5206 11.0207C23.4269 11.1144 23.2997 11.1671 23.1671 11.1671H9.58042H8.37332L9.22687 12.0207L10.1869 12.9807L10.1931 12.9869L10.1996 12.9929C10.2487 13.0387 10.2881 13.0939 10.3154 13.1552C10.3427 13.2166 10.3574 13.2828 10.3586 13.3499C10.3598 13.417 10.3475 13.4837 10.3223 13.546C10.2972 13.6082 10.2597 13.6648 10.2123 13.7123C10.1648 13.7598 10.1082 13.7972 10.046 13.8223C9.9837 13.8475 9.91701 13.8598 9.84988 13.8586C9.78274 13.8575 9.71654 13.8428 9.6552 13.8154C9.59387 13.7881 9.53867 13.7487 9.49289 13.6996ZM26.3329 21.3338C26.3329 21.4662 26.2804 21.5932 26.1869 21.6869V20.9807C26.2804 21.0744 26.3329 21.2014 26.3329 21.3338Z" fill="#2C2D33" stroke="#F7C567"/>
</g>
</svg>
