<svg width="43" height="44" viewBox="0 0 43 44" fill="none" xmlns="http://www.w3.org/2000/svg">
<g id="fluent:payment-32-regular">
<path id="Vector" d="M3 13.0625C3 11.4215 3.62226 9.84766 4.7299 8.68728C5.83754 7.5269 7.33982 6.875 8.90625 6.875H33.8438C35.4102 6.875 36.9125 7.5269 38.0201 8.68728C39.1277 9.84766 39.75 11.4215 39.75 13.0625V30.9375C39.75 32.5785 39.1277 34.1523 38.0201 35.3127C36.9125 36.4731 35.4102 37.125 33.8438 37.125H8.90625C7.33982 37.125 5.83754 36.4731 4.7299 35.3127C3.62226 34.1523 3 32.5785 3 30.9375V13.0625ZM8.90625 9.625C8.03601 9.625 7.20141 9.98716 6.58606 10.6318C5.9707 11.2765 5.625 12.1508 5.625 13.0625V15.125H37.125V13.0625C37.125 12.1508 36.7793 11.2765 36.1639 10.6318C35.5486 9.98716 34.714 9.625 33.8438 9.625H8.90625ZM5.625 30.9375C5.625 31.8492 5.9707 32.7235 6.58606 33.3682C7.20141 34.0128 8.03601 34.375 8.90625 34.375H33.8438C34.714 34.375 35.5486 34.0128 36.1639 33.3682C36.7793 32.7235 37.125 31.8492 37.125 30.9375V17.875H5.625V30.9375ZM27.9375 26.125H31.875C32.2231 26.125 32.5569 26.2699 32.8031 26.5277C33.0492 26.7856 33.1875 27.1353 33.1875 27.5C33.1875 27.8647 33.0492 28.2144 32.8031 28.4723C32.5569 28.7301 32.2231 28.875 31.875 28.875H27.9375C27.5894 28.875 27.2556 28.7301 27.0094 28.4723C26.7633 28.2144 26.625 27.8647 26.625 27.5C26.625 27.1353 26.7633 26.7856 27.0094 26.5277C27.2556 26.2699 27.5894 26.125 27.9375 26.125Z" fill="#FFAD33"/>
</g>
</svg>
