<svg xmlns="http://www.w3.org/2000/svg" width="80" height="46" viewBox="0 0 80 46" fill="none">
  <rect width="80" height="46" rx="8" fill="white"/>
  <path d="M33.7023 21.7031C33.5615 22.7593 32.7165 22.7593 31.942 22.7593H31.5196L31.8716 20.7174C31.8716 20.5766 32.0124 20.5062 32.1532 20.5062H32.3645C32.9278 20.5062 33.4206 20.5062 33.7023 20.7878C33.7023 21.0694 33.7023 21.3511 33.7023 21.7031ZM33.3502 18.8867H30.3226C30.1113 18.8867 29.9705 19.0275 29.9001 19.2388L28.7031 26.9839C28.7031 27.1248 28.7735 27.2656 28.9848 27.2656H30.393C30.6042 27.2656 30.745 27.1248 30.8154 26.9135L31.1675 24.8012C31.1675 24.59 31.3787 24.4492 31.59 24.4492H32.5757C34.5472 24.4492 35.6738 23.4634 36.0258 21.5623C36.1666 20.7174 36.0258 20.0837 35.6738 19.5908C35.1105 19.1684 34.336 18.8867 33.3502 18.8867Z" fill="#263577"/>
  <path d="M40.319 24.5197C40.1782 25.3647 39.5445 25.928 38.6996 25.928C38.2771 25.928 37.9251 25.7871 37.7138 25.5055C37.5026 25.2239 37.4322 24.8718 37.5026 24.5197C37.6434 23.6748 38.2771 23.1115 39.1221 23.1115C39.5445 23.1115 39.8966 23.2524 40.1078 23.534C40.2486 23.7452 40.3894 24.0973 40.319 24.5197ZM42.2905 21.7033H40.8823C40.7415 21.7033 40.6711 21.7737 40.6007 21.9146L40.5303 22.337L40.4599 22.1962C40.1782 21.7737 39.4741 21.5625 38.77 21.5625C37.1506 21.5625 35.8128 22.7595 35.5311 24.4493C35.3903 25.2943 35.6015 26.0688 36.0944 26.6321C36.5168 27.1249 37.1506 27.3362 37.9251 27.3362C39.1925 27.3362 39.8966 26.4912 39.8966 26.4912L39.8262 26.9137C39.8262 27.0545 39.8966 27.1954 40.1078 27.1954H41.3752C41.5864 27.1954 41.7272 27.0545 41.7977 26.8433L42.5722 21.9146C42.5722 21.8441 42.5018 21.7033 42.2905 21.7033Z" fill="#263577"/>
  <path d="M49.9656 21.7031H48.4869C48.3461 21.7031 48.2053 21.7735 48.1349 21.9144L46.1634 24.8716L45.3184 22.0552C45.248 21.8439 45.1072 21.7735 44.896 21.7735H43.4878C43.3469 21.7735 43.2061 21.9144 43.2765 22.1256L44.896 26.7727L43.4173 28.885C43.2765 29.0258 43.4174 29.3075 43.6286 29.3075H45.1072C45.248 29.3075 45.3889 29.2371 45.4593 29.0962L50.2472 22.1256C50.3176 21.9144 50.1768 21.7031 49.9656 21.7031Z" fill="#263577"/>
  <path d="M55.1046 21.7031C54.9638 22.7593 54.1189 22.7593 53.3444 22.7593H52.9219L53.2739 20.7174C53.2739 20.5766 53.4148 20.5062 53.5556 20.5062H53.7668C54.3301 20.5062 54.823 20.5062 55.1046 20.7878C55.175 21.0694 55.175 21.3511 55.1046 21.7031ZM54.7526 18.8867H51.7249C51.5137 18.8867 51.3729 19.0275 51.3025 19.2388L50.1055 26.9839C50.1055 27.1248 50.1759 27.2656 50.3871 27.2656H51.9361C52.077 27.2656 52.2178 27.1952 52.2178 26.9839L52.5698 24.8012C52.5698 24.59 52.7811 24.4492 52.9923 24.4492H53.9781C55.9496 24.4492 57.0761 23.4634 57.4282 21.5623C57.569 20.7174 57.4282 20.0837 57.0761 19.5908C56.5833 19.1684 55.8087 18.8867 54.7526 18.8867Z" fill="#2199D6"/>
  <path d="M61.7956 24.5197C61.6548 25.3647 61.0211 25.928 60.1762 25.928C59.7537 25.928 59.4016 25.7871 59.1904 25.5055C58.9792 25.2239 58.9088 24.8718 58.9792 24.5197C59.12 23.6748 59.7537 23.1115 60.5986 23.1115C61.0211 23.1115 61.3731 23.2524 61.5844 23.534C61.7252 23.7452 61.866 24.0973 61.7956 24.5197ZM63.7671 21.7033H62.3589C62.2181 21.7033 62.1476 21.7737 62.0772 21.9146L62.0068 22.337L61.9364 22.1962C61.6548 21.7737 60.9507 21.5625 60.2466 21.5625C58.6271 21.5625 57.2893 22.7595 57.0077 24.4493C56.8669 25.2943 57.0781 26.0688 57.5709 26.6321C57.9934 27.1249 58.6271 27.3362 59.4016 27.3362C60.669 27.3362 61.3731 26.4912 61.3731 26.4912L61.3027 26.9137C61.3027 27.0545 61.3731 27.1954 61.5844 27.1954H62.8517C63.063 27.1954 63.2038 27.0545 63.2742 26.8433L64.0487 21.9146C64.0487 21.8441 63.9079 21.7033 63.7671 21.7033Z" fill="#2199D6"/>
  <path d="M65.4549 19.098L64.1875 26.9839C64.1875 27.1248 64.2579 27.2656 64.4692 27.2656H65.7365C65.9478 27.2656 66.0886 27.1248 66.159 26.9135L67.356 19.1684C67.356 19.0275 67.2856 18.8867 67.0743 18.8867H65.6661C65.5957 18.8867 65.5253 19.0275 65.4549 19.098Z" fill="#2199D6"/>
  <path d="M16.1679 28.7447L16.3791 27.2661H15.8862H13.4219L15.1117 16.4933C15.1117 16.4933 15.1117 16.4229 15.1821 16.4229H15.2526H19.4068C20.7446 16.4229 21.7303 16.7045 22.2232 17.2678C22.4344 17.5494 22.5753 17.8311 22.6457 18.1127C22.7161 18.4648 22.7161 18.8168 22.6457 19.3097V19.5913L22.8569 19.7322C23.0681 19.8026 23.209 19.9434 23.3498 20.0842C23.561 20.2954 23.7018 20.5771 23.7018 20.9291C23.7722 21.2812 23.7722 21.7037 23.6314 22.1965C23.4906 22.7598 23.3498 23.1823 23.1385 23.6047C22.9273 23.9568 22.6457 24.2384 22.364 24.5201C22.0824 24.7313 21.6599 24.8721 21.3079 25.0129C20.8854 25.0834 20.4629 25.1538 19.9701 25.1538H19.618C19.4068 25.1538 19.1956 25.2242 18.9843 25.365C18.8435 25.5058 18.7027 25.7171 18.6323 25.9283V26.0691L18.2098 28.6743V28.7447V28.8151C18.2098 28.8151 18.2098 28.8151 18.1394 28.8151H16.1679V28.7447Z" fill="#263577"/>
  <path d="M23.1392 19.3096C23.1392 19.38 23.1392 19.4504 23.0688 19.5208C22.5055 22.3372 20.6748 23.2526 18.2809 23.2526H17.0839C16.8022 23.2526 16.5206 23.4638 16.5206 23.7454L15.8869 27.6884L15.7461 28.815C15.7461 29.0262 15.8869 29.1671 16.0277 29.1671H18.2105C18.4921 29.1671 18.7033 28.9558 18.7033 28.7446V28.6038L19.1258 26.069V25.9282C19.1962 25.6465 19.4074 25.5057 19.6187 25.5057H19.9707C22.0831 25.5057 23.7025 24.6608 24.125 22.1964C24.3362 21.1402 24.1954 20.2953 23.7025 19.732C23.5617 19.5912 23.3504 19.4504 23.1392 19.3096Z" fill="#2199D6"/>
  <path d="M22.5748 19.098C22.5044 19.098 22.434 19.0275 22.2932 19.0275C22.2228 19.0275 22.082 18.9571 22.0116 18.9571C21.6595 18.8867 21.3074 18.8867 20.9554 18.8867H17.7165C17.6461 18.8867 17.5757 18.8867 17.5053 18.9571C17.3645 19.0275 17.2236 19.1684 17.2236 19.3092L16.5195 23.6746V23.8155C16.5899 23.5338 16.8012 23.3226 17.0828 23.3226H18.2798C20.6738 23.3226 22.5044 22.3368 23.0677 19.5908C23.0677 19.5204 23.0677 19.45 23.1381 19.3796C22.9973 19.3092 22.8565 19.2388 22.7157 19.1684C22.6452 19.098 22.5748 19.098 22.5748 19.098Z" fill="#252C5E"/>
  <path d="M17.2246 19.3093C17.2246 19.1685 17.3655 19.0277 17.5063 18.9572C17.5767 18.9572 17.6471 18.8868 17.7175 18.8868H20.9564C21.3084 18.8868 21.7309 18.8868 22.0126 18.9572C22.083 18.9572 22.2238 18.9572 22.2942 19.0277C22.3646 19.0277 22.435 19.0981 22.5758 19.0981C22.6463 19.0981 22.6463 19.0981 22.7167 19.1685C22.8575 19.2389 22.9983 19.3093 23.1391 19.3797C23.28 18.3236 23.1391 17.6194 22.5758 16.9857C21.9421 16.2816 20.8156 16 19.4074 16H15.2531C14.9715 16 14.6899 16.2112 14.6899 16.4929L13 27.3361C13 27.5473 13.1408 27.7586 13.3521 27.7586H15.8868L16.5205 23.6748L17.2246 19.3093Z" fill="#263577"/>
</svg>