<svg xmlns="http://www.w3.org/2000/svg" width="80" height="46" viewBox="0 0 80 46" fill="none">
  <rect width="80" height="46" rx="8" fill="white"/>
  <path fill-rule="evenodd" clip-rule="evenodd" d="M16.0004 21.6599C15.8903 21.9352 15.8352 22.2289 15.7618 22.5225C15.5783 23.4034 15.4315 24.3394 15.2296 25.2203C14.8258 25.2203 14.4037 25.2203 14 25.2203C14.4588 22.2472 15.303 19.3476 15.67 16.1543C16.0738 16.1543 16.4775 16.1543 16.8629 16.1543C16.8079 16.4479 16.7345 16.7232 16.6978 17.0169C16.6978 17.0352 16.6611 17.0536 16.6611 17.0903C17.2116 16.3745 18.0558 15.879 19.3955 16.0258C20.7169 16.1543 21.4326 17.2004 21.4877 18.43C21.6161 20.779 20.3682 22.9079 17.7989 22.7244C16.9547 22.6693 16.3124 22.3573 16.0004 21.6599ZM17.7255 17.2004C16.6427 17.7509 15.5966 20.2835 16.8262 21.3663C17.6337 22.082 18.9 21.6966 19.4322 21.036C20.0378 20.2835 20.5884 18.118 19.6708 17.3472C19.3588 17.0903 18.8633 16.9985 18.4045 17.0536C18.0742 17.0719 17.909 17.1086 17.7255 17.2004Z" fill="#030000"/>
  <path fill-rule="evenodd" clip-rule="evenodd" d="M27.1591 22.5956C26.7737 22.5956 26.3883 22.5956 25.9845 22.5956C26.0396 22.2285 26.113 21.8798 26.1864 21.5311C25.8377 22.045 25.2321 22.6323 24.3512 22.724C23.0849 22.8525 21.9287 22.2102 21.8186 21.1641C21.7819 20.8154 21.8002 20.2465 22.0939 19.806C22.828 18.6499 24.7366 18.5765 26.6269 18.6315C27.1958 16.5394 24.1493 16.8514 23.1032 17.5304C23.1583 17.1266 23.2501 16.7412 23.3051 16.3375C25.1954 15.7502 27.7463 15.897 27.8932 17.9341C27.9482 18.7416 27.7096 19.5308 27.5628 20.3016C27.416 21.054 27.2692 21.7881 27.1591 22.5956ZM23.1583 20.9255C23.195 21.4577 23.7823 21.7514 24.2594 21.7514C25.5624 21.7697 26.1864 20.6319 26.3883 19.5124C24.9201 19.439 23.0665 19.6225 23.1583 20.9255Z" fill="#030000"/>
  <path fill-rule="evenodd" clip-rule="evenodd" d="M29.9834 16.1729C30.2586 17.8796 30.589 19.5313 30.8459 21.2747C31.8186 19.6047 32.7178 17.8612 33.6721 16.1729C34.1126 16.1729 34.553 16.1729 35.0118 16.1729C33.8373 18.3017 32.4609 20.6324 31.1395 22.8714C30.7358 23.5688 30.3321 24.5047 29.7448 24.9635C29.2309 25.3673 28.2399 25.459 27.4141 25.2939C27.4324 24.9268 27.5609 24.6515 27.5792 24.3028C27.7444 24.2845 27.9463 24.3946 28.1481 24.3946C29.0474 24.3946 29.5429 23.5688 29.8732 22.9264C29.4879 20.7058 29.0658 18.5036 28.6804 16.2646C28.6437 16.2279 28.662 16.2096 28.6804 16.1729C29.1208 16.1729 29.5613 16.1729 29.9834 16.1729Z" fill="#030000"/>
  <path fill-rule="evenodd" clip-rule="evenodd" d="M35.5443 26.3583C35.269 27.9182 34.9203 29.3864 34.6451 30.9463C33.7825 30.9463 32.92 30.9463 32.0391 30.9463C32.4428 29.0377 32.7915 27.1474 33.1769 25.2571C33.5623 23.3852 34.0211 21.5133 34.2413 19.5313C34.9387 19.4762 35.8747 19.4762 36.572 19.5313C36.5537 19.9717 36.4436 20.3388 36.4069 20.7609C37.0859 20.0818 37.82 19.1826 39.3799 19.3294C40.8664 19.4762 41.6923 20.7242 41.8024 22.3024C42.0043 25.0186 40.6829 27.6796 38.2971 27.8631C36.8106 27.9733 36.1132 27.2942 35.5443 26.3583ZM36.5904 22.3024C35.9848 23.165 35.7829 24.8167 36.5537 25.459C37.0308 25.8628 37.9117 25.6609 38.3155 25.3305C38.8293 24.9085 39.1964 24.101 39.178 23.0916C39.1597 22.174 38.7559 21.4032 37.7833 21.5317C37.2144 21.6051 36.8657 21.8987 36.5904 22.3024Z" fill="#009651"/>
  <path fill-rule="evenodd" clip-rule="evenodd" d="M48.9413 27.6975C48.2622 27.6792 47.4915 27.7342 46.8675 27.6608C46.9409 27.2938 46.9409 26.835 46.9959 26.4679C46.7941 26.6698 46.6473 26.9634 46.3903 27.202C45.5461 27.9728 43.6559 28.138 42.7199 27.3672C41.7105 26.523 41.8757 24.5043 42.7199 23.6417C43.6926 22.6323 45.5278 22.3754 47.418 22.5773C47.6016 21.8065 47.0877 21.3293 46.4454 21.2376C45.5094 21.1091 44.2615 21.5129 43.7109 21.8432C43.821 21.1825 43.8577 20.4668 43.9862 19.8061C44.6469 19.5675 45.2708 19.384 46.06 19.3473C48.2439 19.2005 49.7488 19.9346 49.8956 21.8065C49.969 22.7975 49.6754 23.8252 49.4551 24.7979C49.2533 25.7522 49.1064 26.7249 48.9413 27.6975ZM46.3169 24.0271C45.5278 24.0455 44.6652 24.3024 44.4817 24.8897C44.3349 25.4035 44.7019 25.8807 45.0873 25.9541C46.2986 26.211 47.1244 25.0181 47.2162 24.0638C46.9409 24.0087 46.5371 24.0271 46.3169 24.0271Z" fill="#009651"/>
  <path fill-rule="evenodd" clip-rule="evenodd" d="M56.9421 19.806C56.8137 20.4667 56.5751 21.0173 56.4466 21.678C55.8043 21.4577 55.0335 21.1274 54.0241 21.2375C53.6204 21.2926 53.2166 21.4944 53.2166 21.8982C53.235 22.3937 53.9874 22.5772 54.4462 22.7607C55.0886 23.036 55.8593 23.4031 56.1713 23.9536C56.7035 24.9079 56.1713 26.3027 55.6024 26.89C55.1253 27.3855 54.226 27.7892 53.3084 27.8626C52.1155 27.9544 50.8676 27.7342 49.8398 27.4589C49.9867 26.7798 50.1518 26.1559 50.3353 25.5319C51.0144 25.8072 51.7852 26.0641 52.8312 25.9724C53.3267 25.9173 53.8773 25.7521 53.8039 25.1649C53.7488 24.6877 53.0331 24.5225 52.5009 24.3023C51.5099 23.8986 50.7758 23.3847 50.7758 22.045C50.7758 19.2922 54.593 18.8334 56.9421 19.806Z" fill="#009651"/>
  <path fill-rule="evenodd" clip-rule="evenodd" d="M63.4409 19.8066C63.2941 20.4489 63.0922 21.0545 62.9087 21.6785C62.3031 21.4399 61.514 21.1279 60.5046 21.238C60.1009 21.2747 59.6971 21.4766 59.6971 21.8987C59.7155 22.4126 60.6331 22.6878 61.0552 22.8714C61.9177 23.2384 62.7436 23.6422 62.8537 24.6332C62.9638 25.6058 62.56 26.395 61.9911 26.9272C61.4589 27.441 60.6698 27.7897 59.7889 27.8631C58.5776 27.9549 57.4031 27.7347 56.3203 27.4594C56.4304 26.762 56.6507 26.1931 56.7791 25.5324C57.2746 25.6792 57.7518 25.9178 58.339 25.9729C59.1649 26.0463 60.2844 25.9912 60.266 25.2755C60.2477 24.5047 58.651 24.3395 58.0271 23.844C57.348 23.3118 56.9259 22.0088 57.4581 20.9444C58.339 19.2927 61.3672 18.9257 63.4409 19.8066Z" fill="#009651"/>
  <path d="M64.4124 20.6509H64.082L64.1004 20.5225H64.9079L64.8895 20.6509H64.5592L64.3757 21.6603H64.2288L64.4124 20.6509Z" fill="#009651"/>
  <path d="M65.7723 21.6603L65.8457 21.0547C65.864 20.9446 65.8824 20.7794 65.9007 20.6693C65.8457 20.7794 65.7906 20.9262 65.7172 21.0363L65.3869 21.6603H65.2768L65.185 21.0547C65.1666 20.9262 65.1483 20.7977 65.1483 20.6693C65.1299 20.7794 65.0932 20.9446 65.0565 21.0547L64.9097 21.6603H64.7812L65.0749 20.5225H65.2584L65.3502 21.1648C65.3685 21.2565 65.3685 21.3667 65.3685 21.4584C65.4052 21.3667 65.4603 21.2749 65.497 21.1831L65.8457 20.5225H66.0292L65.8824 21.6603H65.7723Z" fill="#009651"/>
</svg>