<svg xmlns="http://www.w3.org/2000/svg" width="21" height="20" viewBox="0 0 21 20" fill="none">
  <g clip-path="url(#clip0_382_28130)">
    <path d="M14.666 2.5009C14.8849 2.28203 15.1447 2.10842 15.4307 1.98996C15.7167 1.87151 16.0232 1.81055 16.3327 1.81055C16.6422 1.81055 16.9487 1.87151 17.2347 1.98996C17.5206 2.10842 17.7805 2.28203 17.9993 2.5009C18.2182 2.71977 18.3918 2.97961 18.5103 3.26558C18.6287 3.55154 18.6897 3.85804 18.6897 4.16757C18.6897 4.4771 18.6287 4.7836 18.5103 5.06956C18.3918 5.35553 18.2182 5.61537 17.9993 5.83424L6.74935 17.0842L2.16602 18.3342L3.41602 13.7509L14.666 2.5009Z" stroke="#F8B32E" stroke-width="2" stroke-linecap="round" stroke-linejoin="round"/>
  </g>
  <defs>
    <clipPath id="clip0_382_28130">
      <rect width="20" height="20" fill="white" transform="translate(0.5 0.000976562)"/>
    </clipPath>
  </defs>
</svg>