<svg xmlns="http://www.w3.org/2000/svg" width="17" height="16" viewBox="0 0 17 16" fill="none">
  <g clip-path="url(#clip0_449_47663)">
    <path d="M15.1669 11.2797V13.2797C15.1677 13.4654 15.1297 13.6492 15.0553 13.8193C14.9809 13.9894 14.8718 14.1421 14.735 14.2676C14.5982 14.3932 14.4367 14.4887 14.2608 14.5482C14.0849 14.6077 13.8985 14.6298 13.7136 14.6131C11.6622 14.3902 9.69161 13.6892 7.96028 12.5664C6.3495 11.5428 4.98384 10.1772 3.96028 8.56641C2.8336 6.82721 2.13244 4.84707 1.91361 2.78641C1.89695 2.60205 1.91886 2.41625 1.97795 2.24082C2.03703 2.0654 2.13199 1.9042 2.25679 1.76749C2.38159 1.63077 2.53348 1.52155 2.70281 1.44675C2.87213 1.37196 3.05517 1.33325 3.24028 1.33307H5.24028C5.56382 1.32989 5.87748 1.44446 6.12279 1.65543C6.3681 1.8664 6.52833 2.15937 6.57361 2.47974C6.65803 3.11978 6.81458 3.74822 7.04028 4.35307C7.12998 4.59169 7.14939 4.85102 7.09622 5.10033C7.04305 5.34964 6.91952 5.57848 6.74028 5.75974L5.89361 6.60641C6.84265 8.27544 8.22458 9.65737 9.89361 10.6064L10.7403 9.75974C10.9215 9.5805 11.1504 9.45697 11.3997 9.4038C11.649 9.35063 11.9083 9.37004 12.1469 9.45974C12.7518 9.68544 13.3802 9.84199 14.0203 9.92641C14.3441 9.97209 14.6399 10.1352 14.8513 10.3847C15.0627 10.6343 15.1751 10.9528 15.1669 11.2797Z" stroke="#F8B32E" stroke-width="2" stroke-linecap="round" stroke-linejoin="round"/>
  </g>
  <defs>
    <clipPath id="clip0_449_47663">
      <rect width="16" height="16" fill="white" transform="translate(0.5)"/>
    </clipPath>
  </defs>
</svg>