<svg width="30" height="23" viewBox="0 0 30 23" fill="none" xmlns="http://www.w3.org/2000/svg">
<g id="3 User">
<path id="Stroke 1" d="M22.8516 10.5293C24.7116 10.268 26.1436 8.67329 26.1476 6.74129C26.1476 4.83729 24.7596 3.25863 22.9396 2.95996" stroke="#F8B32E" stroke-width="1.5" stroke-linecap="round" stroke-linejoin="round"/>
<path id="Stroke 3" d="M25.3047 15.001C27.106 15.2703 28.3634 15.901 28.3634 17.201C28.3634 18.0956 27.7714 18.677 26.814 19.0423" stroke="#F8B32E" stroke-width="1.5" stroke-linecap="round" stroke-linejoin="round"/>
<path id="Stroke 5" fill-rule="evenodd" clip-rule="evenodd" d="M14.8496 15.5518C10.5643 15.5518 6.9043 16.2011 6.9043 18.7944C6.9043 21.3864 10.5416 22.0544 14.8496 22.0544C19.135 22.0544 22.7936 21.4118 22.7936 18.8171C22.7936 16.2224 19.1576 15.5518 14.8496 15.5518Z" stroke="#F8B32E" stroke-width="1.5" stroke-linecap="round" stroke-linejoin="round"/>
<path id="Stroke 7" fill-rule="evenodd" clip-rule="evenodd" d="M14.8498 11.851C17.6618 11.851 19.9418 9.57233 19.9418 6.75899C19.9418 3.94699 17.6618 1.66699 14.8498 1.66699C12.0378 1.66699 9.75785 3.94699 9.75785 6.75899C9.74718 9.56166 12.0099 11.8417 14.8125 11.851H14.8498Z" stroke="#F8B32E" stroke-width="1.5" stroke-linecap="round" stroke-linejoin="round"/>
<path id="Stroke 9" d="M6.84678 10.5293C4.98545 10.268 3.55478 8.67329 3.55078 6.74129C3.55078 4.83729 4.93878 3.25863 6.75878 2.95996" stroke="#F8B32E" stroke-width="1.5" stroke-linecap="round" stroke-linejoin="round"/>
<path id="Stroke 11" d="M4.39265 15.001C2.59132 15.2703 1.33398 15.901 1.33398 17.201C1.33398 18.0956 1.92598 18.677 2.88332 19.0423" stroke="#F8B32E" stroke-width="1.5" stroke-linecap="round" stroke-linejoin="round"/>
</g>
</svg>
