<svg xmlns="http://www.w3.org/2000/svg" width="24" height="24" viewBox="0 0 24 24" fill="none">
  <path d="M7.52934 6.52985C7.66182 6.38767 7.73394 6.19963 7.73052 6.00532C7.72709 5.81102 7.64838 5.62564 7.51096 5.48822C7.37355 5.35081 7.18816 5.2721 6.99386 5.26867C6.79956 5.26524 6.61151 5.33737 6.46934 5.46985L4.46934 7.46985C4.32889 7.61047 4.25 7.8011 4.25 7.99985C4.25 8.1986 4.32889 8.38922 4.46934 8.52985L6.46934 10.5298C6.538 10.6035 6.6208 10.6626 6.7128 10.7036C6.8048 10.7446 6.90411 10.7667 7.00482 10.7684C7.10552 10.7702 7.20555 10.7517 7.29894 10.714C7.39233 10.6762 7.47716 10.6201 7.54838 10.5489C7.6196 10.4777 7.67574 10.3928 7.71346 10.2994C7.75118 10.2061 7.76971 10.106 7.76793 10.0053C7.76615 9.90462 7.74411 9.80531 7.70312 9.71331C7.66213 9.62131 7.60303 9.53851 7.52934 9.46985L6.80934 8.74985H16.9993C17.1983 8.74985 17.389 8.67083 17.5297 8.53018C17.6703 8.38952 17.7493 8.19876 17.7493 7.99985C17.7493 7.80093 17.6703 7.61017 17.5297 7.46952C17.389 7.32886 17.1983 7.24985 16.9993 7.24985H6.80934L7.52934 6.52985ZM16.4693 13.4698C16.3289 13.6105 16.25 13.8011 16.25 13.9998C16.25 14.1986 16.3289 14.3892 16.4693 14.5298L17.1893 15.2498H6.99934C6.80043 15.2498 6.60966 15.3289 6.46901 15.4695C6.32836 15.6102 6.24934 15.8009 6.24934 15.9998C6.24934 16.1988 6.32836 16.3895 6.46901 16.5302C6.60966 16.6708 6.80043 16.7498 6.99934 16.7498H17.1893L16.4693 17.4698C16.3957 17.5385 16.3366 17.6213 16.2956 17.7133C16.2546 17.8053 16.2325 17.9046 16.2307 18.0053C16.229 18.106 16.2475 18.2061 16.2852 18.2994C16.3229 18.3928 16.3791 18.4777 16.4503 18.5489C16.5215 18.6201 16.6064 18.6762 16.6997 18.714C16.7931 18.7517 16.8932 18.7702 16.9939 18.7684C17.0946 18.7667 17.1939 18.7446 17.2859 18.7036C17.3779 18.6626 17.4607 18.6035 17.5293 18.5298L19.5293 16.5298C19.6698 16.3892 19.7487 16.1986 19.7487 15.9998C19.7487 15.8011 19.6698 15.6105 19.5293 15.4698L17.5293 13.4698C17.3887 13.3294 17.1981 13.2505 16.9993 13.2505C16.8006 13.2505 16.61 13.3294 16.4693 13.4698Z" fill="#2C2D33"/>
</svg>