<svg width="19" height="19" viewBox="0 0 19 19" fill="none" xmlns="http://www.w3.org/2000/svg">
<g id="Star 5">
<g id="Group">
<path id="Vector" d="M9.81008 13.9106L13.3566 16.1573C13.81 16.4441 14.3725 16.0172 14.2381 15.4879L13.2138 11.4576C13.1848 11.3453 13.1882 11.2271 13.2234 11.1167C13.2586 11.0062 13.3243 10.908 13.4129 10.8332L16.5933 8.18663C17.0106 7.839 16.7958 7.14544 16.2586 7.11056L12.1056 6.84056C11.9938 6.83263 11.8866 6.7931 11.7964 6.72658C11.7061 6.66006 11.6367 6.56928 11.596 6.46481L10.0469 2.56444C10.0047 2.45359 9.92984 2.35819 9.83219 2.29087C9.73455 2.22355 9.61875 2.1875 9.50015 2.1875C9.38155 2.1875 9.26574 2.22355 9.1681 2.29087C9.07046 2.35819 8.99558 2.45359 8.9534 2.56444L7.40427 6.46481C7.36372 6.56939 7.29429 6.66028 7.20406 6.72691C7.11383 6.79354 7.00652 6.83315 6.89465 6.84113L2.74171 7.11113C2.20508 7.14544 1.98908 7.839 2.40702 8.18663L5.5874 10.8338C5.67588 10.9085 5.7415 11.0067 5.77673 11.117C5.81195 11.2273 5.81534 11.3454 5.78652 11.4576L4.83702 15.1954C4.67558 15.8304 5.35115 16.3429 5.89452 15.9981L9.19077 13.9106C9.28342 13.8517 9.39093 13.8204 9.50071 13.8204C9.61049 13.8204 9.718 13.8517 9.81065 13.9106H9.81008Z" fill="#CCCCCC"/>
</g>
</g>
</svg>
