<svg xmlns="http://www.w3.org/2000/svg" width="27" height="25" viewBox="0 0 27 25" fill="none">
  <rect x="1.47852" y="1" width="24.0435" height="23" rx="7.5" fill="#FAFAFA"/>
  <rect x="1.47852" y="1" width="24.0435" height="23" rx="7.5" stroke="#EFEFFD"/>
  <path fill-rule="evenodd" clip-rule="evenodd" d="M13.5012 2.5C12.9249 2.5 12.4577 2.94772 12.4577 3.5V12.5C12.4577 13.0523 12.9249 13.5 13.5012 13.5H22.8925C23.4688 13.5 23.936 13.0523 23.936 12.5C23.936 6.97715 19.2642 2.5 13.5012 2.5ZM14.5447 11.5V4.56189C18.3207 5.01314 21.3136 7.88128 21.7844 11.5H14.5447Z" fill="#F8B32E"/>
  <path d="M10.7505 4.94419C11.2946 4.76228 11.5818 4.19208 11.392 3.67062C11.2022 3.14915 10.6072 2.87389 10.0631 3.0558C5.99069 4.41725 3.06641 8.13006 3.06641 12.5C3.06641 18.0228 7.73822 22.5 13.5012 22.5C18.0462 22.5 21.91 19.7159 23.3419 15.8332C23.534 15.3125 23.2492 14.7412 22.7058 14.5572C22.1625 14.3731 21.5663 14.646 21.3743 15.1668C20.2278 18.2753 17.1343 20.5 13.5012 20.5C8.89081 20.5 5.15336 16.9183 5.15336 12.5C5.15336 9.00685 7.49013 6.03417 10.7505 4.94419Z" fill="#F8B32E"/>
</svg>