<svg width="106" height="107" viewBox="0 0 106 107" fill="none" xmlns="http://www.w3.org/2000/svg">
<g id="mingcute:video-line" opacity="0.6" clip-path="url(#clip0_442_31700)">
<g id="Group">
<path id="Vector" fill-rule="evenodd" clip-rule="evenodd" d="M88 13.375C90.2075 13.3743 92.3337 14.2239 93.9524 15.7535C95.5711 17.2831 96.5626 19.3797 96.7281 21.6229L96.75 22.2917V84.7083C96.7507 86.9579 95.917 89.1246 94.416 90.7741C92.9149 92.4236 90.8576 93.434 88.6562 93.6027L88 93.625H18C15.7925 93.6257 13.6663 92.7761 12.0476 91.2465C10.4289 89.7169 9.43744 87.6203 9.27188 85.3771L9.25 84.7083V22.2917C9.2493 20.0421 10.083 17.8754 11.584 16.2259C13.0851 14.5764 15.1424 13.566 17.3438 13.3973L18 13.375H88ZM88 22.2917H18V84.7083H88V22.2917ZM45.7375 34.0528L48.0037 35.0782L49.4825 35.7915L51.1756 36.6386L53.0569 37.6105L55.1131 38.7251L57.3312 39.9734L58.495 40.6511L60.7612 42.0109L62.835 43.3127L64.7163 44.5298L66.3787 45.6578L68.4788 47.129L70.0713 48.3016L70.4869 48.6137C71.1621 49.1256 71.7104 49.7914 72.0882 50.5577C72.466 51.3241 72.6628 52.1698 72.6628 53.0274C72.6628 53.885 72.466 54.7308 72.0882 55.4971C71.7104 56.2635 71.1621 56.9292 70.4869 57.4412L69.0737 58.4889L67.1488 59.862L65.5913 60.9276L63.8194 62.1001L61.8375 63.3618L59.6544 64.6993L57.3181 66.077L55.0912 67.3342L53.0306 68.4488L51.1494 69.4296L49.4606 70.2678L46.7394 71.5518L45.7331 71.9976C44.9606 72.3369 44.121 72.4874 43.2812 72.4374C42.4415 72.3873 41.6248 72.1379 40.8964 71.7092C40.168 71.2804 39.5479 70.6842 39.0858 69.9679C38.6236 69.2517 38.332 68.4353 38.2344 67.5839L37.9806 65.0649L37.8406 63.3975L37.6569 60.4372L37.5563 58.1723L37.4906 55.698C37.4828 55.2611 37.477 54.8242 37.4731 54.3872L37.4644 53.0274C37.4644 52.1045 37.4731 51.2129 37.4906 50.3524L37.5563 47.878L37.6569 45.6177L37.775 43.5802L37.9062 41.7924L38.2344 38.4754C38.3315 37.6231 38.6227 36.8056 39.0848 36.0883C39.547 35.371 40.1672 34.7737 40.8961 34.3441C41.625 33.9145 42.4424 33.6644 43.2829 33.6138C44.1235 33.5632 44.9641 33.7135 45.7375 34.0528ZM48.4106 45.203L46.5031 44.2311L46.3763 46.4023L46.28 48.8589L46.2231 51.5785L46.2144 53.0274L46.2231 54.4764L46.28 57.1915L46.3237 58.4532L46.4375 60.7715L46.5031 61.8193L48.4019 60.8473L50.5325 59.706L52.8731 58.3952L54.1156 57.673L56.5262 56.2196L58.6875 54.8553L60.595 53.607L61.4525 53.0274L59.6719 51.8237L57.6331 50.5129C56.473 49.7811 55.3018 49.0677 54.12 48.3729L52.8819 47.6551L50.5456 46.3444L48.4106 45.203Z" fill="#5570F1"/>
</g>
</g>
<defs>
<clipPath id="clip0_442_31700">
<rect width="105" height="107" fill="white" transform="translate(0.5)"/>
</clipPath>
</defs>
</svg>
