<svg xmlns="http://www.w3.org/2000/svg" width="80" height="46" viewBox="0 0 80 46" fill="none">
<rect width="80" height="46" rx="8" fill="white"/>
<path d="M57.7221 17.1777H55.1798C54.4112 17.1777 53.82 17.4142 53.4653 18.1828L48.6172 29.2388H52.0463C52.0463 29.2388 52.6376 27.7608 52.7558 27.406C53.1105 27.406 56.4806 27.406 56.9535 27.406C57.0718 27.8199 57.3674 29.1797 57.3674 29.1797H60.4418L57.7221 17.1777ZM53.7018 24.9229C53.9974 24.2134 55.0025 21.5528 55.0025 21.5528C55.0025 21.612 55.2981 20.8434 55.4163 20.4295L55.6528 21.4937C55.6528 21.4937 56.3032 24.3907 56.4214 24.982H53.7018V24.9229Z" fill="#3362AB"/>
<path d="M48.8537 25.2772C48.8537 27.7604 46.607 29.4158 43.1188 29.4158C41.6407 29.4158 40.2217 29.1202 39.4531 28.7655L39.9261 26.0458L40.34 26.2232C41.4042 26.6962 42.1137 26.8736 43.4144 26.8736C44.3603 26.8736 45.3654 26.5188 45.3654 25.6911C45.3654 25.159 44.9516 24.8042 43.6509 24.213C42.4093 23.6218 40.7538 22.6758 40.7538 20.9612C40.7538 18.5963 43.0596 17 46.3114 17C47.553 17 48.6172 17.2365 49.2676 17.5321L48.7946 20.1335L48.5581 19.897C47.9668 19.6605 47.1982 19.424 46.0749 19.424C44.8333 19.4832 44.2421 20.0153 44.2421 20.4883C44.2421 21.0204 44.9516 21.4342 46.0749 21.9663C47.9668 22.8532 48.8537 23.8583 48.8537 25.2772Z" fill="#3362AB"/>
<path d="M20 17.2961L20.0591 17.0596H25.1437C25.8532 17.0596 26.3853 17.2961 26.5627 18.0647L27.686 23.3857C26.5627 20.5478 23.9612 18.242 20 17.2961Z" fill="#F9B50B"/>
<path d="M34.8381 17.1773L29.6944 29.1793H26.2062L23.25 19.1283C25.3784 20.4882 27.1521 22.6166 27.8025 24.0947L28.1572 25.3363L31.3499 17.1182H34.8381V17.1773Z" fill="#3362AB"/>
<path d="M36.1982 17.1182H39.45L37.3807 29.1793H34.1289L36.1982 17.1182Z" fill="#3362AB"/>
</svg>