<svg width="21" height="20" viewBox="0 0 21 20" fill="none" xmlns="http://www.w3.org/2000/svg">
<g id="what&#39;s" clip-path="url(#clip0_3234_7228)">
<path id="Vector" d="M0.926172 9.87992C0.925703 11.5603 1.3682 13.2011 2.20961 14.6473L0.845703 19.5885L5.94195 18.2626C7.35151 19.024 8.93081 19.423 10.5357 19.4231H10.5399C15.838 19.4231 20.1507 15.1453 20.153 9.88744C20.154 7.33961 19.1549 4.9438 17.3398 3.14132C15.5249 1.33899 13.1113 0.345889 10.5395 0.344727C5.24086 0.344727 0.928438 4.62225 0.92625 9.87992" fill="url(#paint0_linear_3234_7228)"/>
<path id="Vector_2" d="M0.583594 9.87721C0.583047 11.6181 1.04141 13.3175 1.91281 14.8155L0.5 19.9339L5.77898 18.5605C7.23352 19.3474 8.87117 19.7622 10.5376 19.7629H10.5419C16.03 19.7629 20.4977 15.3312 20.5 9.88512C20.5009 7.24574 19.4659 4.7638 17.5859 2.89674C15.7057 1.02992 13.2057 0.00108527 10.5419 0C5.05281 0 0.585781 4.43101 0.583594 9.87721ZM3.72742 14.5575L3.53031 14.2471C2.70172 12.9398 2.26437 11.4291 2.265 9.87783C2.26672 5.35109 5.97953 1.66822 10.545 1.66822C12.7559 1.66915 14.8337 2.52434 16.3966 4.07597C17.9593 5.62775 18.8192 7.69054 18.8187 9.8845C18.8166 14.4112 15.1037 18.0946 10.5419 18.0946H10.5386C9.0532 18.0938 7.59641 17.698 6.32594 16.95L6.02359 16.7721L2.89094 17.5871L3.72742 14.5575Z" fill="url(#paint1_linear_3234_7228)"/>
<path id="Vector_3" d="M8.05352 5.74776C7.86711 5.33668 7.67094 5.32838 7.49367 5.32117C7.34852 5.31497 7.18258 5.31544 7.0168 5.31544C6.85086 5.31544 6.58125 5.37738 6.35336 5.62427C6.12523 5.87141 5.48242 6.46862 5.48242 7.68327C5.48242 8.898 6.37406 10.0719 6.49836 10.2368C6.62281 10.4013 8.21969 12.9737 10.7487 13.9633C12.8506 14.7857 13.2784 14.6222 13.7345 14.5809C14.1908 14.5399 15.2067 13.9839 15.414 13.4074C15.6214 12.8309 15.6214 12.3368 15.5592 12.2336C15.497 12.1307 15.3311 12.0689 15.0823 11.9455C14.8334 11.822 13.6101 11.2247 13.382 11.1423C13.1539 11.06 12.988 11.0189 12.8221 11.2661C12.6562 11.513 12.1797 12.0689 12.0345 12.2336C11.8894 12.3986 11.7441 12.4192 11.4954 12.2957C11.2464 12.1718 10.4451 11.9114 9.49438 11.0704C8.75469 10.416 8.25531 9.60784 8.11016 9.36063C7.965 9.11381 8.09461 8.98001 8.21938 8.85699C8.33117 8.74637 8.46828 8.56869 8.59281 8.42459C8.71688 8.2804 8.75828 8.17753 8.84125 8.01288C8.9243 7.84807 8.88273 7.70389 8.82063 7.5804C8.75828 7.45691 8.27477 6.2359 8.05352 5.74776Z" fill="white"/>
</g>
<defs>
<linearGradient id="paint0_linear_3234_7228" x1="966.209" y1="1924.72" x2="966.209" y2="0.344727" gradientUnits="userSpaceOnUse">
<stop stop-color="#1FAF38"/>
<stop offset="1" stop-color="#60D669"/>
</linearGradient>
<linearGradient id="paint1_linear_3234_7228" x1="1000.5" y1="1993.39" x2="1000.5" y2="0" gradientUnits="userSpaceOnUse">
<stop stop-color="#1FAF38"/>
<stop offset="1" stop-color="#60D669"/>
</linearGradient>
<clipPath id="clip0_3234_7228">
<rect width="20" height="20" fill="white" transform="translate(0.5)"/>
</clipPath>
</defs>
</svg>
